<svg width="296" height="199" viewBox="0 0 296 199" fill="none" xmlns="http://www.w3.org/2000/svg">
    <g clip-path="url(#ujfcvgjnja)">
        <path d="M201.033 57.701s13.902 7.2 3.772 22.67c0 0 11.943 1.401 14.946-2.08a9.91 9.91 0 0 1-.981 2.264s11.572-1.537 15.714-5.98c4.143-4.442-8.782-63.54-39.599-51.445 0 0-27.4 2.531-19.625 33.821 7.775 31.29-2.439 33.027-2.439 33.027s3.079.935 4.448.7c0 0 1.876-1.114 2.086-2.304 0 0-.103 1.831-.525 2.48 0 0 11.203-.817 16.011-5.971s8.849-20.906 6.192-27.182z" fill="#2F2E41"/>
        <path d="M178.015 120.408c4.149 3.245 6.773 14.957 13.461 16.889 25.071 7.25 38.532-22.912 42.932-37.635a21.667 21.667 0 0 0-8.461-3.12 81.397 81.397 0 0 0-5.336-.721c-2.738-2.357-6.527-11.625-6.759-25.721l-1.21.262-20.273 4.511s.591 6.486.734 12.596c.106 4.781.259 5.922-.105 6.495-1.577.262-3.434 4.348-3.434 4.348a131.263 131.263 0 0 0-11.549 22.096z" fill="#F9BCC3"/>
        <path d="M89.25 181.398s11.921.446 24.868.489c1.531.008 3.08.008 4.625 0 10.543-.045 20.905-.419 25.314-1.571 4.306-1.124 20.877-12.501 34.138-26.286l.003-.003.001-.004c1.029 2.483 1.804 4.379 1.823 4.531a70.394 70.394 0 0 0 1.829 9.169 112.177 112.177 0 0 0 8.189 21.221l7.102-.013 55.436-.081s-10.472-16.34-7.659-58.199c.071-1.059-9.652-34.833-9.652-34.833s-7.554-1.337-16.286-2.051c-.823.76-2.519 22.979-13.44 24.266-1.776.207-13.172 17.842-13.172 17.842l-3.451-18.013L193 93.963c-5.239 1.555-8.112 2.112-12.468 3.876a13.817 13.817 0 0 0-6.951 6.255c-7.631 14.127-32.394 59.69-34.922 60.751-2.367.992-11.287 2.802-20.726 4.546h-.007c-12.63 2.336-26.186 4.555-26.186 4.555l-2.49 7.452z" fill="#3687CA"/>
        <path d="m186.084 188.951 3.97.011-.013-.016-3.957.005z" fill="#BED2FA"/>
        <path d="m180.597 70.437.775.109a6.298 6.298 0 0 0 4.693-1.246 6.46 6.46 0 0 0 2.462-4.236l.565-4.109a6.506 6.506 0 0 0-1.23-4.754 6.342 6.342 0 0 0-4.18-2.493l-.776-.11a6.3 6.3 0 0 0-4.693 1.247 6.464 6.464 0 0 0-2.461 4.235l-.566 4.11a6.507 6.507 0 0 0 1.23 4.754 6.347 6.347 0 0 0 4.181 2.493z" fill="#7D7D7D"/>
        <path d="M192.367 74.877s.595 6.482.734 12.596c11.386-.564 17.193-11.218 19.542-17.106l-20.276 4.51z" fill="#E5AEB5"/>
        <path d="M188.987 81.051s26.959-.536 26.371-17.538c-.589-17.002 2.496-28.523-14.741-28.9-17.237-.379-20.355 6.23-21.522 11.953-1.167 5.724 2.865 34.187 9.892 34.485z" fill="#F9BCC3"/>
        <path d="M114.119 181.887c1.531.009 3.08.009 4.626 0 10.543-.045 20.906-.419 25.313-1.571 4.308-1.124 20.878-12.502 34.139-26.285a.013.013 0 0 0 .004-.009s-2.797-10.849-4.003-12.664c-1.205-1.816-5.963 15.831-17.077 23.012-11.113 7.18-28.508 12.211-36.954 10.177-5.69-1.371-6.275 3.811-6.048 7.34z" fill="#1F7CCC"/>
        <path d="M187.456 32.357s6.902 20.712 17.256 24.225c10.353 3.514 13.787-.647 13.787-.647a30.506 30.506 0 0 1-8.505-18.585s-16.728-13.462-22.538-4.993z" fill="#2F2E41"/>
        <path d="M200.346 38.452s-14.056-.798-18.257 3.255c-3.029 2.925-2.958 4.45-3.193 8.349 0 0-6.147-9.607.178-16.33 6.706-7.128 21.272 4.726 21.272 4.726z" fill="#2F2E41"/>
        <path d="M188.055 34.548s3.52 19.818 16.388 27.016c0 0-12.463-12.923-12.684-25.854-.222-12.932-3.704-1.162-3.704-1.162z" fill="#2F2E41"/>
        <path d="M234.489 74.573c-4.145 4.443-15.714 5.982-15.714 5.982a9.81 9.81 0 0 0 .978-2.267c-5.948 4.884-20.554 1.338-20.554 1.338 11.651-2.608 7.878-19.64 3.915-20.366-2.308-12.845-6.888-28.839-9.033-36.02.516-.086.808-.113.808-.113 30.817-12.094 43.745 47.007 39.6 51.446z" fill="#2F2E41"/>
        <path d="M146.881 171.552s-11.962-.674-13.124-.06c-1.885.996-8.312 5.047-9.319 6.224-1.006 1.177-3.645 5.901-3.645 5.901s1.141.311 1.656-.143c.516-.453 4.418-4.513 4.418-4.513l-4.008 5.963s1.382-.063 1.935-.653c.553-.59 4.296-4.322 4.296-4.322l1.276-.247a13.706 13.706 0 0 0-2.005 1.945 12.07 12.07 0 0 0-1.173 1.917 9.5 9.5 0 0 0 1.499-.356c.356-.167 3.715-3.045 3.715-3.045l-1.78 2.378a4.743 4.743 0 0 0 1.595-.318c.393-.261 3.01-2.621 3.475-2.615.464.005 3.803-.132 5.238-.877 1.435-.745 5.937-2.449 5.937-2.449l.014-4.73z" fill="#F9BCC3"/>
        <path d="M181.852 167.726a112.329 112.329 0 0 0 8.189 21.22l-3.96.004 3.97.013h36.828s-4.275-.009-4.265-.029c.1-.379-6.229-17.759 4.265-24.883 10.511-7.136 14.324-24.683 14.324-24.683l-33.449-8.278s-13.781 20.373-17.703 24.257c-3.012 2.982-10.029 3.206-10.029 3.206l1.83 9.173zM217.387 90.507s7.732 2.284 9.492 4.083c0 0-8.082 20.931-19.737 30.701l-3.115-2.238v5.089l-11.666 7.734s25.624-39.037 25.026-45.369z" fill="#1F7CCC"/>
        <path d="M192.998 93.962s-3.557 28.48-.629 41.914c0 0-4.777-8.888-5.444-10.517l.803-4.885-3.08 1.083s2.716-22.705 5.176-26.682c2.46-3.977 3.364-4.367 3.364-4.367l-.19 3.454z" fill="#1F7CCC"/>
        <path d="M89.252 181.399s14.916.557 29.494.488c3.615-5.683-.812-12.493-.812-12.493h-.008c-12.629 2.336-26.187 4.554-26.187 4.554l-2.487 7.451z" fill="#F9BCC3"/>
        <path d="M85.466 188.651h55.125a4.48 4.48 0 0 0-1.287-3.147 4.368 4.368 0 0 0-3.106-1.305H85.472l-.006 4.452z" fill="#2F2E41"/>
        <path d="m.403 127.833 20.44 60.821h85.777l-20.995-60.821H.403z" fill="#1D1D3A"/>
        <path d="m2.772 127.833 20.253 60.259.188.562h84.522l-20.994-60.821H2.771z" fill="#2F2E41"/>
        <path d="M47.463 160.079a5.622 5.622 0 0 0 1.872 2.957 5.501 5.501 0 0 0 3.24 1.251c2.293 0 3.723-1.885 3.194-4.208a5.624 5.624 0 0 0-1.872-2.957 5.501 5.501 0 0 0-3.24-1.25c-2.293 0-3.724 1.882-3.194 4.207z" fill="#413D56"/>
        <path d="M145.994 176.281s28.377 2.511 44.059 1.803v-15.611c-10.274 2.875-44.047 9.078-44.047 9.078l-.012 4.73z" fill="#F9BCC3"/>
        <path d="M226.881 94.588s16.228.374 21.25 5.871c5.023 5.497-4.982 36.552-4.982 36.552s-30.25 37.533-45.383 40.178c0 0-6.614.916-9.701.967 0 0 3.028-8.928-2.601-14.53 0 0 6.478-1.838 6.747-2.652.268-.814 34.67-66.386 34.67-66.386z" fill="#3685C9"/>
        <path fill-rule="evenodd" clip-rule="evenodd" d="M274.456 139.119c-4.44-4.585-7.745 1.235-7.285 7.076.44 5.54 5.15 24.537 4.275 32.529h1.801c4.418-10.243 6.896-33.741 1.209-39.605z" fill="#3685C9"/>
        <path fill-rule="evenodd" clip-rule="evenodd" d="M272.593 178.731c4.296-16.152-1.142-38.488-1.159-38.561a.265.265 0 0 0-.118-.154.258.258 0 0 0-.381.277c.016.074 5.46 22.432 1.136 38.438h.522z" fill="#88CEDF"/>
        <path fill-rule="evenodd" clip-rule="evenodd" d="M263.501 149.218c-4.679-2.511-5.86 2.97-4.035 7.503 1.513 3.757 8.193 14.863 10.715 22.01h2.378c.205-9.868-3.531-26.548-9.058-29.513z" fill="#DEDEDE"/>
        <path fill-rule="evenodd" clip-rule="evenodd" d="M271.695 178.731c-1.547-13.35-10.309-27.857-10.345-27.907a.215.215 0 0 0-.132-.098.21.21 0 0 0-.162.025.221.221 0 0 0-.097.134.223.223 0 0 0 .025.164c.034.05 8.737 14.467 10.284 27.682h.427z" fill="#D2D2D2"/>
        <path fill-rule="evenodd" clip-rule="evenodd" d="M283.281 155.555c4.534-2.005 5.255 3.184 3.238 7.279-1.364 2.768-6.276 9.87-9.585 15.899h-3.776c1.292-9.134 5.433-21.108 10.123-23.178z" fill="#DEDEDE"/>
        <path fill-rule="evenodd" clip-rule="evenodd" d="M274.505 178.731c3.221-11.064 10.633-21.488 10.665-21.524a.195.195 0 0 1 .129-.076.198.198 0 0 1 .224.164.201.201 0 0 1-.031.147c-.027.04-7.367 10.357-10.577 21.291l-.41-.002z" fill="#D2D2D2"/>
        <path fill-rule="evenodd" clip-rule="evenodd" d="M265.253 174.423h15.683c.226 0 .443.091.603.253a.87.87 0 0 1 .25.611v3.918a.87.87 0 0 1-.25.611.849.849 0 0 1-.603.254h-15.683a.849.849 0 0 1-.603-.254.867.867 0 0 1-.251-.611v-3.918a.879.879 0 0 1 .253-.609.852.852 0 0 1 .601-.255z" fill="#2F2E41"/>
        <path fill-rule="evenodd" clip-rule="evenodd" d="M267.947 177.612h10.3l2.689 2.455-2.194 8.575h-11.288l-2.2-8.575 2.693-2.455z" fill="#2F2E41"/>
        <path fill-rule="evenodd" clip-rule="evenodd" d="m280.936 180.067-.455 1.763H265.71l-.455-1.763h15.681z" fill="#272631"/>
        <path opacity=".47" d="M161.201 195.179h132c1.041 0 1.886.856 1.886 1.911 0 1.055-.845 1.91-1.886 1.91h-132c-1.041 0-1.885-.855-1.885-1.91s.844-1.911 1.885-1.911zM8.459 187.538h284.113c1.389 0 2.515 1.14 2.515 2.547 0 1.407-1.126 2.547-2.515 2.547H8.459c-1.389 0-2.514-1.14-2.514-2.547 0-1.407 1.125-2.547 2.514-2.547z" fill="#3687CA"/>
        <path d="M36.8 54.736h77.629a3.15 3.15 0 0 1 2.236.938 3.204 3.204 0 0 1 .926 2.266v25.554c0 .524-.127 1.04-.369 1.503a3.198 3.198 0 0 1-1.022 1.151l-15.989 10.945a1.053 1.053 0 0 1-1.228-.026 1.091 1.091 0 0 1-.386-1.181l3.198-10.69H36.801a3.126 3.126 0 0 1-2.237-.94 3.207 3.207 0 0 1-.926-2.265v-24.05a3.24 3.24 0 0 1 .926-2.267 3.128 3.128 0 0 1 2.236-.938z" fill="#90C9F8"/>
        <mask id="cf32vrkg8b" style="mask-type:luminance" maskUnits="userSpaceOnUse" x="11" y="54" width="107" height="44">
            <path d="M14.45 54.736h99.978a3.15 3.15 0 0 1 2.236.938 3.24 3.24 0 0 1 .927 2.266v25.554a3.245 3.245 0 0 1-.37 1.503 3.198 3.198 0 0 1-1.022 1.151l-15.988 10.945a1.053 1.053 0 0 1-1.228-.026 1.091 1.091 0 0 1-.386-1.181l3.198-10.69H14.449a3.126 3.126 0 0 1-2.236-.94 3.206 3.206 0 0 1-.686-1.038 3.242 3.242 0 0 1-.24-1.227v-24.05a3.206 3.206 0 0 1 .926-2.266 3.127 3.127 0 0 1 2.236-.938z" fill="#fff"/>
        </mask>
        <g mask="url(#cf32vrkg8b)">
            <path d="m96.627 88.175 3.543-2.993h10.334L97.216 92.66l-.589-4.485z" fill="#F2F2F2" style="mix-blend-mode:multiply" opacity=".22"/>
        </g>
        <path d="M50.963 62.894h56.415c.503 0 .907-.608.907-1.36 0-.75-.406-1.359-.907-1.359H50.962c-.503 0-.906.61-.906 1.36 0 .751.407 1.36.907 1.36zM50.963 69.785h56.415c.503 0 .907-.61.907-1.36 0-.751-.406-1.36-.907-1.36H50.962c-.503 0-.906.61-.906 1.36 0 .75.407 1.36.907 1.36zM65.952 73.954h41.535c.441 0 .798.362.798.808v1.104a.803.803 0 0 1-.798.808H65.952a.803.803 0 0 1-.797-.808v-1.104c0-.446.357-.808.797-.808z" fill="#F2F2F2"/>
        <path d="M188.565 77.351c14.092-4.51 17.548-18.025 17.582-18.16l-1.503-.379c-.032.128-3.303 12.805-16.547 17.044-.088.03-.176.056-.266.084l.45 1.5c.095-.028.189-.058.283-.088" fill="#7D7D7D"/>
        <path d="m186.969 78.409 1.329-.426a1.282 1.282 0 0 0 .766-.641 1.325 1.325 0 0 0-.156-1.453 1.29 1.29 0 0 0-.885-.46 1.272 1.272 0 0 0-.503.061l-1.329.426a1.291 1.291 0 0 0-.766.641 1.325 1.325 0 0 0 .156 1.453 1.302 1.302 0 0 0 .885.46c.17.013.341-.007.503-.061z" fill="#D6D6D6"/>
        <path d="m203.616 70.866 1.023.144a8.315 8.315 0 0 0 6.193-1.645 8.525 8.525 0 0 0 3.248-5.589l.743-5.423a8.588 8.588 0 0 0-1.624-6.273 8.374 8.374 0 0 0-5.517-3.29l-1.023-.144a8.315 8.315 0 0 0-6.193 1.645 8.53 8.53 0 0 0-3.248 5.589l-.742 5.422a8.588 8.588 0 0 0 1.623 6.274 8.374 8.374 0 0 0 5.517 3.29z" fill="#7D7D7D"/>
        <path d="M210.314 51.086c.609-1.156-1.526-10.138-4.665-17.104-1.517-3.368-5.346-7.874-8.078-9.036a5.809 5.809 0 0 0-3.369-.003 25.43 25.43 0 0 0-2.954 1.21c8.981 2.834 16.785 21.904 16.219 23.877a.762.762 0 0 1 .062-.138l2.785 1.194z" fill="#7D7D7D"/>
        <path d="m205.675 65.473.51.071a4.144 4.144 0 0 0 3.086-.819 4.249 4.249 0 0 0 1.618-2.785l.369-2.701a4.28 4.28 0 0 0-.808-3.126 4.174 4.174 0 0 0-2.749-1.64l-.51-.071a4.144 4.144 0 0 0-3.086.819 4.249 4.249 0 0 0-1.618 2.785l-.369 2.7a4.274 4.274 0 0 0 .808 3.127 4.171 4.171 0 0 0 2.749 1.639" fill="#D6D6D6"/>
        <g opacity=".32">
            <path d="M140.115 12.52h-19.246c-.97 0-1.931.194-2.828.57a7.385 7.385 0 0 0-2.397 1.622 7.507 7.507 0 0 0-1.602 2.429 7.577 7.577 0 0 0-.562 2.865v8.647c0 1.985.779 3.889 2.164 5.292a7.342 7.342 0 0 0 5.225 2.193h31.417a.393.393 0 0 0 .375-.276.4.4 0 0 0-.144-.446l-5.014-3.678V20.006c0-.983-.191-1.957-.562-2.865a7.489 7.489 0 0 0-1.601-2.428 7.387 7.387 0 0 0-2.397-1.623 7.311 7.311 0 0 0-2.828-.57z" fill="#90C9F8" stroke="#90C9F8" stroke-miterlimit="10"/>
            <path d="m136.311 31.052 1.467-1.78a1.634 1.634 0 0 0-.204-2.276l-1.685-1.425a1.59 1.59 0 0 0-1.166-.37 1.574 1.574 0 0 0-1.081.575s-.779 1.187-1.694.975c-1.039-.241-3.3-1.91-4.518-3.21-.857-.912.585-2.522.585-2.522a1.635 1.635 0 0 0-.203-2.276l-1.686-1.425a1.593 1.593 0 0 0-1.166-.37 1.58 1.58 0 0 0-1.081.575l-1.464 1.779c-3.306 4.008 11.02 15.242 13.896 11.75z" fill="#F8F8F8"/>
        </g>
    </g>
    <defs>
        <clipPath id="ujfcvgjnja">
            <path fill="#fff" transform="matrix(-1 0 0 1 295.087 0)" d="M0 0h294.685v199H0z"/>
        </clipPath>
    </defs>
</svg>
