<svg width="39" height="40" viewBox="0 0 39 40" fill="none" xmlns="http://www.w3.org/2000/svg">
    <path d="M6.422 3.687c5.133-2.47 17.714-6.964 30.649.154 1.2.663 1.929 1.9 1.929 3.227v14.634c0 1.9-.514 3.768-1.5 5.422-2.154 3.636-6.677 9.763-13.953 12.582-1.275.5-2.722.347-3.9-.347-2.82-1.644-8.295-5.147-12.26-9.59C5.19 27.32 4 24.204 4 20.988V7.477c0-1.594.932-3.064 2.422-3.78v-.01z" fill="#F9DBDA"/>
    <path d="m31.855 26.038-.001.002c-2.06 3.488-6.336 9.276-13.155 11.928l-.004.001c-.994.391-2.141.277-3.089-.283l-.003-.002c-2.718-1.591-7.95-4.955-11.716-9.19v-.002A12.035 12.035 0 0 1 .8 20.462V7.29c0-1.238.723-2.396 1.9-2.963l.453-.218V4.1c5.157-2.398 16.725-6.207 28.586.343A2.804 2.804 0 0 1 33.2 6.891v14.268c0 1.708-.46 3.389-1.345 4.879z" stroke="#3A464C" stroke-width="1.6"/>
    <path d="M19.94 25.308H8.562a1.382 1.382 0 0 1-1.339-1.422v-9.954a1.382 1.382 0 0 1 1.34-1.422H19.94a1.382 1.382 0 0 1 1.338 1.421v9.955a1.381 1.381 0 0 1-1.338 1.422zM26.968 13.932a.7.7 0 0 0-.463.18h-.007l-3.796 3.377v2.845l3.796 3.378h.007a.7.7 0 0 0 .966-.028.712.712 0 0 0 .209-.503v-8.533a.71.71 0 0 0-.712-.716z" fill="#3A464C"/>
</svg>
