<svg width="47" height="40" viewBox="0 0 47 40" fill="none" xmlns="http://www.w3.org/2000/svg">
    <rect x="4" y="3" width="43" height="37" rx="4" fill="#FBF6A0"/>
    <rect x=".8" y=".8" width="40.4" height="34.4" rx="3.2" stroke="#3A464C" stroke-width="1.6"/>
    <path d="M30.429 25.263c0-.716-.026-1.268 0-2.784.023-1.373-.623-1.34-1.474-1.309a5.892 5.892 0 0 1-2.29-.328 1.4 1.4 0 0 0-1.965.328c-.313.302-1.469 1.464-1.637 1.636-.169.172-.394.144-.656 0a13.936 13.936 0 0 1-3.274-2.455 15.783 15.783 0 0 1-2.782-3.6c-.133-.226.132-.448.327-.655.196-.206 1.114-1.178 1.637-1.637.523-.458.568-.913.328-1.31a7.556 7.556 0 0 1-.492-3.11 1.145 1.145 0 0 0-1.145-1.145h-3.11a1.146 1.146 0 0 0-1.146 1.146v.164a16.367 16.367 0 0 0 16.37 16.37c.483.008 1.309-.04 1.309-1.31z" fill="#3A464C"/>
</svg>
