<svg width="48" height="45" viewBox="0 0 48 45" fill="none" xmlns="http://www.w3.org/2000/svg">
    <path d="M25.766 45c11.825 0 21.411-9.749 21.411-21.774 0-12.026-9.586-21.774-21.41-21.774-11.826 0-21.412 9.748-21.412 21.774C4.355 35.25 13.94 45 25.766 45z" fill="#E8DAFF"/>
    <path d="M26.387 10.645c.326.119.678.193.973.365.815.476 1.24 1.213 1.245 2.159.01 2.552.007 5.104.002 7.657a2.522 2.522 0 0 1-2.527 2.518c-3.029.005-6.058.003-9.086 0a.535.535 0 0 0-.375.13c-1.119.94-2.242 1.874-3.365 2.81-.323.27-.595.31-.865.134a.616.616 0 0 1-.29-.494c-.003-.046-.002-.092-.002-.138V13.228c.001-1.236.781-2.229 1.976-2.521l.246-.062h12.068zm-13.02 13.87c.074-.056.117-.085.156-.117.823-.686 1.648-1.37 2.467-2.06.213-.18.44-.265.722-.264 3.076.005 6.151.004 9.228.003.866 0 1.4-.532 1.4-1.396v-7.362c0-.868-.532-1.403-1.394-1.404-3.73 0-7.462 0-11.192.002-.15 0-.306.017-.45.056-.592.159-.937.654-.937 1.332V24.515z" fill="#3A464C"/>
    <path d="M32.42 30.491c-.043.074-.078.153-.13.22-.242.322-.627.343-.993.05-.75-.597-1.52-1.172-2.237-1.806-.455-.402-.921-.55-1.529-.542-2.592.032-5.185.015-7.778.013-1.227-.001-2.236-.772-2.497-1.966-.093-.425-.077-.88-.064-1.32.01-.314.336-.538.664-.522.31.016.575.275.588.588.009.198.001.397.003.596.009.813.546 1.352 1.362 1.354 1.383.004 2.765.001 4.147.001 1.488 0 2.977.006 4.465-.004.297-.002.532.089.759.274.639.523 1.287 1.033 1.956 1.567.006-.08.014-.135.014-.19V18.387c0-.816-.473-1.326-1.285-1.392-.386-.031-.638-.308-.619-.68.018-.34.301-.589.67-.589 1.197 0 2.262.905 2.464 2.091.008.045.027.088.04.13v12.544z" fill="#3A464C"/>
    <path d="M13.367 24.515V13.305c0-.679.344-1.173.936-1.332.145-.04.3-.056.45-.056 3.731-.003 7.462-.003 11.193-.002.862 0 1.393.536 1.393 1.403v7.362c0 .864-.534 1.397-1.4 1.397-3.076 0-6.151.002-9.228-.004-.282 0-.509.084-.721.264-.819.691-1.644 1.375-2.467 2.06-.04.033-.082.062-.157.117zm6.966-8.79h3.77c.409 0 .69-.255.695-.623.004-.38-.278-.645-.694-.645h-7.501a.879.879 0 0 0-.235.025.632.632 0 0 0 .175 1.242c1.263.003 2.526.001 3.79.001zm-1.25 2.54h2.48c.409 0 .69-.255.694-.624.004-.38-.278-.643-.695-.643h-4.96c-.408 0-.69.256-.694.624-.004.38.278.644.695.644h2.48z" fill="#3A464C"/>
    <path d="M21.048 42.097C9.448 42.097 0 32.659 0 21.048 0 9.438 9.447 0 21.048 0 32.65 0 42.097 9.438 42.097 21.048c0 11.611-9.438 21.049-21.049 21.049zm0-40.53c-10.74 0-19.482 8.742-19.482 19.481 0 10.74 8.743 19.482 19.482 19.482 10.74 0 19.482-8.742 19.482-19.482 0-10.74-8.742-19.482-19.482-19.482z" fill="#3A464C"/>
</svg>
