<svg width="105" height="65" viewBox="0 0 105 65" fill="none" xmlns="http://www.w3.org/2000/svg">
<path fill-rule="evenodd" clip-rule="evenodd" d="M35.0206 7.91753C34.7777 8.58834 34.381 9.18983 33.8637 9.67158C33.3464 10.1533 32.7237 10.5013 32.0477 10.6863C32.1296 11.3931 32.0424 12.1097 31.7935 12.7744C31.5446 13.4392 31.1415 14.0322 30.6188 14.5025C29.9319 14.6194 29.2276 14.5662 28.565 14.3474C27.9024 14.1286 27.3008 13.7506 26.8107 13.245C26.2479 13.6613 25.596 13.9339 24.9092 14.0403C24.2224 14.1467 23.5207 14.0836 22.8626 13.8565C22.4193 13.3056 22.1096 12.6553 21.959 11.9588C21.8083 11.2623 21.8209 10.5393 21.9958 9.84872C21.3643 9.55266 20.8102 9.10824 20.3787 8.5517C19.9472 7.99516 19.6504 7.34225 19.5127 6.64622C19.7542 5.97736 20.1486 5.37714 20.663 4.89555C21.1773 4.41396 21.7968 4.06491 22.4698 3.87749C22.4013 3.16773 22.4986 2.45149 22.7536 1.78765C23.0087 1.12381 23.4143 0.531339 23.9371 0.0589524C24.6199 -0.055938 25.3197 -0.00238969 25.9782 0.215136C26.6367 0.432662 27.2348 0.807867 27.7226 1.3095C28.2855 0.893431 28.9374 0.620863 29.6242 0.514508C30.3109 0.408152 31.0126 0.471089 31.6707 0.698069C32.1137 1.25043 32.4219 1.90249 32.5698 2.60051C32.7178 3.29853 32.7013 4.0225 32.5217 4.71273C33.1547 5.00685 33.7107 5.44959 34.1445 6.00489C34.5783 6.56019 34.8778 7.21236 35.0184 7.9083L35.0206 7.91753ZM32.1741 2.65464C31.0168 2.84325 29.9656 3.45387 29.2147 4.37355C29.7803 3.32386 29.9604 2.10222 29.7227 0.928793C29.8228 1.52426 29.7954 2.13486 29.6422 2.71844C29.489 3.30202 29.2138 3.84467 28.8355 4.30895C28.4337 4.08025 27.9886 3.94252 27.5302 3.9051C27.0717 3.86768 26.6108 3.93144 26.1786 4.09207C25.8752 3.5697 25.686 2.98638 25.624 2.38219C25.5621 1.778 25.6288 1.16725 25.8197 0.591931C25.398 1.70344 25.3876 2.93403 25.7904 4.05284C25.1812 3.03306 24.2408 2.26456 23.1335 1.8817C23.6878 2.09751 24.1903 2.4325 24.607 2.864C25.0237 3.29549 25.3449 3.81343 25.5488 4.38278C25.1565 4.63057 24.8197 4.95996 24.5601 5.34953C24.2974 5.74017 24.1175 6.18263 24.0319 6.64853C23.438 6.65623 22.8496 6.53188 22.3074 6.28407C21.7653 6.03627 21.2823 5.67094 20.8919 5.2134C21.6259 6.1422 22.6616 6.77096 23.8107 6.98539C22.6429 7.01385 21.5229 7.4652 20.6504 8.25901C21.1109 7.87409 21.6468 7.59443 22.2218 7.43882C22.7969 7.28321 23.3979 7.25527 23.9845 7.35686C23.9941 7.8296 24.101 8.29497 24.2982 8.72271C24.4953 9.15044 24.7784 9.53096 25.129 9.83949C24.8422 10.3729 24.4443 10.8354 23.9633 11.1943C23.4824 11.5531 22.9301 11.7995 22.3457 11.916C23.4984 11.737 24.5475 11.134 25.296 10.2202C24.7371 11.269 24.5626 12.4872 24.8039 13.6557C24.7061 13.0551 24.7362 12.44 24.892 11.8523C25.0478 11.2646 25.3257 10.7182 25.7068 10.2502C26.1112 10.4757 26.5571 10.6126 27.016 10.6523C27.475 10.6921 27.9371 10.6337 28.3728 10.4809C28.6782 11.0029 28.8683 11.5869 28.9299 12.1918C28.9915 12.7968 28.9231 13.4082 28.7294 13.9834C29.1516 12.8681 29.1677 11.6349 28.7746 10.5086C29.3726 11.5329 30.3157 12.2992 31.4269 12.6636C30.8692 12.4531 30.363 12.1213 29.9432 11.691C29.5234 11.2608 29.2001 10.7424 28.9958 10.1717C29.3932 9.92536 29.7373 9.59877 30.0071 9.21191C30.2634 8.81795 30.435 8.37282 30.5105 7.90599C31.1022 7.903 31.6876 8.03048 32.2267 8.27974C32.7659 8.529 33.2461 8.89417 33.6346 9.35035C32.9091 8.42353 31.8792 7.7972 30.7362 7.58759C31.9011 7.55799 33.0169 7.10195 33.8807 6.30244C33.4276 6.69126 32.8969 6.97427 32.3257 7.13169C31.7545 7.28911 31.1566 7.31713 30.5737 7.21381C30.5597 6.73862 30.4486 6.27167 30.2476 5.84294C30.0466 5.4142 29.7602 5.03316 29.4066 4.72426C29.6991 4.19759 30.0987 3.74116 30.5785 3.38573C31.0582 3.0303 31.607 2.78415 32.1877 2.66387L32.1741 2.65464ZM30.5398 7.5576H30.6391C30.6062 7.56242 30.5727 7.56242 30.5398 7.5576ZM29.0906 8.57279C29.0868 8.80636 29.0192 9.0342 28.8956 9.23067C28.772 9.42714 28.5972 9.58445 28.3908 9.6849C28.1821 9.78422 27.9508 9.82318 27.722 9.79755C27.4931 9.77193 27.2755 9.68269 27.0928 9.53955C26.8955 9.65675 26.6688 9.71222 26.4409 9.6991C26.213 9.68597 25.9939 9.60483 25.8107 9.46571C25.6181 9.33707 25.4653 9.15507 25.3702 8.94098C25.2751 8.7269 25.2415 8.48956 25.2734 8.2567C25.0781 8.13199 24.9202 7.95468 24.8171 7.74424C24.714 7.53381 24.6696 7.29838 24.6888 7.06384C24.7014 6.82975 24.7802 6.60443 24.9156 6.41522C25.0511 6.22601 25.2373 6.08103 25.4518 5.99788C25.4575 5.76397 25.5264 5.53624 25.6509 5.33986C25.7754 5.14349 25.9505 4.9861 26.157 4.88511C26.3635 4.78411 26.5933 4.74344 26.821 4.76758C27.0487 4.79172 27.2654 4.87973 27.4472 5.0219C27.6503 4.90896 27.8802 4.85665 28.111 4.87093C28.3417 4.88521 28.5638 4.9655 28.752 5.10265C28.9376 5.23314 29.084 5.41381 29.1749 5.62446C29.2658 5.83512 29.2975 6.06746 29.2667 6.29552C29.4649 6.41704 29.6252 6.59377 29.7287 6.80503C29.8323 7.01628 29.8748 7.25332 29.8513 7.48838C29.8403 7.72487 29.7627 7.95306 29.6277 8.14547C29.4927 8.33788 29.3062 8.48628 29.0906 8.57279ZM27.4901 6.95771C27.428 6.91489 27.3704 6.86538 27.3186 6.81004C27.2515 6.85645 27.1796 6.89514 27.1041 6.9254C27.0328 6.96708 26.9571 7.00036 26.8784 7.02461C26.8931 7.10079 26.8931 7.17916 26.8784 7.25534C26.8777 7.33367 26.8656 7.41144 26.8423 7.48607C26.9145 7.51758 26.9846 7.5538 27.0522 7.59451C27.1154 7.64066 27.1696 7.71218 27.2305 7.75833C27.2904 7.71007 27.3556 7.66904 27.4247 7.63605C27.4965 7.59938 27.5722 7.5715 27.6504 7.55298V7.32225C27.6576 7.24463 27.6697 7.16757 27.6865 7.09153C27.6211 7.04308 27.5421 7.00616 27.4811 6.95771H27.4901ZM29.1244 4.50738C29.147 4.47508 29.1538 4.452 29.1854 4.43585C29.1538 4.452 29.1538 4.49123 29.1335 4.52353L29.1244 4.50738ZM25.4089 10.0702C25.3876 10.0968 25.3701 10.1263 25.357 10.1579C25.357 10.1348 25.3863 10.1025 25.3931 10.0795L25.4089 10.0702ZM28.7001 10.3471C28.6971 10.3778 28.706 10.4084 28.7249 10.4325L28.6752 10.3379L28.6865 10.3419L28.6978 10.3379L28.7001 10.3471ZM23.98 7.02692C23.9476 7.02271 23.9163 7.01254 23.8874 6.99693C23.9211 7.00148 23.9553 7.00148 23.989 6.99693C23.98 7.01308 23.98 7.01308 23.98 7.02692Z" fill="#BA3E3E"/>
<path fill-rule="evenodd" clip-rule="evenodd" d="M34.2935 32.3654C33.7553 33.8471 32.8777 35.1755 31.734 36.2393C30.5903 37.3031 29.214 38.0713 27.7201 38.4797C27.9013 40.0429 27.7084 41.6277 27.1579 43.0979C26.6074 44.5681 25.7159 45.8796 24.5599 46.9197C23.0404 47.178 21.4826 47.0599 20.0171 46.5753C18.5516 46.0907 17.2212 45.2538 16.1377 44.1348C14.8935 45.056 13.4519 45.6597 11.933 45.8957C10.4142 46.1317 8.86214 45.9931 7.40633 45.4915C6.42576 44.2734 5.7408 42.8357 5.40735 41.2955C5.0739 39.7554 5.10139 38.1565 5.48759 36.6293C4.09162 35.974 2.86689 34.9908 1.91325 33.7598C0.959616 32.5289 0.304054 31.085 0 29.5459C0.537987 28.0706 1.41255 26.7477 2.55109 25.6871C3.68962 24.6265 5.05926 23.8588 6.54629 23.4478C6.39534 21.879 6.61065 20.296 7.17455 18.8288C7.73845 17.3616 8.63483 16.0521 9.79008 15.0078C11.2995 14.7553 12.846 14.8749 14.301 15.3565C15.7561 15.838 17.0777 16.6677 18.1558 17.7765C19.4004 16.8553 20.8424 16.2516 22.3616 16.0156C23.8809 15.7796 25.4333 15.9182 26.8894 16.4198C27.8691 17.6418 28.5506 19.0843 28.8775 20.6284C29.2045 22.1725 29.1675 23.7739 28.7698 25.3005C30.1731 25.949 31.4065 26.9274 32.3693 28.1561C33.332 29.3847 33.9968 30.8287 34.3093 32.37L34.2935 32.3654ZM27.9955 20.7229C25.4351 21.1402 23.1094 22.4919 21.4492 24.5276C22.7004 22.2079 23.1006 19.508 22.5779 16.9136C22.802 18.2327 22.7426 19.5858 22.4039 20.8791C22.0651 22.1723 21.4552 23.3748 20.6163 24.403C19.7285 23.8986 18.745 23.595 17.7325 23.5126C16.72 23.4302 15.7019 23.571 14.7472 23.9254C14.0761 22.7701 13.6577 21.48 13.521 20.1437C13.3842 18.8074 13.5322 17.4567 13.9549 16.1845C13.0196 18.6468 12.9971 21.3735 13.8917 23.8516C12.5465 21.5973 10.4691 19.8979 8.02258 19.0501C9.2494 19.5279 10.3614 20.2696 11.2833 21.225C12.2052 22.1804 12.9153 23.3271 13.3657 24.5876C12.4986 25.135 11.7541 25.863 11.1806 26.7241C10.5997 27.5879 10.2021 28.5664 10.0136 29.5967C8.69576 29.6148 7.38995 29.3389 6.1872 28.7882C4.98445 28.2375 3.91371 27.4252 3.04967 26.408C4.67451 28.4648 6.96795 29.8567 9.51243 30.3304C6.92719 30.3893 4.44675 31.3863 2.51468 33.143C3.53377 32.2926 4.71921 31.6751 5.99126 31.332C7.26332 30.989 8.5925 30.9283 9.8894 31.1541C9.91039 32.1991 10.1463 33.228 10.5819 34.1737C11.0175 35.1193 11.643 35.9607 12.4176 36.6431C11.7815 37.8193 10.9005 38.8385 9.83684 39.6287C8.77319 40.4189 7.55282 40.9608 6.26186 41.2161C8.81158 40.8196 11.1321 39.4856 12.7878 37.4645C11.5507 39.7836 11.164 42.4778 11.6975 45.0624C11.4768 43.7334 11.5392 42.3714 11.8804 41.0693C12.2217 39.7672 12.8338 38.5558 13.675 37.5176C14.5692 38.0163 15.5553 38.3194 16.5703 38.4076C17.5854 38.4958 18.6073 38.3671 19.5711 38.0298C20.2474 39.1834 20.6684 40.4745 20.8045 41.8122C20.9406 43.1498 20.7885 44.5018 20.3589 45.773C21.2978 43.3055 21.337 40.5752 20.4696 38.0805C21.7924 40.3483 23.8792 42.0448 26.3386 42.852C25.1052 42.3869 23.9854 41.6533 23.057 40.7019C22.1285 39.7505 21.4136 38.6041 20.9617 37.3422C21.8399 36.7971 22.6002 36.0748 23.1964 35.2195C23.7643 34.3483 24.1444 33.3636 24.3116 32.3308C25.6162 32.3271 26.9064 32.6101 28.0947 33.1606C29.283 33.7112 30.3415 34.5164 31.1987 35.5218C29.5926 33.4728 27.3155 32.087 24.7879 31.6202C27.3614 31.5546 29.8269 30.5495 31.7382 28.7868C30.7352 29.6482 29.56 30.2749 28.295 30.6228C27.03 30.9708 25.7058 31.0316 24.4154 30.8011C24.3845 29.7503 24.1391 28.7178 23.6947 27.7697C23.2504 26.8216 22.617 25.979 21.8353 25.2959C22.4806 24.1295 23.3633 23.1181 24.4236 22.33C25.484 21.5419 26.6974 20.9954 27.982 20.7275L27.9955 20.7229ZM24.3838 31.5671C24.4696 31.5671 24.5192 31.5832 24.6095 31.5809C24.534 31.5876 24.458 31.583 24.3838 31.5671ZM21.1806 33.8098C21.1704 34.3269 21.0195 34.831 20.7448 35.2654C20.4701 35.6998 20.0825 36.0474 19.6253 36.2693C19.1638 36.4891 18.6523 36.5755 18.1462 36.5194C17.6401 36.4633 17.1586 36.2667 16.754 35.9509C16.3165 36.208 15.8152 36.3293 15.3114 36.3003C14.8076 36.2712 14.3229 36.0929 13.9165 35.7871C13.49 35.5026 13.1518 35.0997 12.9415 34.6256C12.7312 34.1516 12.6575 33.626 12.7291 33.1107C12.3004 32.8354 11.9536 32.4454 11.7263 31.9829C11.4991 31.5204 11.4002 31.0032 11.4402 30.4873C11.4681 29.9697 11.6423 29.4715 11.9416 29.053C12.2409 28.6345 12.6524 28.3136 13.1264 28.1293C13.1377 27.6127 13.2882 27.1094 13.5615 26.6748C13.8348 26.2401 14.2202 25.8911 14.6752 25.666C15.1302 25.441 15.6371 25.3488 16.1402 25.3995C16.6432 25.4502 17.1228 25.6419 17.526 25.9535C17.9752 25.7035 18.4843 25.5877 18.9949 25.6196C19.5054 25.6514 19.9969 25.8295 20.4131 26.1335C20.8252 26.4247 21.1493 26.828 21.3488 27.2977C21.5483 27.7675 21.6151 28.2849 21.5418 28.7914C21.9771 29.0595 22.329 29.4483 22.5568 29.9127C22.7845 30.3771 22.8788 30.8979 22.8285 31.4148C22.8057 31.9346 22.6372 32.4367 22.343 32.8613C22.0488 33.286 21.6414 33.6152 21.1693 33.8098H21.1806ZM17.6389 30.2312C17.4983 30.1374 17.3681 30.0284 17.2506 29.9059C17.1022 30.008 16.9432 30.0932 16.7766 30.1597C16.6209 30.2505 16.4559 30.3232 16.2844 30.3765C16.3191 30.5501 16.3191 30.729 16.2844 30.9026C16.2856 31.081 16.2597 31.2584 16.2077 31.4287C16.3681 31.4954 16.5241 31.5725 16.675 31.6594C16.8104 31.7632 16.9346 31.9178 17.0632 32.0216C17.1936 31.9157 17.3352 31.8252 17.4854 31.7517C17.6471 31.6707 17.8175 31.6096 17.9933 31.5694V31.0457C18.0077 30.8688 18.0333 30.6931 18.07 30.5196C17.9481 30.4158 17.7743 30.3327 17.6366 30.2289L17.6389 30.2312ZM21.2506 24.8114C21.3003 24.7399 21.3161 24.6891 21.3838 24.6522C21.3161 24.6891 21.3161 24.7745 21.2664 24.8506L21.2506 24.8114ZM13.0361 37.1023C12.9877 37.1622 12.9482 37.229 12.9188 37.3007C12.9346 37.2476 12.9842 37.1761 13 37.123L13.0361 37.1023ZM20.3161 37.7137C20.298 37.7644 20.3364 37.836 20.3702 37.9121L20.2641 37.7137C20.2677 37.7181 20.2722 37.7216 20.2773 37.724C20.2824 37.7264 20.2879 37.7276 20.2935 37.7276C20.2991 37.7276 20.3046 37.7264 20.3097 37.724C20.3147 37.7216 20.3192 37.7181 20.3228 37.7137H20.3161ZM9.89166 30.3973C9.81978 30.388 9.75017 30.3653 9.68625 30.3304C9.76057 30.3451 9.83646 30.3498 9.91198 30.3442C9.88489 30.3627 9.88489 30.3627 9.91198 30.3973H9.89166Z" fill="#BA3E3E"/>
<path d="M96.2716 64.0539C96.6237 63.9473 96.9483 63.7621 97.222 63.5117C97.6092 63.1724 97.9176 62.7491 98.1249 62.2727C98.1702 62.1909 98.1994 62.1007 98.2107 62.0074C98.2025 61.909 98.1732 61.8137 98.1249 61.7282L95.933 56.08H97.1159L98.4093 59.6909C98.5583 60.0877 98.705 60.5769 98.7976 60.9414H98.8224C98.933 60.5746 99.0481 60.1085 99.2107 59.6655L100.394 56.0869H101.549L99.915 60.45C99.5392 61.8746 98.8436 63.1899 97.8834 64.2916C97.5043 64.6364 97.0474 64.8798 96.5538 64.9999L96.2716 64.0539ZM85.0865 62.335C84.6914 62.3383 84.2999 62.2574 83.937 62.0975C83.5741 61.9377 83.2478 61.7024 82.9788 61.4065C82.7097 61.1107 82.5039 60.7609 82.3744 60.3793C82.2449 59.9977 82.1945 59.5928 82.2264 59.1902C82.1903 58.7738 82.2402 58.3542 82.373 57.9588C82.5057 57.5633 82.7182 57.2008 82.9968 56.8947C83.2755 56.5886 83.6139 56.3458 83.9902 56.182C84.3665 56.0182 84.7723 55.9371 85.1813 55.9439C85.5759 55.9364 85.9677 56.0136 86.3314 56.1704C86.695 56.3272 87.0225 56.5602 87.2926 56.8544C87.5627 57.1485 87.7695 57.4973 87.8997 57.8781C88.0298 58.259 88.0804 58.6635 88.0481 59.0656C88.0863 59.4831 88.0378 59.9042 87.906 60.3013C87.7742 60.6985 87.562 61.0627 87.2832 61.3703C87.0044 61.678 86.6652 61.9221 86.2879 62.0867C85.9105 62.2513 85.5035 62.3328 85.0933 62.3258L85.0865 62.335ZM83.3258 59.1533C83.3258 60.4938 84.0639 61.5044 85.1113 61.5044H85.1316C86.1655 61.5044 86.9375 60.51 86.9375 59.1187C86.9375 58.0827 86.4319 56.7791 85.152 56.7791C83.8721 56.7791 83.3213 57.9858 83.3213 59.1487L83.3258 59.1533ZM61.3415 61.8666C61.0164 61.3973 60.8681 60.8238 60.9239 60.2515V56.9268H59.9984V56.0823H60.9172V54.9564L61.9781 54.6149V56.08H63.5357V56.9268H61.9781V60.2192C61.9781 60.976 62.188 61.4121 62.7907 61.4121C63.0025 61.4203 63.2143 61.3947 63.4183 61.336L63.468 62.1827C63.1554 62.291 62.8273 62.3448 62.4973 62.3419C62.2829 62.3493 62.0694 62.3108 61.8704 62.2289C61.6713 62.1471 61.4912 62.0237 61.3415 61.8666ZM54.0526 60.5792C54.0526 59.1002 55.3325 58.2927 57.635 58.3042V58.1796C57.6602 57.9903 57.6428 57.7977 57.5842 57.6163C57.5255 57.4349 57.4271 57.2696 57.2965 57.133C57.1659 56.9963 57.0065 56.892 56.8304 56.8279C56.6544 56.7637 56.4663 56.7415 56.2806 56.7629C55.7295 56.7607 55.1895 56.9209 54.7253 57.2244L54.4792 56.4792C55.0776 56.1246 55.7583 55.9413 56.4499 55.9485C58.2851 55.9485 58.7275 57.2244 58.7275 58.4496V60.7361C58.7221 61.2259 58.7507 61.7155 58.8133 62.2012H57.8336L57.7343 61.4236H57.6982C57.4881 61.7141 57.2126 61.9485 56.8952 62.1071C56.5777 62.2658 56.2275 62.3439 55.8743 62.335C55.6394 62.3523 55.4035 62.3195 55.1817 62.2388C54.9598 62.1581 54.7567 62.0313 54.5853 61.8662C54.4139 61.7012 54.2778 61.5016 54.1857 61.2801C54.0936 61.0585 54.0498 60.8199 54.0526 60.5792ZM55.1361 60.45C55.123 60.5901 55.1399 60.7314 55.1856 60.8642C55.2313 60.997 55.3046 61.1181 55.4006 61.219C55.4966 61.32 55.6129 61.3984 55.7414 61.4489C55.87 61.4993 56.0077 61.5206 56.1451 61.5113C56.4647 61.5216 56.7791 61.4276 57.0429 61.243C57.3067 61.0584 57.5062 60.7928 57.6124 60.4846C57.647 60.3703 57.6637 60.2512 57.6621 60.1316V59.0656H57.486C56.3506 59.0656 55.1361 59.3217 55.1361 60.45ZM93.6892 62.1943V58.6711C93.6892 57.6766 93.3303 56.8506 92.31 56.8506C91.9811 56.8587 91.6632 56.9732 91.402 57.1776C91.1408 57.382 90.9497 57.6657 90.8563 57.9881C90.8049 58.1553 90.7798 58.3297 90.7818 58.5049V62.1966H89.6982V57.7366C89.6982 57.0929 89.687 56.583 89.6486 56.0823H90.6102L90.6734 57.0767H90.6982C90.8955 56.7228 91.1829 56.4302 91.5299 56.2299C91.8769 56.0296 92.2705 55.9292 92.6689 55.9393C93.4928 55.9393 94.775 56.4445 94.775 58.5419V62.1966L93.6892 62.1943ZM79.5763 62.1943V58.7334C79.5763 57.5405 79.1452 56.8506 78.2829 56.8506C77.994 56.8626 77.7156 56.9642 77.4845 57.1418C77.2535 57.3194 77.0808 57.5647 76.9894 57.8451C76.935 58.0253 76.9061 58.2125 76.9036 58.4011V62.1966H75.8449V58.5326C75.8449 57.5382 75.4273 56.8529 74.6012 56.8529C74.2922 56.8736 73.9972 56.9916 73.7566 57.1908C73.5161 57.3899 73.3419 57.6604 73.258 57.965C73.1978 58.139 73.1687 58.3227 73.1723 58.5072V62.1989H72.1136V57.7366C72.1136 57.0929 72.0887 56.583 72.0639 56.0823H73.0142L73.0639 57.0767H73.1068C73.2863 56.7275 73.5582 56.4368 73.8914 56.2377C74.2246 56.0386 74.6059 55.9392 74.9917 55.9508C75.362 55.9482 75.7235 56.0656 76.0244 56.2861C76.3254 56.5066 76.5502 56.819 76.6666 57.1783H76.6914C76.8569 56.8651 77.0882 56.5932 77.3687 56.3822C77.7403 56.086 78.2025 55.934 78.6734 55.9531C79.4748 55.9531 80.6441 56.4838 80.6441 58.6088V62.1966L79.5763 62.1943ZM69.4747 62.1943V56.0823H70.5583V62.1966L69.4747 62.1943ZM65.0774 62.1943L65.0887 57.9858C65.0887 57.2659 65.0774 56.6453 65.0391 56.0777H65.9871L66.0368 57.2706H66.0639C66.1677 56.8965 66.3845 56.5655 66.6832 56.3247C66.982 56.084 67.3475 55.9459 67.7276 55.93C67.8273 55.9289 67.9267 55.9413 68.0233 55.9669V57.0029C67.8944 56.9871 67.7648 56.9787 67.635 56.9775C67.2657 56.9929 66.9144 57.1451 66.6469 57.4058C66.3794 57.6665 66.2139 58.0179 66.1813 58.3942C66.1561 58.5699 66.1441 58.7473 66.1452 58.9249V62.1874L65.0774 62.1943ZM52.0842 62.1943L51.8878 58.4565C51.8291 57.2613 51.7546 55.8354 51.7546 54.7787H51.723C51.4273 55.7731 51.0955 56.8391 50.6756 58.0089L49.2083 62.1412H48.3957L47.0413 58.085C46.6463 56.876 46.328 55.7893 46.0932 54.7787H46.0684C46.0435 55.8354 45.9803 57.2567 45.9081 58.5442L45.6824 62.1943H44.6643L45.249 53.6781H46.6034L48.0187 57.7989C48.3641 58.8464 48.635 59.7878 48.8562 60.6692H48.881C49.1068 59.8109 49.3979 58.8787 49.7682 57.7989L51.2535 53.6781H52.6079L53.1248 62.1943H52.0842ZM69.9849 54.9564C69.8936 54.9564 69.8033 54.9376 69.7193 54.9011C69.6353 54.8646 69.5595 54.8112 69.4962 54.7439C69.4329 54.6767 69.3836 54.5971 69.3512 54.5099C69.3189 54.4227 69.304 54.3297 69.3077 54.2365C69.3055 54.1419 69.3222 54.0478 69.357 53.96C69.3917 53.8723 69.4437 53.7928 69.5097 53.7264C69.5757 53.66 69.6544 53.6082 69.7407 53.5741C69.8271 53.54 69.9194 53.5243 70.012 53.5281C70.1034 53.5263 70.1942 53.5433 70.279 53.5783C70.3638 53.6132 70.4408 53.6654 70.5053 53.7315C70.5699 53.7977 70.6207 53.8766 70.6546 53.9634C70.6885 54.0502 70.7049 54.1431 70.7027 54.2365C70.7065 54.3319 70.691 54.427 70.6571 54.516C70.6232 54.6049 70.5716 54.6857 70.5057 54.7533C70.4398 54.8209 70.3609 54.8739 70.274 54.9088C70.1871 54.9437 70.094 54.9599 70.0007 54.9564H69.9849Z" fill="#BA3E3E"/>
<path d="M81.5692 46.9152C81.2554 46.5457 81.0858 46.0709 81.0929 45.5816C81.3583 43.7215 82.2722 42.0221 83.6663 40.7963L88.9191 35.1919L88.813 35.1158L80.5218 42.0145L80.3412 41.8299L87.3977 35.9025L90.3999 33.4776H88.0975L88.2013 33.2123H90.7905L95.1562 28.5331L97.3593 28.48L93.1855 33.2146H96.8808L96.804 33.4799H92.8762L84.0072 43.1866C82.9447 44.3464 82.3059 45.0755 82.0907 45.3739C81.8986 45.6133 81.7863 45.9092 81.7701 46.2184C81.7698 46.3482 81.7984 46.4764 81.854 46.5932C81.9096 46.71 81.9905 46.8122 82.0907 46.8921C82.2761 47.0655 82.5166 47.1647 82.7679 47.1713C84.1765 47.1713 86.8725 45.3916 90.8559 41.8322L91.0365 42.0168C86.8981 45.6669 84.1253 47.492 82.7182 47.492C82.497 47.4913 82.2788 47.4392 82.0802 47.3396C81.8815 47.2401 81.7076 47.0958 81.5715 46.9175L81.5692 46.9152ZM60.0049 46.9682C59.8503 46.8053 59.7286 46.6129 59.6469 46.4018C59.5651 46.1908 59.5249 45.9654 59.5286 45.7385C59.9337 43.5902 60.9672 41.6183 62.4924 40.0833C63.6249 38.5333 64.9017 37.0991 66.3051 35.801L66.2803 35.6418C65.2891 36.1958 64.3731 36.8799 63.5556 37.6768L58.4495 42.0122L58.269 41.8276C62.0462 38.5128 64.2577 36.6186 64.9033 36.1448C65.3809 35.7742 65.8892 35.4468 66.4225 35.1665C66.7711 35.0048 67.089 34.7814 67.3615 34.5066C70.281 31.2995 73.0801 28.4454 75.7588 25.9443C77.9343 23.867 80.2264 21.921 82.6234 20.1162C83.971 18.9581 85.6249 18.2353 87.3751 18.0396C87.8041 18.0285 88.2213 18.1844 88.5421 18.4757C88.6855 18.5913 88.8024 18.7375 88.8847 18.9041C88.967 19.0707 89.0126 19.2536 89.0184 19.4401C89.0184 20.4615 87.9191 21.9812 85.7205 23.9993C83.1853 26.2662 80.4497 28.2876 77.5489 30.0375C75.2148 31.5987 72.7064 32.869 70.0771 33.8214C69.6873 34.2967 68.9575 35.1242 67.8875 36.304L65.8378 38.6297L63.2374 41.8022C62.0623 43.0362 61.0883 44.4547 60.3525 46.0038V46.2345C60.3525 46.816 60.67 47.1067 61.3051 47.1067C62.7829 47.1067 65.4533 45.3447 69.3164 41.8207L69.497 42.0053L67.9168 43.3897C64.7912 46.1199 62.5218 47.4851 61.1087 47.4851C60.8978 47.4846 60.6894 47.4385 60.4973 47.3498C60.3051 47.2611 60.1334 47.1319 59.9936 46.9705L60.0049 46.9682ZM83.5444 19.8808C81.1101 21.788 78.8509 23.9179 76.795 26.2443C73.7641 29.4745 71.6475 31.8702 70.4451 33.4315C72.882 32.4316 75.2244 31.2059 77.4428 29.7698C80.3317 28.0833 83.0383 26.0895 85.5173 23.8217C87.6106 21.8359 88.6573 20.3815 88.6573 19.4586C88.6531 19.3109 88.616 19.1661 88.5487 19.0354C88.4814 18.9046 88.3857 18.7913 88.269 18.7041C87.9938 18.4787 87.6486 18.3616 87.2961 18.3742C85.9289 18.5 84.6262 19.0263 83.5444 19.8901V19.8808ZM91.2826 45.1063C91.2826 43.1174 92.6091 41.2408 95.2623 39.4765C97.0726 38.0489 99.2208 37.1374 101.488 36.8347C101.743 36.8262 101.993 36.9077 102.197 37.0654C102.288 37.1312 102.362 37.2183 102.414 37.3195C102.465 37.4206 102.492 37.5329 102.493 37.6468C102.493 38.5098 101.657 39.4173 99.9869 40.3694C98.2714 41.3362 96.3827 41.9389 94.4338 42.1414C92.6776 43.9396 91.7995 45.1701 91.7995 45.8331C91.8076 46.0066 91.8533 46.1761 91.9333 46.3293C92.0134 46.4825 92.1257 46.6157 92.2622 46.7191C92.5604 46.9882 92.9458 47.1345 93.3435 47.1297C94.6765 47.0024 95.9696 46.5964 97.1426 45.9369C99.2252 44.824 101.16 43.443 102.899 41.8276L103.079 42.0122C101.391 43.6182 99.497 44.9827 97.4496 46.0684C96.1973 46.7758 94.8124 47.2036 93.3864 47.3236C93.0942 47.362 92.7973 47.3301 92.5193 47.2305C92.2413 47.1309 91.9899 46.9663 91.7851 46.7498C91.5803 46.5334 91.4279 46.271 91.3398 45.9837C91.2518 45.6963 91.2306 45.3919 91.278 45.0947L91.2826 45.1063ZM100.086 37.5246C99.2179 38.0333 98.3926 38.6152 97.6189 39.2642C96.6155 40.0501 95.6832 40.9265 94.8334 41.883C95.7731 41.7836 96.6947 41.5506 97.5715 41.1908C98.7554 40.7962 99.8613 40.19 100.838 39.4004C101.706 38.6744 102.14 38.0722 102.14 37.5938C102.14 37.2569 101.951 37.0885 101.572 37.0885C101.05 37.1112 100.541 37.2621 100.086 37.5246ZM34.2463 45.2262C33.0463 43.9407 32.3776 42.2316 32.3795 40.4548C32.4409 38.7737 32.8558 37.1259 33.5958 35.6234C34.3359 34.1208 35.3839 32.7988 36.6685 31.7471C39.5157 29.0769 44.2998 27.1341 51.0206 25.919C50.4929 25.3646 50.094 24.6959 49.8536 23.9624C47.5868 24.4959 45.2736 24.7973 42.9484 24.8622C40.6384 25.0138 38.3485 24.341 36.4698 22.9587C35.797 22.4707 35.2433 21.8307 34.8517 21.0884C34.4602 20.3461 34.2415 19.5215 34.2125 18.6787C34.2125 15.5255 35.9898 12.9444 39.5443 10.9355C43.3073 8.87566 47.5248 7.83808 51.7927 7.92222V8.1068C47.4754 7.92417 43.2112 9.13326 39.603 11.5631C36.4262 13.8704 34.8378 16.3768 34.8378 19.0825C34.8698 19.8516 35.0822 20.6016 35.457 21.2693C35.8317 21.937 36.3579 22.503 36.9913 22.9195C38.862 24.1709 41.0813 24.7639 43.3118 24.6084C45.5249 24.55 47.7261 24.2585 49.8807 23.7386C49.6992 23.1759 49.6004 22.5889 49.5872 21.9966C49.6756 19.8956 50.5149 17.9007 51.9461 16.3899C53.981 14.1834 56.4179 12.4043 59.12 11.1524C61.5725 9.74698 64.2993 8.91485 67.1042 8.71592C67.9963 8.67723 68.8786 8.91879 69.6324 9.4081C69.9456 9.62105 70.1998 9.91304 70.3702 10.2558C70.5407 10.5986 70.6216 10.9805 70.6053 11.3647C70.6053 13.2505 68.7995 15.4378 65.1877 17.9266C60.7098 20.7683 55.7679 22.7628 50.5985 23.8147C50.5753 24.1928 50.6273 24.5718 50.7515 24.9287C50.8756 25.2856 51.0693 25.6131 51.3209 25.8913L51.962 25.8659C52.9711 25.8164 53.9801 25.9644 54.9349 26.302C55.6 26.5927 55.9326 26.9242 55.9326 27.2964C55.9286 27.4157 55.8946 27.532 55.8336 27.6339C55.7727 27.7358 55.6871 27.8198 55.585 27.8778C55.36 28.0316 55.0948 28.112 54.8243 28.1086C54.116 28.0722 53.4241 27.8782 52.7968 27.5403C52.1695 27.2024 51.6219 26.7286 51.1922 26.152C46.3202 26.7296 41.8283 29.1255 38.5782 32.88C35.305 36.6563 33.6685 39.8864 33.6685 42.5706C33.6786 43.1971 33.8329 43.8124 34.1187 44.3668C34.4046 44.9211 34.8141 45.3989 35.3141 45.7615C36.6383 46.7309 38.2479 47.2065 39.8739 47.109C43.8198 47.0222 47.6659 45.8247 50.989 43.6481C54.7407 41.3408 56.6166 38.822 56.6166 36.0917C56.6264 35.6714 56.5488 35.2537 56.3889 34.8662C56.2289 34.4788 55.9903 34.1305 55.6888 33.8445C54.9948 33.216 54.0864 32.8927 53.1606 32.9446C49.9906 33.1203 46.9339 34.209 44.3434 36.0848C41.3503 37.9521 38.7747 40.4416 36.7836 43.392L36.603 43.2858C38.621 40.3441 41.2001 37.85 44.1854 35.9533C46.7848 34.0457 49.8656 32.9413 53.0613 32.7716C54.1122 32.7104 55.1442 33.0761 55.9326 33.7891C56.2592 34.0863 56.5209 34.4505 56.7006 34.858C56.8803 35.2655 56.9739 35.7071 56.9755 36.154C56.9755 38.9551 55.0395 41.5192 51.1674 43.8465C47.8187 46.0125 43.9615 47.2175 40.0003 47.3351C38.9502 47.4223 37.8939 47.2796 36.902 46.9163C35.9102 46.553 35.0056 45.9776 34.2486 45.2286L34.2463 45.2262ZM51.4924 26.1382C51.8981 26.6565 52.4056 27.082 52.9823 27.3872C53.5589 27.6925 54.1918 27.8706 54.8401 27.9101C55.3893 27.9101 55.664 27.7163 55.664 27.3287C55.664 26.9411 55.2878 26.6335 54.5353 26.4058C53.8434 26.1995 53.1273 26.0901 52.4066 26.0805C52.2035 26.0805 51.8957 26.0982 51.4834 26.1335L51.4924 26.1382ZM57.0613 14.0088C53.1937 17.3636 51.0462 20.5507 50.6188 23.5702C55.7726 22.4838 60.7008 20.4848 65.1809 17.6635C68.6286 15.2778 70.3525 13.1244 70.3525 11.2032C70.3537 10.8799 70.2738 10.5617 70.1204 10.279C69.9671 9.99624 69.7455 9.75838 69.4767 9.58807C68.7841 9.14649 67.9758 8.9323 67.1606 8.97434C64.3013 8.97434 60.9356 10.6533 57.0635 14.0111L57.0613 14.0088ZM70.4473 46.7444C70.3102 46.5914 70.2043 46.412 70.1357 46.2167C70.0671 46.0214 70.0372 45.8142 70.0478 45.6069C70.074 44.8501 70.301 44.1147 70.7046 43.4796C72.1991 41.5543 73.8523 39.7635 75.646 38.1268L75.594 37.9929L73.2216 39.8388L70.6663 42.0053L70.4857 41.8207C71.3284 41.0808 73.4518 39.3542 76.8559 36.6409H79.3525L71.1809 44.8871C70.9055 45.1516 70.6938 45.4777 70.5624 45.84V46.0246C70.5623 46.1387 70.5851 46.2516 70.6294 46.3564C70.6737 46.4611 70.7384 46.5555 70.8198 46.6337C70.9035 46.7206 71.0038 46.789 71.1145 46.8346C71.2252 46.8803 71.3438 46.9022 71.4631 46.899C72.296 46.8029 73.0953 46.5089 73.7972 46.0407C75.6682 44.7954 77.4323 43.3898 79.0704 41.8392L79.2509 42.0237C75.421 45.46 72.8363 47.1782 71.497 47.1782C71.303 47.1863 71.1096 47.1528 70.9292 47.0796C70.7487 47.0065 70.5853 46.8954 70.4496 46.7537L70.4473 46.7444ZM81.2509 32.5385C81.0823 32.3572 80.9906 32.115 80.9959 31.8648C81.031 31.5016 81.1912 31.1631 81.448 30.9095C81.7048 30.6559 82.0414 30.5038 82.3977 30.4805C82.5182 30.4781 82.6377 30.5029 82.7477 30.5532C82.8577 30.6034 82.9556 30.6778 83.0342 30.7712C83.2032 30.9598 83.2945 31.2077 83.2893 31.4634C83.2918 31.6508 83.2525 31.8363 83.1742 32.0058C83.096 32.1754 82.981 32.3244 82.8379 32.4416C82.5718 32.6908 82.2258 32.832 81.8649 32.8385C81.7504 32.837 81.6375 32.8108 81.5336 32.7615C81.4297 32.7122 81.3372 32.6409 81.2622 32.5524L81.2509 32.5385Z" fill="#BA3E3E"/>
<path d="M82.7131 47.4989C82.4913 47.4979 82.2727 47.4455 82.0737 47.3456C81.8747 47.2457 81.7004 47.1009 81.5641 46.9221C81.2487 46.5515 81.0783 46.075 81.0855 45.5839C81.3508 43.722 82.2656 42.0209 83.6612 40.794L88.9163 35.1965L88.8192 35.1227L80.528 42.0214L80.3429 41.8322L87.3993 35.9049L90.3903 33.4891H88.0901L88.1939 33.2215H90.7853L95.151 28.5423L97.3655 28.4893L93.2052 33.2123H96.8982L96.8192 33.4799H92.8689L84.002 43.1843C82.9456 44.338 82.3 45.074 82.0855 45.3716C81.8936 45.6102 81.7813 45.9053 81.765 46.2138C81.7644 46.3431 81.7927 46.4709 81.8479 46.5872C81.9031 46.7036 81.9836 46.8055 82.0833 46.8852C82.2688 47.0581 82.5094 47.1565 82.7605 47.1621C82.9587 47.1588 83.1558 47.1309 83.3474 47.079C83.5895 47.0145 83.8265 46.9312 84.0562 46.8298C84.3398 46.7049 84.617 46.5656 84.8869 46.4122C85.1826 46.2461 85.5009 46.0499 85.8372 45.8285C86.5144 45.3855 87.2706 44.8248 88.0946 44.1603C88.9185 43.4958 89.8508 42.7113 90.8418 41.8253L91.0269 42.0145C89.9975 42.9236 89.0381 43.7288 88.1781 44.4095C87.3181 45.0901 86.5325 45.6669 85.8418 46.1215C85.4964 46.3522 85.1646 46.5506 84.8643 46.7214C84.5641 46.8921 84.2752 47.0352 84.0156 47.1505C83.7822 47.2544 83.5415 47.34 83.2955 47.4066C83.1057 47.4614 82.9102 47.4924 82.7131 47.4989ZM81.5709 46.9175C81.7065 47.095 81.8798 47.2387 82.0776 47.3378C82.2755 47.4369 82.4927 47.4889 82.7131 47.4897C82.9129 47.4862 83.1116 47.4576 83.3045 47.4043C83.5505 47.3377 83.7913 47.2521 84.0246 47.1482C84.2842 47.0352 84.5709 46.8898 84.8734 46.7214C85.1758 46.5529 85.5032 46.3499 85.8485 46.1215C86.5393 45.66 87.3248 45.0924 88.1849 44.4095C89.0449 43.7265 89.9907 42.9236 91.0291 42.0168L90.8553 41.8392C89.8643 42.7229 88.9411 43.5096 88.1126 44.1718C87.2842 44.834 86.519 45.397 85.8553 45.84C85.519 46.0707 85.2007 46.2576 84.905 46.4237C84.6351 46.5771 84.3578 46.7165 84.0743 46.8413C83.8439 46.9436 83.6061 47.0277 83.3632 47.0928C83.1708 47.1449 82.973 47.1728 82.774 47.1759C82.5228 47.1689 82.2825 47.0698 82.0968 46.8967C81.9959 46.8164 81.9143 46.7134 81.8584 46.5959C81.8024 46.4783 81.7736 46.3491 81.774 46.2184C81.7906 45.9082 81.9037 45.6115 82.0968 45.3716C82.3113 45.074 82.9569 44.338 84.0133 43.1843L92.8847 33.4776H96.8215L96.896 33.2215H93.1759L97.3429 28.4939L95.151 28.547L90.7898 33.2192H88.2029L88.1036 33.4753H90.4129L87.4106 35.9002L80.3384 41.8299L80.5122 42.0076L88.8034 35.1089L88.9095 35.1919L83.6679 40.794C82.2744 42.0184 81.3606 43.7162 81.0946 45.5747C81.0873 46.0633 81.257 46.5374 81.5709 46.906V46.9175ZM61.1171 47.4851C60.9038 47.486 60.6928 47.4403 60.4982 47.3512C60.3035 47.2621 60.1298 47.1315 59.9884 46.9682C59.8334 46.8051 59.7113 46.6123 59.6292 46.4009C59.547 46.1895 59.5065 45.9636 59.5099 45.7362C59.9149 43.5872 60.9484 41.6145 62.4738 40.0787C63.0381 39.3081 63.6453 38.5559 64.2796 37.843C64.914 37.13 65.5889 36.4448 66.2864 35.7987L66.2616 35.6488C65.2762 36.2024 64.3656 36.885 63.5528 37.6792L58.4422 42.0238L58.2571 41.8346C60.1374 40.1849 61.6431 38.872 62.7492 37.9283C63.8553 36.9847 64.5708 36.3871 64.8914 36.1517C65.3691 35.7812 65.8774 35.4539 66.4106 35.1735C66.7592 35.0118 67.0771 34.7884 67.3496 34.5136C68.8033 32.9169 70.2458 31.3872 71.6386 29.9682C73.0313 28.5493 74.4151 27.1995 75.7469 25.9513C76.8305 24.9176 77.9569 23.9024 79.0968 22.9357C80.2368 21.9689 81.4196 21.0229 82.6115 20.1231C83.9599 18.9648 85.6145 18.2421 87.3655 18.0466H87.4106C87.8264 18.0455 88.2281 18.2007 88.5393 18.4826C88.6831 18.5984 88.8004 18.745 88.8831 18.9119C88.9658 19.0789 89.0117 19.2623 89.0178 19.4494C89.0166 19.5871 88.9991 19.7242 88.9659 19.8578C88.9274 20.016 88.8753 20.1704 88.8102 20.3192C88.7348 20.4915 88.6488 20.6587 88.5528 20.8199C88.4512 20.9929 88.3271 21.1775 88.1916 21.3667C87.8728 21.7994 87.5283 22.2116 87.16 22.6011C86.7492 23.0418 86.2571 23.524 85.7176 24.0224C85.0878 24.5854 84.4354 25.1437 83.7785 25.6767C83.1217 26.2097 82.4467 26.7358 81.7673 27.2364C81.0878 27.7371 80.3903 28.2309 79.6882 28.6992C78.9862 29.1676 78.2661 29.6222 77.5438 30.0628C76.9636 30.4505 76.3632 30.8265 75.7605 31.1773C75.1578 31.528 74.5393 31.8694 73.9185 32.1809C73.2977 32.4924 72.6589 32.7947 72.0201 33.0692C71.3812 33.3438 70.7266 33.6045 70.072 33.8422C69.6837 34.3151 68.9433 35.1504 67.8824 36.3248L65.8327 38.6505L63.2322 41.823C62.941 42.1299 62.6566 42.4529 62.3902 42.7828C62.1239 43.1128 61.8665 43.4566 61.6273 43.805C61.388 44.1534 61.1577 44.5179 60.9501 44.8871C60.7424 45.2562 60.537 45.6369 60.3541 46.0223V46.253C60.3515 46.3824 60.3714 46.5113 60.4128 46.6337C60.4498 46.7372 60.511 46.8299 60.5911 46.9036C60.6767 46.9799 60.7776 47.0359 60.8869 47.0675C61.022 47.1062 61.1619 47.1248 61.3022 47.1228C61.5079 47.1198 61.7124 47.0919 61.9117 47.0398C62.1576 46.9765 62.3983 46.8939 62.6318 46.7929C62.9163 46.6701 63.1943 46.5322 63.4647 46.3799C63.7605 46.2161 64.0787 46.0223 64.4106 45.8031C64.7424 45.5839 65.0878 45.3416 65.467 45.0601C65.8462 44.7786 66.23 44.481 66.6363 44.1511C67.4489 43.4935 68.3496 42.7159 69.309 41.8438L69.4964 42.0353L67.9162 43.4197C67.1374 44.1003 66.4038 44.7025 65.7311 45.2124C65.1328 45.6724 64.5111 46.0998 63.8688 46.4929C63.5866 46.6637 63.3135 46.8137 63.0584 46.9406C62.8203 47.0604 62.5761 47.1675 62.327 47.2613C62.1151 47.341 61.8979 47.405 61.6769 47.4528C61.4918 47.4822 61.3043 47.493 61.1171 47.4851ZM60.0065 46.9636C60.1458 47.1242 60.3168 47.2528 60.5082 47.3411C60.6996 47.4294 60.9071 47.4753 61.1171 47.4758C61.3084 47.4738 61.4989 47.4522 61.686 47.4112C61.9069 47.3635 62.1242 47.2995 62.3361 47.2197C62.5852 47.126 62.8293 47.0189 63.0674 46.899C63.3225 46.7721 63.5957 46.6198 63.8778 46.4514C64.52 46.0605 65.1416 45.6354 65.7401 45.1778C66.4173 44.6679 67.1465 44.0657 67.923 43.385L69.4918 42.0145L69.318 41.8369C68.3587 42.7136 67.4602 43.4889 66.6476 44.1441C66.2413 44.4741 65.8485 44.7786 65.4783 45.0532C65.1081 45.3278 64.7537 45.577 64.4219 45.7962C64.09 46.0153 63.7717 46.2092 63.476 46.3753C63.2056 46.5276 62.9275 46.6655 62.6431 46.7883C62.4088 46.8894 62.1673 46.9719 61.9207 47.0352C61.7207 47.0874 61.5154 47.1153 61.309 47.1182C61.1679 47.1203 61.0273 47.1016 60.8914 47.0628C60.7807 47.0316 60.6781 46.9757 60.5911 46.899C60.5101 46.8238 60.4482 46.7296 60.4106 46.6245C60.3683 46.5015 60.3476 46.3718 60.3496 46.2415V46.0107C60.5325 45.6254 60.7334 45.2424 60.9455 44.8732C61.1577 44.5041 61.397 44.1395 61.6227 43.7911C61.8485 43.4427 62.1194 43.0989 62.388 42.7667C62.6566 42.4344 62.9388 42.1137 63.2322 41.8069L65.8327 38.6344L67.8824 36.3086C68.9478 35.1342 69.6882 34.299 70.072 33.826C72.7 32.8753 75.2076 31.6074 77.5415 30.049C78.2639 29.6129 78.984 29.1561 79.686 28.6854C80.388 28.2147 81.0855 27.7256 81.765 27.2226C82.4445 26.7196 83.1194 26.1958 83.774 25.6629C84.4287 25.1299 85.081 24.5738 85.7131 24.0086C86.2594 23.5056 86.7447 23.028 87.1555 22.5896C87.523 22.2008 87.8667 21.7893 88.1849 21.3575C88.4273 21.0329 88.6347 20.6825 88.8034 20.3123C88.8678 20.1634 88.9192 20.009 88.9569 19.8508C88.99 19.7181 89.0074 19.5818 89.0088 19.4448C89.0029 19.2592 88.9574 19.0771 88.8755 18.9113C88.7936 18.7455 88.6774 18.6 88.5348 18.4849C88.2237 18.2031 87.8218 18.0486 87.4061 18.0512H87.3632C85.6169 18.2488 83.9672 18.9715 82.6228 20.1277C81.4309 21.0252 80.2481 21.9735 79.1081 22.9403C77.9682 23.907 76.8508 24.9222 75.7582 25.9559C74.4241 27.2018 73.0494 28.5516 71.6499 29.9729C70.2503 31.3941 68.8146 32.9216 67.3609 34.5182C67.0878 34.7939 66.7691 35.0181 66.4196 35.1804C65.8864 35.4608 65.3781 35.7881 64.9004 36.1587C64.5799 36.3894 63.8598 36.9916 62.7582 37.9353C61.6566 38.8789 60.1487 40.1895 58.2706 41.8392L58.4444 42.0168L63.5483 37.6838C64.3658 36.8869 65.2817 36.2027 66.2729 35.6488L66.2977 35.8103C65.6002 36.4563 64.923 37.1439 64.2909 37.8568C63.6589 38.5698 63.0494 39.3196 62.4851 40.0926C60.9608 41.627 59.9281 43.5982 59.5234 45.7454C59.5202 45.9716 59.5605 46.1962 59.6423 46.4064C59.724 46.6166 59.8455 46.8083 59.9997 46.9706L60.0065 46.9636ZM39.3947 47.3559C37.4713 47.3557 35.6233 46.5912 34.2412 45.2239C33.0395 43.9375 32.3699 42.2266 32.3721 40.4479C32.4334 38.7665 32.8481 37.1182 33.5882 35.6153C34.3283 34.1123 35.3763 32.7899 36.6611 31.7379C37.0301 31.3941 37.4175 31.0713 37.8214 30.7712C38.2367 30.462 38.6882 30.1597 39.1645 29.8713C39.6408 29.5829 40.1532 29.3037 40.6882 29.0407C41.2232 28.7777 41.7965 28.5193 42.3925 28.277C42.9884 28.0347 43.6227 27.8017 44.2796 27.5848C44.9365 27.3679 45.634 27.1557 46.3473 26.9596C47.0606 26.7634 47.8191 26.5742 48.6047 26.4012C49.3902 26.2281 50.1848 26.0643 51.0268 25.9121C50.5027 25.3596 50.1063 24.6942 49.8665 23.9647C49.3044 24.0962 48.7379 24.2162 48.1622 24.32C47.5866 24.4239 47.0132 24.5138 46.4399 24.59C45.8665 24.6661 45.2841 24.7261 44.7062 24.77C44.1284 24.8138 43.5437 24.8461 42.9658 24.8622C42.7536 24.8761 42.5369 24.883 42.3247 24.883C40.229 24.8831 38.1861 24.2099 36.485 22.9587C35.8121 22.4703 35.2584 21.8298 34.8669 21.0871C34.4754 20.3445 34.2567 19.5195 34.2277 18.6764C34.2275 18.2903 34.2554 17.9047 34.3112 17.5228C34.4242 16.7732 34.6527 16.0466 34.9884 15.3701C35.1588 15.0242 35.3543 14.6918 35.573 14.3757C35.8017 14.0449 36.0521 13.7304 36.3225 13.4343C36.6102 13.1197 36.9163 12.823 37.239 12.546C37.5857 12.2493 37.9474 11.9713 38.3225 11.7131C38.7085 11.4454 39.1306 11.1824 39.573 10.9332C40.0155 10.684 40.476 10.451 40.95 10.241C41.4241 10.0311 41.8891 9.81881 42.3631 9.63192C42.8372 9.44503 43.2864 9.26276 43.7694 9.10586C44.2525 8.94897 44.7491 8.80592 45.2412 8.67902C45.7333 8.55212 46.2367 8.44829 46.7356 8.34446C47.2345 8.24063 47.7424 8.16911 48.248 8.11373C48.7537 8.05836 49.2661 8.00068 49.774 7.96837C50.2819 7.93607 50.7988 7.91992 51.309 7.91992H51.8011V8.11373C51.5121 8.09989 51.2187 8.09297 50.932 8.09297C46.901 8.09329 42.9587 9.30222 39.5934 11.57C39.1983 11.8561 38.8214 12.1515 38.476 12.4422C38.1306 12.7329 37.7988 13.0352 37.5076 13.3351C37.2197 13.6247 36.9462 13.9288 36.6882 14.2465C36.4453 14.5406 36.2192 14.8487 36.011 15.1694C35.8173 15.4736 35.6431 15.7904 35.4895 16.1177C35.3431 16.4305 35.2187 16.7536 35.1171 17.0844C35.0177 17.4074 34.9423 17.7375 34.8913 18.0719C34.8418 18.4049 34.8169 18.7411 34.8168 19.0779C34.8531 19.8483 35.0702 20.5984 35.4497 21.265C35.8292 21.9316 36.3601 22.4951 36.9974 22.908C38.6675 24.025 40.6201 24.6199 42.6159 24.62C42.8417 24.62 43.0674 24.62 43.3067 24.5969C43.8575 24.5831 44.415 24.5531 44.9636 24.5092C45.5121 24.4654 46.0674 24.4077 46.6137 24.3362C47.16 24.2647 47.7108 24.177 48.2525 24.0755C48.7943 23.9739 49.3383 23.8586 49.871 23.7294C49.6939 23.1676 49.5988 22.5822 49.5889 21.992C49.6735 19.8899 50.5097 17.8925 51.9388 16.3784C52.4444 15.8316 52.9839 15.3032 53.5392 14.8071C54.0945 14.3111 54.6679 13.8427 55.2774 13.4066C55.8868 12.9705 56.5031 12.5599 57.1397 12.1838C57.7762 11.8077 58.4422 11.4616 59.1148 11.1501C61.5688 9.74772 64.2964 8.91875 67.1013 8.72285H67.2977C68.1248 8.72319 68.9349 8.96319 69.634 9.41504C69.9481 9.62844 70.2028 9.92111 70.3737 10.2647C70.5445 10.6083 70.6257 10.9912 70.6092 11.3762C70.6079 11.6195 70.5791 11.8618 70.5234 12.0984C70.4623 12.3562 70.3769 12.6073 70.2684 12.8483C70.1466 13.1182 70.0047 13.3781 69.844 13.6258C69.6621 13.9069 69.4638 14.1766 69.2503 14.4334C69.0246 14.7056 68.7695 14.9871 68.4873 15.2686C68.2052 15.5501 67.8936 15.8408 67.5573 16.1315C67.221 16.4222 66.8507 16.7222 66.458 17.0221C66.0652 17.3221 65.6386 17.6312 65.1893 17.945C64.6318 18.298 64.0607 18.6372 63.4896 18.9718C62.9185 19.3063 62.3338 19.6178 61.7492 19.9178C61.1645 20.2177 60.5663 20.5084 59.9704 20.783C59.3744 21.0575 58.7627 21.3183 58.1645 21.5651C57.5663 21.812 56.9343 22.0451 56.318 22.2573C55.7017 22.4696 55.0674 22.6819 54.4422 22.8688C53.8169 23.0556 53.1735 23.2356 52.5392 23.3948C51.9049 23.554 51.257 23.7017 50.6137 23.8332C50.5899 24.2111 50.6415 24.5901 50.7652 24.947C50.889 25.304 51.0825 25.6315 51.3338 25.9097L51.9726 25.8844C52.099 25.8844 52.2277 25.8844 52.3541 25.8844C53.2361 25.8845 54.1119 26.035 54.9455 26.3297C55.0967 26.3958 55.2431 26.4729 55.3835 26.5604C55.496 26.6253 55.6012 26.7027 55.6972 26.7911C55.774 26.8654 55.8374 26.9529 55.8846 27.0495C55.9258 27.1349 55.9475 27.2289 55.9478 27.3241C55.944 27.4441 55.9097 27.5609 55.8484 27.6633C55.7871 27.7656 55.7007 27.8499 55.5979 27.9078C55.3735 28.0609 55.1092 28.1413 54.8394 28.1386C54.1309 28.1022 53.4387 27.9083 52.811 27.5703C52.1833 27.2324 51.6353 26.7586 51.2051 26.182C46.3284 26.7501 41.8301 29.1435 38.5776 32.9008C38.1712 33.3622 37.783 33.8352 37.4263 34.2852C37.0697 34.7351 36.7356 35.185 36.4286 35.6211C36.1216 36.0571 35.8394 36.4886 35.5843 36.9062C35.3292 37.3238 35.0967 37.7391 34.8936 38.1406C34.6904 38.5421 34.5098 38.9389 34.3563 39.3242C34.2083 39.6944 34.0802 40.0726 33.9726 40.4571C33.8748 40.8125 33.7995 41.174 33.7469 41.5392C33.6966 41.8806 33.671 42.2253 33.6701 42.5706C33.6795 43.1976 33.8335 43.8135 34.1194 44.3683C34.4053 44.9231 34.8152 45.4012 35.3157 45.7638C36.523 46.6476 37.9707 47.1228 39.4557 47.1228C39.5934 47.1228 39.7333 47.1228 39.871 47.1113C43.8163 47.0247 47.6617 45.8271 50.9839 43.6504C51.4512 43.3643 51.8868 43.0689 52.3022 42.7759C52.7175 42.4829 53.0945 42.1806 53.4444 41.8807C53.7815 41.5899 54.104 41.2819 54.4105 40.9578C54.6916 40.6664 54.9554 40.3583 55.2006 40.0349C55.4276 39.7324 55.6335 39.4139 55.8169 39.082C55.9886 38.7699 56.1358 38.4443 56.2571 38.1083C56.3728 37.786 56.4612 37.454 56.5212 37.1162C56.5796 36.7819 56.6091 36.4429 56.6092 36.1033C56.619 35.6838 56.5415 35.267 56.382 34.8804C56.2224 34.4938 55.9844 34.1462 55.6837 33.8606C55.0429 33.2764 54.215 32.9523 53.3564 32.9492H53.1622C49.9921 33.1203 46.9342 34.2059 44.3428 36.0802C41.3446 37.9488 38.765 40.4416 36.7717 43.3966L36.5866 43.2881C38.6079 40.3426 41.1918 37.846 44.1825 35.9487C46.7826 34.0406 49.8642 32.9362 53.0607 32.767H53.2864C54.2621 32.7673 55.2039 33.1325 55.9342 33.7937C56.2613 34.0912 56.5234 34.4557 56.7035 34.8636C56.8836 35.2714 56.9776 35.7135 56.9794 36.161C56.9796 36.5099 56.9494 36.8581 56.8891 37.2015C56.8272 37.5482 56.7358 37.8887 56.616 38.2191C56.4918 38.5624 56.3408 38.8949 56.1645 39.2135C55.9751 39.553 55.7624 39.8784 55.5279 40.1872C55.2746 40.5206 55.0017 40.8381 54.7108 41.1378C54.3937 41.4625 54.0607 41.7705 53.713 42.0607C53.3519 42.3652 52.9546 42.6698 52.5324 42.9674C52.1103 43.2651 51.6521 43.5627 51.178 43.8511C47.8286 46.0173 43.9706 47.2223 40.0087 47.3397C39.7988 47.3559 39.5956 47.3628 39.397 47.3628L39.3947 47.3559ZM34.248 45.217C35.6282 46.5826 37.4738 47.3463 39.3947 47.3466C39.5956 47.3466 39.7965 47.3466 39.9974 47.3213C43.9576 47.2036 47.8139 45.9995 51.1622 43.835C51.643 43.5466 52.1013 43.2489 52.5166 42.9513C52.932 42.6536 53.3361 42.3491 53.6972 42.0468C54.0449 41.7567 54.3779 41.4486 54.695 41.1239C54.9859 40.8242 55.2588 40.5068 55.5121 40.1733C55.7458 39.8653 55.9577 39.5407 56.1464 39.202C56.3228 38.8834 56.4738 38.5508 56.5979 38.2075C56.7176 37.8779 56.809 37.5382 56.871 37.1923C56.9312 36.8497 56.9615 36.5022 56.9613 36.154C56.9594 35.708 56.8658 35.2674 56.6865 34.8608C56.5072 34.4542 56.2463 34.0906 55.9207 33.7937C55.1917 33.1335 54.2514 32.769 53.2774 32.7693H53.0516C49.86 32.9405 46.7835 34.0439 44.1871 35.9487C41.2013 37.8466 38.622 40.3424 36.6046 43.2858L36.7785 43.3874C38.7699 40.438 41.3455 37.9492 44.3383 36.0825C46.9309 34.2085 49.9914 33.1223 53.1622 32.9492H53.3564C54.217 32.9492 55.048 33.2709 55.6927 33.8537C55.9947 34.14 56.2337 34.4886 56.3941 34.8764C56.5544 35.2642 56.6323 35.6824 56.6227 36.1033C56.6228 36.4437 56.5933 36.7834 56.5347 37.1185C56.4748 37.4571 56.3865 37.7898 56.2706 38.1129C56.1495 38.4497 56.0023 38.776 55.8304 39.0889C55.6471 39.4216 55.4412 39.7408 55.2142 40.0441C54.9686 40.3715 54.704 40.6835 54.4218 40.9786C54.1145 41.3027 53.7913 41.6108 53.4534 41.9015C53.1035 42.2014 52.7175 42.5037 52.309 42.7967C51.9004 43.0897 51.4557 43.385 50.9907 43.6712C47.6668 45.848 43.82 47.0455 39.8733 47.1321C39.7356 47.1321 39.5956 47.1436 39.4557 47.1436C37.9682 47.1437 36.5181 46.6677 35.3089 45.7823C34.8072 45.419 34.3963 44.9399 34.1096 44.3839C33.8229 43.8278 33.6684 43.2106 33.6588 42.5821C33.6596 42.2361 33.6853 41.8906 33.7356 41.5485C33.7882 41.1832 33.8636 40.8218 33.9613 40.4663C34.0689 40.0819 34.197 39.7037 34.345 39.3335C34.4985 38.9482 34.6791 38.5513 34.8823 38.1498C35.0855 37.7484 35.318 37.3331 35.573 36.9154C35.8281 36.4978 36.1125 36.0641 36.4173 35.6303C36.722 35.1965 37.0584 34.7466 37.415 34.2944C37.7717 33.8422 38.1577 33.3715 38.5663 32.91C38.9749 32.4486 39.3992 31.9871 39.8417 31.5672C40.2841 31.1473 40.7446 30.7366 41.2232 30.3559C41.7017 29.9752 42.1961 29.6152 42.7017 29.283C43.2074 28.9507 43.7333 28.6369 44.2661 28.3601C44.7988 28.0832 45.3496 27.8132 45.9071 27.5802C46.4647 27.3472 47.0358 27.1349 47.6137 26.9549C48.1916 26.775 48.7853 26.6158 49.3767 26.4935C49.9681 26.3712 50.5798 26.2628 51.1825 26.1935C51.6164 26.7673 52.1677 27.2372 52.7978 27.5703C53.4279 27.9035 54.1216 28.0919 54.8304 28.1224C55.0979 28.1243 55.3598 28.0439 55.5821 27.8917C55.6831 27.8338 55.7679 27.7503 55.8284 27.6493C55.8889 27.5483 55.923 27.4332 55.9275 27.3149C55.9275 27.2213 55.9066 27.129 55.8665 27.0449C55.8198 26.9492 55.7572 26.8626 55.6814 26.7888C55.5862 26.7005 55.4817 26.6231 55.3699 26.5581C55.2303 26.4707 55.0847 26.3936 54.9342 26.3274C54.1027 26.0299 53.2284 25.8763 52.3473 25.8728C52.2209 25.8728 52.0923 25.8728 51.9658 25.8728L51.3248 25.8982C51.0718 25.6182 50.8772 25.2884 50.753 24.929C50.6288 24.5696 50.5776 24.1881 50.6024 23.8078C51.2458 23.6763 51.8936 23.5286 52.5302 23.3694C53.1668 23.2102 53.8056 23.0326 54.4331 22.8434C55.0607 22.6542 55.6905 22.4488 56.309 22.2319C56.9275 22.0151 57.5482 21.7705 58.1555 21.5398C58.7627 21.309 59.3744 21.0322 59.9613 20.7576C60.5483 20.483 61.1555 20.1946 61.7401 19.8924C62.3248 19.5901 62.9094 19.274 63.4805 18.9464C64.0516 18.6188 64.625 18.2727 65.1803 17.9197C65.6318 17.6105 66.0562 17.3013 66.4489 16.9967C66.8417 16.6922 67.2119 16.3969 67.5483 16.1061C67.8846 15.8154 68.1984 15.5247 68.4783 15.2432C68.7582 14.9617 69.0155 14.6802 69.239 14.408C69.4517 14.1519 69.6492 13.883 69.8304 13.6027C69.9904 13.355 70.1316 13.0951 70.2526 12.8252C70.3602 12.5849 70.4449 12.3346 70.5054 12.0776C70.5602 11.8418 70.5882 11.6002 70.5889 11.3578C70.6045 10.9769 70.5243 10.5983 70.356 10.2582C70.1876 9.91809 69.9367 9.62778 69.6273 9.41504C68.9305 8.96363 68.1227 8.72361 67.2977 8.72285H67.1036C64.2987 8.92163 61.5718 9.75377 59.1194 11.1593C58.4422 11.4685 57.783 11.8169 57.1464 12.193C56.5099 12.5691 55.8823 12.9775 55.2841 13.4135C54.6859 13.8496 54.1013 14.3203 53.546 14.8141C52.9907 15.3078 52.4512 15.8362 51.9455 16.383C50.5142 17.8935 49.6756 19.8887 49.5889 21.9897C49.5973 22.5772 49.6901 23.1602 49.8643 23.7201C49.3293 23.8493 48.7807 23.967 48.239 24.0662C47.6972 24.1654 47.1464 24.2554 46.6001 24.327C46.0539 24.3985 45.4986 24.4585 44.95 24.5C44.4015 24.5415 43.8439 24.5738 43.2931 24.5877C43.0674 24.6038 42.8417 24.6108 42.6024 24.6108C40.6051 24.6111 38.651 24.0161 36.9794 22.8988C36.3485 22.4847 35.8234 21.9225 35.4481 21.2591C35.0727 20.5957 34.8578 19.8503 34.8213 19.0848C34.8214 18.7481 34.8463 18.4118 34.8958 18.0789C34.9468 17.7444 35.0223 17.4143 35.1216 17.0913C35.2231 16.7597 35.3476 16.4359 35.494 16.1223C35.6475 15.7942 35.8217 15.4767 36.0155 15.1717C36.2237 14.851 36.4498 14.5429 36.6927 14.2488C36.9504 13.9272 37.2239 13.6192 37.5121 13.3259C37.8078 13.0259 38.1351 12.726 38.4805 12.433C38.8259 12.1399 39.2028 11.8469 39.5979 11.5585C42.9624 9.29286 46.9029 8.08482 50.932 8.08374C51.2187 8.08374 51.5099 8.08374 51.7965 8.1022V7.92684H51.309C47.2033 7.92593 43.161 8.96183 39.5414 10.9425C39.09 11.1916 38.6791 11.4547 38.2931 11.7223C37.918 11.9805 37.5564 12.2585 37.2096 12.5552C36.887 12.8315 36.5809 13.1274 36.2931 13.4412C36.0227 13.7373 35.7723 14.0518 35.5437 14.3826C35.3272 14.699 35.1341 15.0314 34.9658 15.377C34.6305 16.052 34.4019 16.777 34.2886 17.5251C34.2328 17.907 34.2048 18.2926 34.2051 18.6787C34.2344 19.5208 34.4534 20.3446 34.8449 21.0861C35.2364 21.8276 35.7899 22.4668 36.4624 22.9541C38.1651 24.2052 40.2098 24.8768 42.3067 24.8738C42.5189 24.8738 42.7356 24.8738 42.9478 24.853C43.5257 24.8369 44.1126 24.8069 44.6882 24.7607C45.2638 24.7146 45.8485 24.6546 46.4218 24.5808C46.9952 24.5069 47.5753 24.4146 48.1442 24.3131C48.713 24.2116 49.2886 24.0824 49.853 23.9578C50.0935 24.6905 50.4924 25.3584 51.02 25.9121C50.1848 26.0643 49.3654 26.2281 48.5911 26.4012C47.8169 26.5742 47.0584 26.7634 46.3338 26.9596C45.6092 27.1557 44.9229 27.3656 44.2661 27.5848C43.6092 27.804 42.9771 28.0463 42.3812 28.277C41.7852 28.5077 41.2119 28.7754 40.6769 29.0384C40.1419 29.3014 39.6295 29.5829 39.1532 29.869C38.6769 30.1551 38.2277 30.4574 37.8123 30.7689C37.4084 31.069 37.0211 31.3917 36.652 31.7356C35.3674 32.7861 34.3193 34.1073 33.5791 35.6091C32.839 37.111 32.4243 38.7582 32.3631 40.4387C32.3611 42.2148 33.0298 43.9232 34.2299 45.2078L34.248 45.217ZM93.1465 47.3489C92.8717 47.3489 92.6003 47.2879 92.3509 47.17C92.1015 47.0521 91.8801 46.8802 91.7021 46.6663C91.5241 46.4523 91.3938 46.2014 91.32 45.9308C91.2463 45.6603 91.231 45.3766 91.2752 45.0994C91.2756 44.8511 91.2967 44.6033 91.3384 44.3587C91.3809 44.11 91.4436 43.8654 91.5257 43.6273C91.6115 43.3796 91.7157 43.139 91.8372 42.9074C91.9668 42.6616 92.1123 42.425 92.2729 42.1991C92.4464 41.9576 92.6333 41.7265 92.8327 41.5069C93.0382 41.2762 93.2684 41.0455 93.5099 40.8147C93.7515 40.584 94.0291 40.3533 94.3181 40.1364C94.607 39.9195 94.9208 39.6888 95.2503 39.4696C97.0612 38.041 99.2102 37.1286 101.478 36.8255H101.505C101.75 36.8246 101.988 36.9057 102.183 37.0562C102.274 37.1223 102.349 37.2097 102.401 37.3112C102.453 37.4127 102.48 37.5254 102.481 37.6399C102.481 37.7503 102.468 37.8603 102.442 37.9676C102.414 38.0814 102.375 38.192 102.325 38.2975C102.203 38.545 102.044 38.7722 101.855 38.9712C101.616 39.2263 101.354 39.458 101.072 39.6634C100.72 39.9206 100.354 40.1564 99.975 40.3694C98.2595 41.3361 96.3708 41.9388 94.4219 42.1414C93.9862 42.589 93.598 43.0067 93.2707 43.3827C92.9433 43.7588 92.6657 44.1072 92.4467 44.4141C92.2578 44.6711 92.0923 44.9453 91.9524 45.2332C91.8556 45.4211 91.7994 45.628 91.7876 45.84C91.7947 46.0118 91.8388 46.1799 91.9169 46.3323C91.9949 46.4847 92.1049 46.6175 92.2391 46.7214C92.5315 46.9847 92.908 47.1299 93.2977 47.1298H93.3181C94.6503 47.0023 95.9426 46.5963 97.1149 45.9369C99.1974 44.8239 101.132 43.4429 102.871 41.8276L103.056 42.0168C101.367 43.623 99.4724 44.9875 97.4242 46.073C96.1718 46.7803 94.7869 47.2081 93.361 47.3282C93.29 47.3416 93.2184 47.3508 93.1465 47.3559V47.3489ZM101.487 36.8324C99.2211 37.136 97.0738 38.0475 95.2639 39.4742C94.9343 39.7049 94.6206 39.9172 94.3316 40.141C94.0427 40.3648 93.7718 40.6025 93.5235 40.817C93.2752 41.0316 93.0449 41.2785 92.8463 41.5092C92.6468 41.7288 92.4599 41.9599 92.2865 42.2014C92.1258 42.4273 91.9803 42.6639 91.8508 42.9097C91.7292 43.1413 91.625 43.3819 91.5393 43.6296C91.4572 43.8669 91.3946 44.1108 91.3519 44.3587C91.3102 44.6033 91.2891 44.8511 91.2887 45.0994C91.2413 45.3959 91.2623 45.6997 91.3501 45.9865C91.4379 46.2733 91.59 46.5352 91.7944 46.7513C91.9988 46.9673 92.2497 47.1316 92.5271 47.2309C92.8046 47.3303 93.101 47.362 93.3926 47.3236C94.8186 47.2037 96.2035 46.7759 97.4558 46.0684C99.5013 44.9838 101.394 43.6209 103.081 42.0168L102.907 41.8392C101.168 43.4534 99.2348 44.8336 97.1533 45.9461C95.9795 46.6058 94.6856 47.0119 93.3519 47.139H93.3316C92.9401 47.1388 92.5621 46.9928 92.2684 46.7283C92.1314 46.6246 92.0186 46.4912 91.9382 46.3376C91.8578 46.184 91.8117 46.014 91.8034 45.84C91.8047 45.7455 91.8183 45.6516 91.844 45.5608C91.8762 45.4467 91.9177 45.3355 91.9682 45.2286C92.1082 44.9407 92.2737 44.6665 92.4625 44.4095C92.6883 44.1026 92.9591 43.7565 93.2865 43.3781C93.6138 42.9997 94.002 42.5821 94.44 42.1345C96.3881 41.9319 98.2761 41.3292 99.9908 40.3625C100.369 40.1494 100.735 39.9136 101.086 39.6565C101.367 39.4511 101.629 39.2194 101.869 38.9643C102.058 38.7661 102.216 38.5397 102.338 38.2929C102.389 38.1874 102.428 38.0768 102.456 37.9629C102.481 37.8565 102.494 37.7472 102.494 37.6376C102.494 37.5245 102.467 37.4132 102.416 37.3129C102.365 37.2126 102.291 37.1262 102.201 37.0608C102.006 36.9097 101.768 36.8286 101.523 36.8301L101.487 36.8324ZM71.4377 47.169C71.2527 47.1689 71.0695 47.1312 70.899 47.0579C70.7284 46.9846 70.5739 46.8772 70.4444 46.7421C70.3073 46.5887 70.2014 46.4089 70.1328 46.2132C70.0642 46.0176 70.0343 45.8099 70.0449 45.6023C70.0716 44.8445 70.2994 44.1084 70.704 43.4727C71.0765 42.9928 71.4625 42.5175 71.8553 42.0537C72.248 41.59 72.6521 41.1308 73.063 40.6878C73.4738 40.2448 73.8982 39.8018 74.3271 39.375C74.756 38.9482 75.1984 38.5282 75.6431 38.1198L75.5979 38.0022L73.23 39.848L70.6724 42.0168L70.4851 41.8253C70.9049 41.4562 71.6544 40.8355 72.7108 39.9795C73.7672 39.1235 75.1623 37.9999 76.8575 36.6501H79.3677L71.1961 44.8963C70.9216 45.1603 70.7107 45.4857 70.5799 45.8469V46.0315C70.5798 46.1447 70.6025 46.2567 70.6463 46.3607C70.6902 46.4646 70.7544 46.5583 70.835 46.636C70.9156 46.7193 71.0115 46.7855 71.1173 46.8306C71.2231 46.8758 71.3366 46.899 71.4512 46.899H71.4738C72.3059 46.8027 73.1044 46.5088 73.8056 46.0407C74.7356 45.4201 75.6521 44.7486 76.528 44.0495C77.4038 43.3504 78.2616 42.6029 79.0742 41.8299L79.2593 42.0191C78.3068 42.8751 77.4174 43.6342 76.6205 44.2733C75.8237 44.9125 75.0923 45.457 74.449 45.8884C74.1262 46.103 73.8214 46.2922 73.546 46.4514C73.2879 46.5995 73.0228 46.7343 72.7514 46.8552C72.5318 46.9496 72.3054 47.0267 72.0742 47.0859C71.8908 47.1364 71.7021 47.1635 71.5122 47.1667H71.4557L71.4377 47.169ZM70.4489 46.7352C70.5775 46.8695 70.7309 46.9762 70.9003 47.0491C71.0697 47.122 71.2516 47.1596 71.4354 47.1597H71.4918C71.681 47.1565 71.869 47.1293 72.0517 47.079C72.2828 47.0198 72.5092 46.9427 72.7289 46.8483C73.0001 46.7281 73.2653 46.5941 73.5234 46.4468C73.8056 46.2876 74.1126 46.0961 74.4264 45.8838C75.0697 45.457 75.8011 44.9148 76.5979 44.2687C77.3948 43.6227 78.2819 42.8705 79.2323 42.0168L79.0584 41.8392C78.2458 42.6121 77.388 43.3574 76.5144 44.0565C75.6408 44.7556 74.7221 45.427 73.7921 46.0476C73.0896 46.5169 72.2895 46.8116 71.4557 46.9083H71.4309C71.315 46.9083 71.2003 46.8849 71.0934 46.8394C70.9864 46.7938 70.8894 46.7271 70.8079 46.6429C70.7265 46.5643 70.6617 46.4695 70.6174 46.3644C70.5732 46.2592 70.5504 46.146 70.5505 46.0315V45.8446C70.6824 45.4814 70.8949 45.1544 71.1713 44.8894L79.3406 36.6409H76.8575C73.4715 39.3381 71.3338 41.0778 70.4918 41.8161L70.6657 41.9938L73.2164 39.8295L75.5934 37.9837L75.6476 38.1198C75.1961 38.5259 74.756 38.9505 74.3271 39.375C73.8982 39.7995 73.4738 40.2425 73.063 40.6878C72.6521 41.1331 72.2481 41.5923 71.8575 42.0537C71.467 42.5152 71.0765 42.9928 70.704 43.4727C70.3006 44.1071 70.0758 44.8416 70.0494 45.5977C70.0386 45.8044 70.0682 46.0112 70.1364 46.2061C70.2046 46.401 70.3101 46.5801 70.4467 46.7329L70.4489 46.7352ZM94.8147 41.8899C95.2368 41.4146 95.6883 40.9509 96.151 40.5056C96.6138 40.0603 97.1014 39.6519 97.6025 39.2596C97.9885 38.9366 98.3903 38.6251 98.8011 38.3367C99.212 38.0483 99.6386 37.7714 100.07 37.52C100.525 37.2574 101.035 37.1087 101.557 37.0862C101.642 37.0849 101.726 37.0958 101.808 37.1185C101.873 37.1365 101.934 37.1688 101.986 37.2131C102.035 37.2562 102.072 37.3109 102.095 37.3723C102.121 37.4462 102.133 37.5245 102.131 37.603C102.128 37.7349 102.101 37.8649 102.049 37.986C101.985 38.1387 101.902 38.2828 101.803 38.4152C101.679 38.5838 101.542 38.7427 101.395 38.8905C101.232 39.0566 101.04 39.232 100.824 39.4119C99.8464 40.2017 98.7397 40.8079 97.5551 41.2024C96.6783 41.562 95.7567 41.7949 94.8169 41.8945L94.8147 41.8899ZM101.557 37.1023C101.036 37.1252 100.528 37.2739 100.074 37.5361C99.6431 37.7899 99.2165 38.0645 98.8057 38.3529C98.3948 38.6413 97.993 38.9528 97.607 39.2758C97.1081 39.668 96.6206 40.0856 96.1578 40.5217C95.695 40.9578 95.2549 41.4123 94.8305 41.8853C95.7657 41.7846 96.6826 41.5517 97.5551 41.1931C98.738 40.799 99.8432 40.1936 100.819 39.405C101.045 39.225 101.228 39.0497 101.388 38.8836C101.535 38.7357 101.671 38.5768 101.794 38.4083C101.892 38.2765 101.974 38.1332 102.038 37.9814C102.089 37.8611 102.117 37.7318 102.119 37.6007C102.122 37.5221 102.11 37.4438 102.083 37.37C102.061 37.3095 102.025 37.2555 101.977 37.2131C101.926 37.1686 101.866 37.1362 101.801 37.1185C101.72 37.096 101.637 37.0851 101.553 37.0862L101.557 37.1023ZM70.4309 33.443V33.4292C71.0291 32.6493 71.8666 31.6479 72.914 30.4551C73.9614 29.2622 75.2661 27.8455 76.774 26.2397C77.2864 25.6606 77.8169 25.086 78.3542 24.5323C78.8914 23.9786 79.4467 23.4294 80.0065 22.9011C80.5663 22.3727 81.1465 21.8512 81.7311 21.3483C82.3158 20.8453 82.9185 20.3515 83.5235 19.8762C84.606 19.0123 85.9095 18.4859 87.2774 18.3603H87.3361C87.6726 18.3602 87.9991 18.4774 88.2616 18.6926C88.3788 18.78 88.4749 18.8936 88.5426 19.0248C88.6102 19.1559 88.6477 19.3012 88.6521 19.4494C88.6507 19.5756 88.634 19.7011 88.6025 19.8232C88.5655 19.968 88.5165 20.1092 88.4558 20.2454C88.2935 20.5968 88.096 20.93 87.8666 21.2398C87.562 21.6571 87.2341 22.0562 86.8846 22.435C86.4941 22.8641 86.0314 23.3325 85.5099 23.8194C84.8937 24.3846 84.2526 24.9384 83.6092 25.4691C82.9659 25.9997 82.2977 26.5189 81.6273 27.0126C80.9569 27.5064 80.2729 27.9886 79.5686 28.4477C78.8643 28.9069 78.1555 29.3499 77.4377 29.7698C76.8869 30.1274 76.309 30.4758 75.7514 30.8081C75.1939 31.1403 74.6025 31.4611 74.0223 31.7656C73.4422 32.0702 72.8462 32.3632 72.2526 32.6401C71.6589 32.9169 71.0494 33.1823 70.4467 33.4315L70.4309 33.443ZM87.2932 18.3696C85.9278 18.4953 84.6267 19.0208 83.546 19.8831C82.9411 20.3584 82.3384 20.8522 81.7537 21.3552C81.1691 21.8582 80.5912 22.3796 80.0291 22.908C79.467 23.4363 78.9117 23.9855 78.3767 24.5392C77.8417 25.093 77.309 25.6675 76.7966 26.2466C75.2887 27.8617 73.9885 29.2691 72.9365 30.462C71.8846 31.6549 71.0562 32.6424 70.4535 33.4222C71.0539 33.1754 71.6566 32.91 72.2458 32.6378C72.835 32.3655 73.4354 32.0679 74.0155 31.7633C74.5957 31.4587 75.1781 31.138 75.7447 30.8058C76.3113 30.4735 76.8733 30.1251 77.4309 29.7698C78.1487 29.3499 78.8666 28.9046 79.5618 28.4477C80.2571 27.9909 80.9501 27.5087 81.6205 27.0149C82.291 26.5212 82.9591 26.002 83.6025 25.4714C84.2458 24.9407 84.8869 24.3869 85.5032 23.8217C86.0246 23.3279 86.4874 22.8595 86.8779 22.4373C87.2273 22.0592 87.5551 21.661 87.8598 21.2444C88.0893 20.9347 88.2868 20.6014 88.449 20.25C88.5097 20.1139 88.5588 19.9726 88.5957 19.8278C88.6271 19.7065 88.6438 19.5817 88.6454 19.4563C88.6409 19.3093 88.6035 19.1654 88.5362 19.0354C88.469 18.9054 88.3735 18.7929 88.2571 18.7064C87.9964 18.4929 87.6724 18.3765 87.3384 18.3765L87.2932 18.3696ZM81.853 32.8316C81.7376 32.8302 81.6238 32.8038 81.5191 32.7541C81.4144 32.7043 81.3213 32.6325 81.2458 32.5432C81.0765 32.3604 80.9848 32.1165 80.9907 31.8648C81.0243 31.4996 81.184 31.1585 81.4413 30.9027C81.6986 30.6469 82.0366 30.4931 82.3948 30.4689H82.4106C82.529 30.469 82.6459 30.4952 82.7534 30.5458C82.861 30.5964 82.9566 30.6701 83.0336 30.7619C83.2022 30.9508 83.2934 31.1985 83.2887 31.4541C83.2912 31.6419 83.2519 31.8278 83.1737 31.9977C83.0954 32.1676 82.9804 32.317 82.8372 32.4347C82.5684 32.687 82.218 32.8268 81.853 32.8316ZM80.9975 31.8648C80.9917 32.114 81.0826 32.3553 81.2503 32.5362C81.3251 32.6243 81.4172 32.6951 81.5207 32.744C81.6243 32.7929 81.7367 32.8188 81.8508 32.82C82.2109 32.8134 82.5562 32.6722 82.8214 32.4232C82.9642 32.3067 83.079 32.1584 83.1573 31.9897C83.2355 31.821 83.2751 31.6362 83.2729 31.4495C83.2792 31.1941 83.1886 30.9461 83.0201 30.7573C82.9436 30.6669 82.849 30.5943 82.7427 30.5445C82.6363 30.4948 82.5208 30.469 82.4038 30.4689H82.388C82.0322 30.4925 81.6962 30.6447 81.4402 30.8983C81.1842 31.152 81.0248 31.4905 80.9907 31.8533L80.9975 31.8648ZM54.8304 27.9148C54.183 27.8743 53.5511 27.6957 52.9753 27.3905C52.3995 27.0854 51.8926 26.6603 51.4873 26.1428V26.1289C51.8981 26.0943 52.2096 26.0759 52.4128 26.0759C53.1335 26.0856 53.8495 26.195 54.5415 26.4012C54.709 26.4513 54.8727 26.5138 55.0313 26.5881C55.1567 26.6458 55.2749 26.7187 55.3835 26.805C55.4692 26.8724 55.5413 26.9562 55.5956 27.0518C55.6415 27.1366 55.6656 27.2319 55.6656 27.3287C55.6675 27.417 55.6497 27.5046 55.6137 27.5848C55.5786 27.6587 55.5248 27.7216 55.458 27.7671C55.3788 27.8196 55.2908 27.8564 55.1984 27.8755C55.0776 27.9028 54.9541 27.9159 54.8304 27.9148ZM51.4963 26.1382C51.9007 26.6542 52.4062 27.078 52.9804 27.3824C53.5546 27.6867 54.1848 27.8649 54.8304 27.9055C54.9546 27.9092 55.0788 27.8984 55.2006 27.8732C55.2923 27.854 55.3796 27.8172 55.458 27.7648C55.5237 27.7196 55.5766 27.6575 55.6115 27.5848C55.6471 27.5061 55.6649 27.4201 55.6634 27.3333C55.663 27.238 55.6389 27.1443 55.5934 27.0611C55.5396 26.9664 55.4683 26.8833 55.3835 26.8165C55.2757 26.7303 55.1582 26.6575 55.0336 26.5996C54.8749 26.5253 54.7112 26.4629 54.5437 26.4127C53.8525 26.2067 53.1372 26.0972 52.4173 26.0874C52.2164 26.0874 51.9049 26.1059 51.4986 26.1405L51.4963 26.1382ZM50.6114 23.5771C50.6669 23.1921 50.7476 22.8113 50.853 22.4373C50.964 22.0448 51.0981 21.6595 51.2548 21.2837C51.4222 20.8829 51.6106 20.4916 51.8191 20.1116C52.0336 19.7193 52.2706 19.3202 52.5437 18.9233C52.8169 18.5265 53.1081 18.1227 53.4309 17.7189C53.7537 17.3151 54.1081 16.9068 54.4783 16.5007C54.8485 16.0946 55.2593 15.6793 55.6859 15.2663C56.1126 14.8533 56.5753 14.4334 57.0562 14.0157C57.537 13.6004 58.0155 13.2036 58.4805 12.839C58.9455 12.4745 59.4106 12.1307 59.8598 11.8169C60.309 11.5031 60.7627 11.2124 61.1916 10.9517C61.6205 10.691 62.0584 10.4533 62.4783 10.2433C62.8981 10.0334 63.3135 9.8488 63.7176 9.69191C64.1078 9.53921 64.5057 9.40751 64.9094 9.29737C65.2861 9.19707 65.6682 9.12003 66.0539 9.06664C66.4174 9.01443 66.7839 8.98745 67.151 8.98588H67.3451C68.0963 8.98554 68.8325 9.20143 69.4693 9.60885C69.7384 9.77904 69.9603 10.0168 70.114 10.2995C70.2678 10.5823 70.3481 10.9005 70.3474 11.2239C70.3466 11.47 70.3193 11.7153 70.2661 11.9553C70.2089 12.2133 70.128 12.4651 70.0246 12.7075C69.9095 12.9761 69.7745 13.2353 69.6205 13.4828C69.4463 13.7534 69.2564 14.0131 69.0517 14.2603C68.8259 14.528 68.6002 14.8025 68.3248 15.0794C68.0494 15.3563 67.7582 15.6378 67.4354 15.9192C67.1126 16.2007 66.7582 16.4914 66.3857 16.7822C66.0133 17.0729 65.6024 17.3682 65.1735 17.6659C64.616 18.0166 64.0449 18.358 63.4738 18.6857C62.9027 19.0133 62.318 19.3271 61.7334 19.627C61.1487 19.927 60.5528 20.2154 59.9568 20.49C59.3609 20.7645 58.7514 21.0252 58.151 21.2721C57.5505 21.519 56.9252 21.7543 56.309 21.9643C55.6927 22.1743 55.0629 22.3911 54.4376 22.5827C53.8124 22.7742 53.1735 22.9541 52.5392 23.1179C51.9049 23.2818 51.2593 23.4317 50.6182 23.5794L50.6114 23.5771ZM57.0607 14.0157C56.5799 14.4334 56.1216 14.851 55.695 15.264C55.2683 15.677 54.8598 16.0923 54.4873 16.4984C54.1148 16.9045 53.7604 17.3151 53.4399 17.7166C53.1193 18.1181 52.8214 18.5242 52.555 18.9187C52.2886 19.3132 52.0449 19.7147 51.8304 20.1046C51.6219 20.4847 51.4335 20.876 51.2661 21.2767C51.1094 21.6526 50.9752 22.0379 50.8643 22.4304C50.7599 22.8021 50.68 23.1806 50.625 23.5632C51.2638 23.4294 51.9072 23.2795 52.5392 23.1179C53.1713 22.9564 53.8101 22.7742 54.4376 22.5827C55.0652 22.3911 55.6927 22.1835 56.309 21.9643C56.9252 21.7451 57.546 21.5028 58.151 21.2721C58.7559 21.0414 59.3654 20.7599 59.9568 20.4876C60.5483 20.2154 61.151 19.9247 61.7334 19.627C62.3158 19.3294 62.9027 19.011 63.4738 18.6857C64.0449 18.3603 64.6182 18.0166 65.1735 17.6659C65.6024 17.3682 66.0133 17.0729 66.3857 16.7822C66.7605 16.4914 67.1149 16.2007 67.4354 15.9192C67.7559 15.6378 68.0562 15.3563 68.3248 15.0817C68.5934 14.8071 68.8372 14.5326 69.0517 14.2649C69.2555 14.0116 69.4439 13.7458 69.616 13.4689C69.7699 13.2222 69.9049 12.9638 70.0201 12.696C70.1234 12.4543 70.2043 12.2033 70.2616 11.9461C70.3147 11.7069 70.3419 11.4624 70.3429 11.217C70.3449 10.8938 70.2656 10.5756 70.1127 10.2927C69.9597 10.0099 69.7381 9.77201 69.4693 9.60193C68.8341 9.19465 68.0994 8.97873 67.3496 8.97896H67.1555C66.7884 8.98052 66.4219 9.0075 66.0584 9.05972C65.6728 9.1131 65.2906 9.19015 64.914 9.29044C64.5102 9.40059 64.1124 9.53229 63.7221 9.68499C63.318 9.84188 62.9027 10.0265 62.4828 10.2364C62.0629 10.4464 61.6318 10.684 61.1984 10.9448C60.765 11.2055 60.3157 11.4962 59.8665 11.81C59.4173 12.1238 58.9636 12.4676 58.4873 12.8321C58.011 13.1967 57.5415 13.5935 57.0607 14.0111V14.0157Z" fill="white"/>
<path d="M3.01111 50.3345H104.111V51.1536H3.01111V50.3345Z" fill="#BA3E3E"/>
</svg>
