<svg width="36" height="36" viewBox="0 0 36 36" fill="none" xmlns="http://www.w3.org/2000/svg">
    <circle cx="18" cy="18" r="18" fill="#59D2AF"/>
    <g clip-path="url(#5yl24kf9wa)" fill="#FEFEFE">
        <path d="M18.148 22.033h-1.52c-1.181 0-1.57-.517-1.435-1.689.16-1.377.803-2.48 1.852-3.32.656-.528 1.434-.901 2.148-1.36.602-.39 1.295-.705 1.762-1.221.869-.963.508-2.136-.783-2.845-1.64-.901-3.475-.684-4.86.66-.455.443-.865.935-1.308 1.398-.356.373-.77.39-1.176.078-.721-.554-1.455-1.09-2.16-1.66-.79-.636-.865-1.062-.274-1.877.983-1.365 2.155-2.537 3.72-3.222 1.05-.47 2.136-.82 3.304-.86.246-.008.488-.078.734-.094 2.188-.152 4.102.59 5.844 1.848 1.426 1.033 2.496 2.381 2.832 4.115.516 2.684-.058 4.762-2.689 6.5a48.503 48.503 0 0 1-2.369 1.47c-.47.276-.668.702-.782 1.19-.144.602-.46.877-1.062.885-.59.008-1.184 0-1.774 0l-.004.004zM21.385 26.943c.131 2.135-1.483 3.614-3.537 3.528-1.463-.061-3.118-1.336-3.057-3.565.041-1.418 1.422-3.054 3.234-3.045 1.795.008 3.36 1.446 3.356 3.082h.004z"/>
    </g>
    <defs>
        <clipPath id="5yl24kf9wa">
            <path fill="#fff" transform="translate(10 6)" d="M0 0h17v24.475H0z"/>
        </clipPath>
    </defs>
</svg>
