<svg width="647" height="254" viewBox="0 0 647 254" fill="none" xmlns="http://www.w3.org/2000/svg">
    <g filter="url(#miarqt5o4a)">
        <rect x="14" y="10" width="619" height="226" rx="18" fill="#fff"/>
        <rect x="14.05" y="10.05" width="618.9" height="225.9" rx="17.95" stroke="#FB8C7C" stroke-width=".1"/>
    </g>
    <path d="M518.267 56.618h-7.693c-43.484 0-78.734 35.25-78.734 78.734v1.846c0 43.484 35.25 78.734 78.734 78.734h7.693c43.483 0 78.734-35.25 78.734-78.734v-1.846c0-43.484-35.251-78.734-78.734-78.734z" fill="#A93349" fill-opacity=".2" opacity=".5"/>
    <path d="M535.085 59.47a1.435 1.435 0 0 0-.467-.913 4.325 4.325 0 0 0-2.413-2.666 11.567 11.567 0 0 0-5.546-1.187c-1.434.033-3.567.14-4.847 1.067a6.237 6.237 0 0 0-1.333.386c-2.966 1.227-5.22 3.847-6.899 6.5a40.85 40.85 0 0 0-2.147 3.933 2.06 2.06 0 0 0-.28.047 2.068 2.068 0 0 0-.54-.034 1.764 1.764 0 0 0-1.62 1.207 1.951 1.951 0 0 0-.133.666 5.254 5.254 0 0 0 .4 3.74 7.337 7.337 0 0 0 1.24 2.747c.31.424.774.709 1.293.793.401 1.67.706 3.361.913 5.066a29.368 29.368 0 0 1-.426 2.213c-.78 3.333-1.587 6.893-4.173 9.333-.158.157-.28.346-.36.553a1.333 1.333 0 0 0 0 1.753c.213.3.426.607.666.907a10.67 10.67 0 0 0 7.126 7.333c2.58.729 5.342.438 7.713-.813a1.371 1.371 0 0 0 1.2-.234 12.935 12.935 0 0 0 2.493-2.326 9.086 9.086 0 0 0 3.9-7.2c0-1.186-1.253-1.82-2.227-1.6a18.268 18.268 0 0 1-.453-3.033.67.67 0 0 0 0-.126c.222-.206.388-.465.48-.754.209-.029.414-.087.607-.173a7.278 7.278 0 0 0 2.999-2.373 1.551 1.551 0 0 0 .987-1.08c.047-.16.087-.32.133-.48.058-.063.11-.133.154-.207.993-1.586 1.44-3.566 1.86-5.373.476-2.018.77-4.075.879-6.146a24.796 24.796 0 0 0-.666-7.166 43.421 43.421 0 0 0-.513-4.36zM462.063 107.313a.92.92 0 0 0-.3-.666 29.414 29.414 0 0 1-1.26-5.333 52.674 52.674 0 0 0-2.073-7.606 1.451 1.451 0 0 0-.386-.587 8.322 8.322 0 0 0-1.914-2.806.979.979 0 0 0-.166-.12 2.952 2.952 0 0 1-.087-.347c-.193-.94-1.626-.667-1.646.227a7.85 7.85 0 0 0 1.419 4.733c.02.277.025.555.014.833a.808.808 0 0 0 .12.433c-.127.394-.294.78-.454 1.173a132.91 132.91 0 0 0-10.239-10.805c-1.066-1.04-2.553.266-1.966 1.52a16.59 16.59 0 0 0 2.306 3.492c.38.474.78.927 1.173 1.394h-.093a2.119 2.119 0 0 0-2.113.813c-.413.713-.127 1.753.347 2.746a1.753 1.753 0 0 0-1.707 1.147 2.706 2.706 0 0 0 .4 2.746h-.253a1.275 1.275 0 0 0-.827.74 1.276 1.276 0 0 0 .073 1.107c1.334 1.82 2.607 3.94 4.267 5.5a15.92 15.92 0 0 0 5.139 2.933 26.297 26.297 0 0 1 2.667 2.253 1.18 1.18 0 0 0 .921.367 1.184 1.184 0 0 0 .879-.46l.173-.08a13.27 13.27 0 0 0 2.52-1.84c.426-.407.84-1.04 1.333-1.54.041.073.085.144.133.213.86 1.333 3.034.1 2.16-1.266a10.54 10.54 0 0 1-.56-.914zM579.261 77.543a1.331 1.331 0 0 0-1.526.513c.213-1.153.166-2.806-1.294-3.066a2.158 2.158 0 0 0-1.999.966c-.127-1.86-.594-3.806-2.207-2.84a2.29 2.29 0 0 0-.873 1.534v-.274c.135-2.205.05-4.418-.254-6.606a.753.753 0 0 0-.046-.186c0-.254.053-.5.086-.754.14-1.113-1.633-1.286-1.919-.26a27.329 27.329 0 0 0-.954 5.527v.086c-.162.17-.265.387-.293.62l-.44 3.18a1.545 1.545 0 0 0 0 .167 1.153 1.153 0 0 0-.84-.067c-.087-.547-.2-1.1-.333-1.647-.287-1.113-1.84-.793-1.92.26-.313 4-.24 8.093 1.587 11.766.073.227.153.453.233.667.314 1.24.692 2.464 1.133 3.666.053.329.1.656.14.98l-.12.667a1 1 0 0 0 .527 1.08c.099.099.217.178.346.233a.805.805 0 0 0 .32.246 16.278 16.278 0 0 0 6.16 1.527.91.91 0 0 0 .94-.867.842.842 0 0 0 .246-.44c.32-1.486.727-2.953 1.167-4.406v-.04a39.29 39.29 0 0 0 1.86-3.653.857.857 0 0 0 .12-.2c.033-.08.067-.153.093-.233l.08-.207.1-.26.213-.56c.029-.075.049-.153.06-.233.334-1.025.544-2.085.627-3.16.08-1.093.36-3.286-1.02-3.726zm-5.233 1.873v.08-.08z" fill="#F4F8FB"/>
    <path d="M576.475 95.521s-.887 19.485-3.333 30.384c-2.447 10.899-6.34 12.519-8.4 12.666-1.866.14-5.906-.76-18.898-15.059-.574 12.133-.92 32.618-.54 39.537 0 0 1.726 4.946 1.48 6.186-.247 1.24-.74 2.607-2.214 2.853-1.473.247-22.538 3.22-28.071 2.72-5.533-.5-18.838-3.333-21.425-5.939-2.586-2.607.867-7.926 1.107-10.033.2-1.7.486-21.505.066-32.517-3.239 6.666-8.926 18.145-9.999 19.265-2.286 2.413-6.046 5.186-11.152 0-10.36-10.519-20.092-31.771-20.092-31.771l7.993-6.5s9.699 10 15.852 17.999l8.146-20.958a17.847 17.847 0 0 1 8.066-8.186c3.66-1.747 9.646-4.113 13.112-5.46v.06s-.226 10.952 9.666 11.999c10.253 1.06 12.666-8.08 13.399-11.152l.173-.78c3.387.666 8.9 1.713 10.073 1.96 3.726.78 7.333 4.32 10.113 8.979a126.609 126.609 0 0 0 7.932 11.686l.12.16c.407-1.267.9-2.607 1.5-4 3.76-8.666 6.446-16.372 6.446-16.372s4.607 2.786 8.88 2.273z" fill="#C13A54"/>
    <path d="M518.019 175.308c-.593 0-1.113 0-1.54-.053-5.246-.474-18.878-3.253-21.678-6.066-2.047-2.06-.727-5.52.24-8.047.325-.749.575-1.528.746-2.326.18-1.54.447-19.585.12-30.778-3.873 7.906-8.346 16.832-9.332 17.859-1.24 1.333-3.187 3.046-5.74 3.066h-.04c-1.96 0-4-1.026-5.999-3.059-10.253-10.48-20.039-31.705-20.139-31.925a.437.437 0 0 1 .12-.5l7.94-6.492a.403.403 0 0 1 .56 0c.1.093 9.332 9.606 15.432 17.438l7.866-20.265a18.095 18.095 0 0 1 8.306-8.412c3.706-1.767 9.826-4.187 13.145-5.467a.404.404 0 0 1 .387.047.41.41 0 0 1 .18.34v.06c0 .44-.1 10.592 9.293 11.566 6.666.666 11.159-3.053 12.945-10.833l.174-.78a.419.419 0 0 1 .486-.32c3.407.667 8.9 1.72 10.073 1.96 3.626.76 7.333 4 10.392 9.179 2.135 3.62 4.47 7.119 6.993 10.48l.56.746a43.061 43.061 0 0 1 1.26-3.266c3.706-8.56 6.406-16.272 6.433-16.346a.433.433 0 0 1 .256-.252.424.424 0 0 1 .357.032c.04 0 4.533 2.727 8.613 2.233a.421.421 0 0 1 .466.434c0 .2-.913 19.658-3.333 30.458-2.319 10.385-6.052 12.805-8.779 12.999-1.373.1-4.973.359-18.552-14.453-.54 11.999-.866 31.551-.5 38.424.254.733 1.727 5.08 1.48 6.353-.247 1.273-.78 2.886-2.56 3.18-1.28.193-19.458 2.786-26.631 2.786zm-21.752-49.383h.087a.411.411 0 0 1 .327.393c.433 11.333.133 30.905-.067 32.578-.172.871-.438 1.72-.793 2.533-.934 2.44-2.093 5.48-.427 7.153 2.427 2.446 15.532 5.333 21.158 5.826 5.507.493 26.578-2.486 27.965-2.72.993-.166 1.553-.92 1.873-2.519.167-.82-.806-4.1-1.46-6a.307.307 0 0 1 0-.113c-.386-7.04 0-27.645.54-39.577a.418.418 0 0 1 .727-.26c13.865 15.265 17.399 15.005 18.552 14.925 3.453-.246 6.299-4.666 7.999-12.345 2.18-9.786 3.127-26.765 3.28-29.832-3.48.227-6.993-1.48-8.213-2.146-.666 1.813-3.093 8.559-6.286 15.932a41.356 41.356 0 0 0-1.487 3.96.43.43 0 0 1-.326.286.405.405 0 0 1-.4-.16l-.127-.153c-.226-.327-.533-.733-.913-1.246a112.213 112.213 0 0 1-7.04-10.46c-2.913-4.886-6.499-8.086-9.839-8.786-1.126-.233-6.246-1.226-9.666-1.88l-.086.387c-2.394 10.426-8.853 11.999-13.846 11.473a10.26 10.26 0 0 1-8.886-6.627 16.085 16.085 0 0 1-1.147-5.233c-3.393 1.334-9.039 3.567-12.525 5.233a17.545 17.545 0 0 0-7.893 8l-8.126 20.912a.44.44 0 0 1-.333.266.427.427 0 0 1-.394-.16c-5.499-7.159-13.945-15.999-15.552-17.678l-7.386 6.046c1.213 2.586 10.339 21.678 19.872 31.331 1.833 1.866 3.64 2.813 5.333 2.813h.047c2.233 0 3.999-1.613 5.139-2.807.74-.78 4.353-7.766 9.906-19.165a.435.435 0 0 1 .413-.206v.026z" fill="#CB5068"/>
    <g opacity=".6">
        <mask id="6jb5dmgh2b" style="mask-type:luminance" maskUnits="userSpaceOnUse" x="493" y="96" width="54" height="79">
            <path d="M546.918 168.702c-.247 1.213-.78 2.86-2.553 3.16-1.287.213-19.426 2.76-26.585 2.76-.593 0-1.113 0-1.54-.054-5.233-.466-18.839-3.226-21.632-5.999-2.046-2.04-.726-5.473.24-8 .326-.742.576-1.514.747-2.306.18-1.533.447-19.425.113-30.531v-7.333c-1.333-18.665 13.899-23.258 14.139-23.331a9.34 9.34 0 0 0 7.813 5.173c5.066.519 8.866-1.5 11.179-5.893 2.28.626 18.532 5.879 17.219 28.038l-.1-.107c-.54 11.906-.867 31.331-.5 38.117.24.727 1.713 5.04 1.46 6.306z" fill="#fff"/>
        </mask>
        <g opacity=".7" fill="#F6F7FB" mask="url(#6jb5dmgh2b)">
            <path d="m553.177 172.642-66.582-.58a.284.284 0 0 1-.198-.082.282.282 0 0 1 .198-.478l66.575.58a.287.287 0 0 1 .201.084.274.274 0 0 1 .079.203.274.274 0 0 1-.273.273zM553.204 169.442l-66.575-.58a.292.292 0 0 1-.28-.286.272.272 0 0 1 .173-.255.278.278 0 0 1 .107-.019l66.581.58a.272.272 0 0 1 .196.083.275.275 0 0 1 .077.197.28.28 0 0 1-.279.28zM553.23 166.249l-66.575-.587a.28.28 0 0 1-.28-.28.287.287 0 0 1 .28-.273l66.582.58a.272.272 0 0 1 .254.173.284.284 0 0 1-.063.305.284.284 0 0 1-.198.082zM553.263 163.049l-66.575-.58a.272.272 0 0 1-.254-.173.278.278 0 0 1-.019-.107.273.273 0 0 1 .167-.258.262.262 0 0 1 .106-.022l66.575.587c.066.01.126.044.17.094a.284.284 0 0 1 0 .365.284.284 0 0 1-.17.094zM553.291 159.856l-66.582-.547a.27.27 0 0 1-.273-.28c0-.074.029-.145.082-.197a.276.276 0 0 1 .198-.082l66.575.586a.282.282 0 0 1 .225.064.286.286 0 0 1 .098.213.28.28 0 0 1-.323.276v-.033zM553.317 156.643l-66.582-.58a.262.262 0 0 1-.106-.022.257.257 0 0 1-.089-.061.265.265 0 0 1-.078-.197.288.288 0 0 1 .28-.28l66.575.58a.288.288 0 0 1 .28.287.262.262 0 0 1-.022.106.257.257 0 0 1-.061.089.265.265 0 0 1-.197.078zM553.344 153.47l-66.581-.58a.288.288 0 0 1-.274-.287.28.28 0 0 1 .083-.195.276.276 0 0 1 .197-.078l66.582.58c.036 0 .072.007.106.022a.248.248 0 0 1 .089.061.265.265 0 0 1 .078.197.278.278 0 0 1-.082.198.278.278 0 0 1-.198.082zM553.371 150.277l-66.575-.587a.276.276 0 0 1-.198-.082.28.28 0 0 1-.061-.304.276.276 0 0 1 .152-.148.26.26 0 0 1 .107-.019l66.581.58a.27.27 0 0 1 .273.28.28.28 0 0 1-.279.28zM553.404 147.077l-66.575-.58a.278.278 0 0 1-.198-.082.278.278 0 0 1-.082-.198.282.282 0 0 1 .286-.273l66.575.58c.066.01.127.044.17.094a.285.285 0 0 1 0 .365.281.281 0 0 1-.17.094h-.006zM553.43 143.884l-66.581-.574a.272.272 0 0 1-.255-.173.278.278 0 0 1-.019-.107.276.276 0 0 1 .274-.28l66.574.587a.286.286 0 0 1 .226.064.286.286 0 0 1 .098.213.28.28 0 0 1-.324.276l.007-.006zM553.457 140.691l-66.582-.58a.27.27 0 0 1-.273-.28.28.28 0 0 1 .28-.28l66.575.58a.285.285 0 0 1 .258.393.276.276 0 0 1-.152.148.259.259 0 0 1-.106.019zM553.484 137.498l-66.582-.58a.288.288 0 0 1-.273-.287.28.28 0 0 1 .28-.273l66.581.58a.272.272 0 0 1 .255.173c.013.034.02.07.019.107a.263.263 0 0 1-.022.107.277.277 0 0 1-.258.173zM553.51 134.305l-66.575-.587a.28.28 0 0 1-.258-.386.272.272 0 0 1 .152-.148.276.276 0 0 1 .106-.019l66.582.58c.036 0 .072.007.106.022a.27.27 0 0 1 .167.258.278.278 0 0 1-.082.198.278.278 0 0 1-.198.082zM553.544 131.105l-66.548-.58a.276.276 0 0 1-.225-.064.276.276 0 0 1-.098-.213.272.272 0 0 1 .098-.212.27.27 0 0 1 .225-.064l66.575.58c.066.01.126.043.169.094a.278.278 0 0 1 0 .364.275.275 0 0 1-.169.095h-.027zM553.57 127.912l-66.575-.6a.262.262 0 0 1-.106-.022.273.273 0 0 1-.09-.06.282.282 0 0 1-.077-.198.272.272 0 0 1 .273-.28l66.575.587a.27.27 0 0 1 .225.064.28.28 0 0 1 0 .425.307.307 0 0 1-.105.057.286.286 0 0 1-.12.007v.02zM553.597 124.719l-66.602-.58a.278.278 0 0 1-.196-.082.272.272 0 0 1-.077-.198.28.28 0 0 1 .28-.28l66.575.58a.292.292 0 0 1 .28.287c0 .07-.027.138-.076.188a.27.27 0 0 1-.184.085zM553.657 121.526l-66.582-.58a.274.274 0 0 1-.106-.024.271.271 0 0 1-.148-.155.268.268 0 0 1-.019-.108.278.278 0 0 1 .082-.196.272.272 0 0 1 .198-.077l66.581.58a.272.272 0 0 1 .255.173.284.284 0 0 1-.063.305.284.284 0 0 1-.198.082zM553.657 118.333l-66.575-.587a.276.276 0 0 1-.225-.064.276.276 0 0 1-.098-.213c0-.04.009-.08.025-.117a.281.281 0 0 1 .298-.159l66.581.58a.272.272 0 0 1 .255.173.284.284 0 0 1-.063.305.284.284 0 0 1-.198.082zM553.657 115.133l-66.575-.58a.286.286 0 0 1-.12-.007.281.281 0 0 1-.178-.152.289.289 0 0 1 0-.234.276.276 0 0 1 .073-.096.276.276 0 0 1 .225-.064l66.575.58a.279.279 0 0 1 .169.459.279.279 0 0 1-.169.094zM553.711 111.94l-66.575-.58a.272.272 0 0 1-.196-.083.276.276 0 0 1-.078-.197.278.278 0 0 1 .078-.198.276.276 0 0 1 .196-.082l66.575.586a.28.28 0 0 1 0 .554zM553.737 108.747l-66.582-.58a.262.262 0 0 1-.106-.022.248.248 0 0 1-.089-.061.265.265 0 0 1-.078-.197c0-.074.029-.146.082-.198a.278.278 0 0 1 .198-.082l66.575.58a.292.292 0 0 1 .28.287.277.277 0 0 1-.085.193.279.279 0 0 1-.195.08zM553.763 105.554l-66.581-.58a.283.283 0 0 1-.255-.179.286.286 0 0 1 .064-.304.272.272 0 0 1 .197-.077l66.575.58c.074 0 .146.029.198.082a.28.28 0 0 1-.198.478zM553.791 102.361l-66.575-.587a.286.286 0 0 1-.226-.064.286.286 0 0 1-.097-.213.28.28 0 0 1 .203-.269.27.27 0 0 1 .12-.007l66.581.58a.27.27 0 0 1 .255.173.284.284 0 0 1-.063.305.284.284 0 0 1-.198.082zM553.817 99.167l-66.575-.586a.278.278 0 0 1-.259-.173.281.281 0 0 1 0-.213.272.272 0 0 1 .259-.168l66.581.58a.278.278 0 0 1 .196.083.278.278 0 0 1 .078.198.282.282 0 0 1-.28.28z"/>
        </g>
    </g>
    <path d="M525.659 87.488c-6.353 0-10.479-6.326-10.532-6.406a.346.346 0 1 1 .586-.373 16.374 16.374 0 0 0 4.093 4.133c3.387 2.333 6.906 2.593 10.466.766 8.166-4.2 4.6-26.75 4.566-26.978a.35.35 0 0 1 .06-.26.351.351 0 0 1 .227-.14.352.352 0 0 1 .4.287c.588 4.017.855 8.074.8 12.133-.173 8.485-2.107 13.738-5.753 15.612a10.661 10.661 0 0 1-4.913 1.226zM509.173 91.501a.309.309 0 0 1-.187-.053.346.346 0 0 1-.156-.217.348.348 0 0 1 .05-.263 24.744 24.744 0 0 0 2.826-15.419.352.352 0 0 1 .022-.303.347.347 0 0 1 .541-.075.354.354 0 0 1 .104.285 25.44 25.44 0 0 1-2.907 15.859.337.337 0 0 1-.293.187z" fill="#000"/>
    <path d="M505.454 59.564c.667 4.82 3.64 11.12 3.64 11.12-.76-4.827 4.959-4.78 5.853 1.272 1.706-1.673 1.28-6.866 1.373-6.986 0 0 4.926.933 3.74-7.3 2.279 2.987 8.579 2.727 11.212 1.167 2.547.967 7.853 1.24 10.199-4.233 2.113-7.392-4.159-9.465-7.386-7.699-2.286 1.247-4.893-.373-6.759-1.333a18.126 18.126 0 0 0-10.726-.807c-7.666 1.8-6.373 7.44-6.373 7.44s-5.44 2.533-4.773 7.359z" fill="#000"/>
    <path d="M425.5 103v2.5h54v-3h-2v-3h-2V69l2-.5v-3l-24.5-16h-.5l-25 16v3l1.5.295V99.5h-1.5v3h-2v.5z" fill="#F4F8FB"/>
    <path d="M514.946 72.303h-.113a.367.367 0 0 1-.233-.28c-.314-2.147-1.334-3.746-2.667-4.28a1.806 1.806 0 0 0-1.82.194c-.62.5-.866 1.486-.666 2.706a.35.35 0 0 1-.24.387.342.342 0 0 1-.414-.187c-.126-.253-3.019-6.4-3.673-11.219-.613-4.426 3.673-7.006 4.74-7.573-.147-1.2-.26-5.96 6.666-7.586a18.414 18.414 0 0 1 10.953.827l.613.313c1.753.907 3.94 2.04 5.833 1.007a5.905 5.905 0 0 1 6.293.613c1.139.907 2.853 3.086 1.593 7.486v.04c-2.42 5.64-7.826 5.42-10.493 4.48-2.666 1.46-8.072 1.646-10.772-.574.253 2.727-.2 4.667-1.333 5.767a3.481 3.481 0 0 1-2.52.94v.153c0 1.433 0 5.24-1.467 6.666a.322.322 0 0 1-.28.12zm-3.813-5.426c.361.002.718.072 1.053.206 1.407.554 2.48 2 2.954 4 .846-1.58.826-4.54.813-5.6 0-.573 0-.633.086-.753a.355.355 0 0 1 .34-.126 2.834 2.834 0 0 0 2.32-.734c1.093-1.053 1.447-3.193 1.013-6.18a.356.356 0 0 1 .439-.38c.074.019.14.061.188.12 2.087 2.74 8.179 2.607 10.753 1.08a.339.339 0 0 1 .3 0c2.386.9 7.486 1.22 9.746-3.999.846-2.96.359-5.333-1.334-6.733a5.2 5.2 0 0 0-5.526-.54c-2.22 1.207-4.666-.066-6.486-1l-.593-.306a17.953 17.953 0 0 0-10.493-.774c-7.246 1.7-6.166 6.807-6.113 7.02a.352.352 0 0 1-.193.393c-.053 0-5.2 2.467-4.58 6.973.454 3.333 2.04 7.373 2.953 9.52a2.67 2.67 0 0 1 .934-1.66c.401-.335.904-.52 1.426-.527z" fill="#000"/>
    <path d="M512.773 72.136a.347.347 0 0 1-.34-.353 1.756 1.756 0 0 0-1.334-1.606.342.342 0 0 1-.161-.554.352.352 0 0 1 .239-.123.349.349 0 0 1 .136.016 2.45 2.45 0 0 1 1.78 2.274.35.35 0 0 1-.32.346z" fill="#000"/>
    <path d="M512.606 72.903c-.353 0-.613-.374-.613-.88 0-.507.26-.874.613-.874.354 0 .607.367.607.874 0 .506-.22.88-.607.88zM509.08 70.49s.493 3.68 2.967 5.013c0 0-.42 6.133-.667 7.006 0 0-2.393.76-2.713-2.52-.447-4.573-.347-8.106-1.653-14.386" fill="#000"/>
    <path d="M510.827 82.935a2.286 2.286 0 0 1-1.247-.36 3.264 3.264 0 0 1-1.253-2.553c-.127-1.286-.207-2.513-.287-3.7a71.002 71.002 0 0 0-1.333-10.665.357.357 0 0 1 .277-.33.354.354 0 0 1 .39.183 71.796 71.796 0 0 1 1.333 10.746c.08 1.18.167 2.4.287 3.68a2.616 2.616 0 0 0 .919 2c.344.214.754.295 1.154.226.173-1.08.453-4.82.573-6.52-2.433-1.473-2.933-5.006-2.953-5.159a.35.35 0 0 1 .3-.387.354.354 0 0 1 .393.294c0 .04.5 3.52 2.787 4.753a.362.362 0 0 1 .186.333c0 .247-.433 6.173-.666 7.066a.352.352 0 0 1-.234.247 2.428 2.428 0 0 1-.626.146zM529.465 91.315a.305.305 0 0 1-.153-.034 2.845 2.845 0 0 1-1.427-2.06c-.24-1.026-.14-2.266.207-2.713a.349.349 0 0 1 .487-.06.347.347 0 0 1 .06.487 3.676 3.676 0 0 0-.08 2.133 2.276 2.276 0 0 0 1.066 1.587.351.351 0 0 1 .025.61.337.337 0 0 1-.185.05zM518.326 175.242c-.593 0-1.106 0-1.533-.054-.427-.053-1.007-.1-1.58-.18a.35.35 0 0 1-.256-.516.342.342 0 0 1 .349-.17c.56.073 1.08.133 1.547.173 5.5.487 26.538-2.473 27.924-2.7 1.014-.173 1.607-.96 1.927-2.553.167-.833-.78-3.999-1.46-5.959a.213.213 0 0 1 0-.094c-.46-8.252.12-36.47.947-45.743a.335.335 0 0 1 .237-.306c.044-.014.09-.018.136-.014a.355.355 0 0 1 .32.38c-.82 9.239-1.4 37.331-.947 45.597.24.666 1.72 5.019 1.467 6.273-.253 1.253-.753 2.813-2.493 3.106-1.333.213-19.465 2.76-26.585 2.76zM496.254 138.138a.347.347 0 0 1-.346-.347c-.04-9.066-.26-15.412-.667-17.878a.336.336 0 0 1 .293-.394.36.36 0 0 1 .258.065.362.362 0 0 1 .136.229c.486 3.193.62 11.539.666 17.998a.342.342 0 0 1-.099.247.338.338 0 0 1-.247.1l.006-.02zM482.995 131.765a.355.355 0 0 1-.32-.2c-3.106-6.666-17.892-22.065-19.885-24.125l-7.673 6.24a.356.356 0 0 1-.256.078.344.344 0 0 1-.314-.383.358.358 0 0 1 .041-.131.358.358 0 0 1 .09-.104l7.919-6.446a.347.347 0 0 1 .467 0c.666.706 16.878 17.332 20.245 24.545a.353.353 0 0 1-.167.466.387.387 0 0 1-.147.06zM557.49 124.726a.349.349 0 0 1-.347-.327c-.05-1.475.035-2.953.253-4.413a40.858 40.858 0 0 1 3.087-10.892c3.699-8.493 6.392-16.146 6.419-16.226a.357.357 0 0 1 .213-.213.36.36 0 0 1 .294 0c.046 0 4.546 2.72 8.666 2.226a.346.346 0 0 1 .374.567.352.352 0 0 1-.288.1c-3.686.44-7.519-1.46-8.712-2.113-.6 1.673-3.067 8.459-6.306 15.879-3.667 8.412-3.28 14.919-3.28 14.978a.356.356 0 0 1-.32.374l-.053.06zM491.848 213.425a.352.352 0 0 1-.354-.34c-.553-15.999.247-27.184 1.02-33.771a71.95 71.95 0 0 1 1.833-10.599.346.346 0 0 1 .296-.248.337.337 0 0 1 .134.012.332.332 0 0 1 .208.166.337.337 0 0 1 .029.264 73.902 73.902 0 0 0-1.813 10.519c-.767 6.546-1.54 17.718-1.007 33.637a.352.352 0 0 1-.34.36h-.006zM505.614 180.048l-7.74-.486a.355.355 0 0 1-.327-.374.352.352 0 0 1 .374-.326l7.626.486c.307-.2 1.453-1.073 1.873-3.273a.344.344 0 0 1 .263-.336.34.34 0 0 1 .291.058.353.353 0 0 1 .139.262.36.36 0 0 1-.026.149c-.54 2.847-2.233 3.767-2.307 3.8a.321.321 0 0 1-.166.04zM535.878 180.422a4.278 4.278 0 0 1-2-.267c-.54-.48-1.373-3.193-1.613-4a.345.345 0 0 1 .233-.426.33.33 0 0 1 .267.024.336.336 0 0 1 .167.209 18.074 18.074 0 0 0 1.4 3.68c.473.206 3.746.066 6.666-.2a.352.352 0 0 1 .364.455.347.347 0 0 1-.304.238c-1.753.147-3.733.287-5.18.287zM547.731 209.899a.35.35 0 0 1-.347-.347c0-18.985-1.44-29.331-2.307-33.777a.354.354 0 0 1 .114-.412.35.35 0 0 1 .426.01.353.353 0 0 1 .127.269c.873 4.493 2.34 14.865 2.327 33.91a.346.346 0 0 1-.34.347zM519.96 215.885a.35.35 0 0 1-.241-.101.35.35 0 0 1-.106-.239 449.406 449.406 0 0 1-.08-13.032c-.6-.333-2.347-1.433-2.873-3.22-.607-2.046 1.513-15.399 1.6-15.965a.352.352 0 0 1 .686-.029c.011.044.014.09.007.135-.613 3.827-2.093 14.086-1.627 15.666.54 1.82 2.667 2.88 2.707 2.893a.34.34 0 0 1 .144.127.34.34 0 0 1 .049.186c0 .067-.067 6.493.087 13.219a.36.36 0 0 1-.347.36h-.006z" fill="#000"/>
    <path d="M552.5 67v2H587v-2h-.5v-1.5l-.5-.5h-.5V51l1-.5V49h.5v-2l-1.5-.5-.5-4.5-1.5-3.5L580 34l-5-3-4-.5h-4.5l-4.5 2-3 2.5-3 3.5-1 3-.5 2.5-.5 2.5h-1.5v2l1 .5v1.5l.5.5v14h-.5v2h-1z" fill="#F4F8FB"/>
    <path d="M585.877 51.157c-.003 1.589-.006 3.178-.007 4.767-.002 2.78 0 5.559 0 8.338 0 .104.004.207.007.31l.036.037c.118.003.236.007.355.008.337 0 .405.07.406.417v1.536c.118 0 .227-.002.334 0 .238.007.369.132.37.366.004.659.004 1.318 0 1.976-.002.308-.107.408-.414.408h-7.695c-.322 0-.409-.085-.411-.404-.003-.637-.002-1.274 0-1.91.001-.353.082-.434.423-.436h.277v-1.526c.001-.38.096-.471.484-.472h.314V51.156h-.406c-.274-.002-.39-.118-.391-.407-.003-.496-.001-.992-.002-1.489 0-.028-.005-.056-.009-.102-.124 0-.241-.004-.358.001-.213.008-.323-.114-.326-.304-.008-.718-.007-1.436 0-2.154.003-.226.164-.292.362-.293h1.312c-.033-.378-.047-.741-.101-1.098-.088-.577-.2-1.15-.307-1.724-.026-.14-.068-.28-.108-.417-.135-.46-.136-.45-.616-.445-.525.005-1.053.019-1.577-.015-.847-.053-1.652-.307-2.448-.584-.778-.271-1.55-.558-2.328-.825-.664-.227-1.346-.375-2.053-.307-.247.024-.489.102-.758.16.312.328.504.69.444 1.112-.029.206-.144.448-.3.578-.475.393-1.108.532-1.562.08-.374-.372-.414-1.084.298-1.772-.259-.076-.489-.16-.725-.21-1.085-.226-2.091.031-3.066.5-.651.311-1.303.628-1.976.887-.406.155-.85.23-1.283.292-.384.053-.777.049-1.166.049-.34 0-.681-.03-1.048-.047-.433 1.186-.7 2.444-.682 3.787.388 0 .77.016 1.151-.004.366-.02.532.12.518.523-.021.584-.005 1.17-.005 1.755 0 .404-.073.476-.476.477h-.22c0 .493-.012.971.003 1.45.013.384-.097.562-.532.524-.086-.008-.174-.001-.271-.001v13.466h.371c.329.003.427.098.428.423v1.55c.124 0 .235-.012.342.002.262.034.347.105.35.328.008.696.007 1.392.001 2.088-.003.229-.135.331-.4.332h-7.695c-.324 0-.417-.094-.417-.42l-.001-1.866c0-.409.057-.464.475-.465h.229v-.999c0-.2-.002-.4.001-.6.004-.261.122-.384.389-.397.131-.007.264-.001.406-.001V51.157h-.382c-.289-.001-.412-.123-.413-.417-.002-.517 0-1.034 0-1.58-.121 0-.229.002-.337 0-.278-.005-.365-.084-.365-.354-.004-.688-.003-1.377 0-2.065 0-.21.116-.326.327-.329.385-.005.771-.001 1.19-.001v-.485c.008-.81.119-1.606.252-2.403.156-.933.405-1.838.724-2.724a16.923 16.923 0 0 1 1.661-3.376 16.446 16.446 0 0 1 2.385-2.939 15.825 15.825 0 0 1 3.051-2.333c1.015-.593 2.073-1.088 3.197-1.437.939-.29 1.893-.494 2.869-.623.958-.126 1.916-.094 2.87-.064.705.022 1.406.192 2.109.295.842.122 1.642.395 2.436.685.981.359 1.923.81 2.782 1.399.771.529 1.534 1.084 2.234 1.702 1.278 1.13 2.331 2.455 3.187 3.934a16.479 16.479 0 0 1 1.434 3.226c.272.85.504 1.712.61 2.6.074.614.121 1.231.18 1.847.021.225.044.45.069.696.35 0 .704-.001 1.058 0 .333 0 .431.1.432.433v1.889c0 .333-.098.428-.44.428h-.264v1.453c0 .477-.024.5-.501.5-.089 0-.177.005-.265.008-.012.012-.025.024-.036.037v-.002zm.125 15.406.051-.035V65.22h-5.862v1.328c.024.009.037.018.05.018l5.761-.004zm-26.485-1.323c-.048-.01-.096-.03-.143-.03h-5.572c-.048 0-.096.013-.142.02v1.297l.045.036c.465.002.93.007 1.395.006 1.463-.001 2.925-.005 4.388-.007l.035-.035.001-1.244c.001-.005.005-.01.003-.015-.002-.01-.006-.019-.01-.028zm-5.812-16.074-.045.036v1.312h5.863v-1.312l-.035-.035-5.783-.001zm32.297 0c-.443-.003-.887-.007-1.33-.007l-4.453.008-.036.035v1.312h5.864v-1.312l-.045-.036zm-25.846-2.133c-.592-.002-1.183-.006-1.774-.006l-5.388.006a1.46 1.46 0 0 0-.043.036v1.458h7.248v-1.486l-.043-.008zm26.557 0c-.037-.002-.074-.006-.11-.006h-6.955c-.056 0-.112.01-.161.014v1.484h7.265V47.07l-.039-.036zm-1.444-.631c-.025-.264-.048-.504-.068-.744-.046-.538-.047-1.083-.144-1.61-.15-.811-.334-1.619-.563-2.41a14.413 14.413 0 0 0-1.559-3.496 16.014 16.014 0 0 0-3.294-3.898 16.022 16.022 0 0 0-3.056-2.048c-.829-.428-1.704-.746-2.6-1.011a14.52 14.52 0 0 0-3.019-.544c-.605-.046-1.216-.019-1.824-.004-.423.01-.847.045-1.269.086-.82.08-1.613.288-2.4.52-1.201.357-2.327.884-3.399 1.524a13.909 13.909 0 0 0-2.391 1.792c-.531.499-1.02 1.045-1.505 1.59-.693.777-1.26 1.648-1.754 2.56-.628 1.159-1.141 2.37-1.451 3.654-.152.627-.261 1.266-.374 1.902-.053.3-.073.605-.1.908-.036.405-.063.811-.094 1.226h4.124c.039-.52.035-1.038.125-1.538a20.32 20.32 0 0 1 .487-2.032c.299-1.04.792-1.999 1.391-2.895.521-.779 1.114-1.508 1.838-2.113a33.15 33.15 0 0 1 1.378-1.07c.068-.05.202-.076.273-.043.092.042.218.16.212.235a.496.496 0 0 1-.193.333 10.576 10.576 0 0 0-1.96 1.685 10.127 10.127 0 0 0-1.39 1.897c-.206.366-.395.742-.592 1.115l.03.079c.494 0 .992.04 1.48-.01.521-.055 1.054-.137 1.544-.312.691-.248 1.348-.59 2.018-.897.6-.274 1.22-.496 1.879-.553.866-.074 1.715.016 2.516.395a.362.362 0 0 0 .264-.004c.967-.41 1.95-.398 2.933-.09.771.24 1.532.512 2.293.782 1.177.42 2.359.81 3.635.758.306-.012.613-.001.936-.001-.02-.072-.025-.102-.037-.128-.561-1.242-1.284-2.383-2.27-3.329-.553-.53-1.182-.981-1.783-1.46-.2-.16-.265-.307-.164-.459.094-.14.341-.173.516-.047.378.271.771.528 1.116.837.459.413.915.84 1.305 1.315.474.577.914 1.19 1.302 1.827a9.401 9.401 0 0 1 1.114 2.752c.133.566.246 1.139.333 1.714.052.339.028.688.055 1.032.006.08.079.223.126.224.501.016 1.003.01 1.515.01v-.24c0-.081-.005-.163.001-.244.012-.17.171-.323.323-.316.205.01.301.12.299.34v.453l1.892.001zm-.026 18.187V51.145h-4.249V64.59h4.249zm-30.779-13.45v13.444h4.248V51.14h-4.248zm32.289 16.06h-7.271v1.495h7.271v-1.495zM552.95 68.69h7.265v-1.494h-7.265v1.494zm16.778-27.195c-.273.125-.558.497-.583.744-.005.044.02.095.04.139.126.278.364.24.673.108.216-.093.284-.269.185-.49-.081-.18-.21-.337-.315-.501z" fill="#000"/>
    <path d="M571.889 33.32c.745-.699 1.833-.422 2.386.1.498.47.716 1.031.646 1.701a1.639 1.639 0 0 1-.436.956c-.7.759-1.552 1.328-2.404 1.897-.093.062-.293.074-.38.016-.83-.566-1.678-1.113-2.363-1.86-.658-.717-.688-1.623-.114-2.396.407-.55.945-.867 1.653-.835.383.017.721.151 1.012.422zm2.413 1.57c.022-.492-.19-.84-.561-1.11-.448-.324-1.118-.428-1.538.12-.179.233-.418.23-.606.002-.177-.214-.396-.356-.668-.381-.525-.048-.965.147-1.318.75-.282.48-.199 1.032.169 1.423.59.626 1.288 1.116 1.996 1.596.125.085.203.019.289-.045.518-.386 1.047-.758 1.547-1.167.377-.307.745-.646.69-1.188z" fill="#000"/>
    <path d="M565.134 34.852c-.049-.958.936-2.092 2.165-1.954.481.054.834.326 1.12.69.119.152.08.362-.05.451-.155.105-.359.078-.461-.09-.337-.556-1.103-.515-1.525-.224-.364.25-.59.606-.657 1.034a.988.988 0 0 0 .272.825c.358.371.748.714 1.145 1.046.273.228.586.407.866.626.133.104.23.087.349 0 .159-.115.317-.234.485-.335a.653.653 0 0 1 .315-.104c.084 0 .231.071.238.126.016.117.001.296-.075.357-.297.24-.614.46-.944.652-.105.06-.312.061-.409-.004-.818-.545-1.643-1.087-2.317-1.816-.333-.36-.534-.777-.517-1.28zM567.215 90.522a.338.338 0 0 1-.333-.253 18.952 18.952 0 0 0-1.573-3.72c-2.56-4.793-1.587-9.746-1.12-12.133.053-.293.107-.546.14-.766a.357.357 0 0 1 .293-.287 2.229 2.229 0 0 1 1.653.534c.807.666 1.214 1.946 1.214 3.72 0 1.532.3 1.966.666 2.46a4.72 4.72 0 0 1 .834 2.572.343.343 0 0 1-.028.305.347.347 0 0 1-.639-.231 4.062 4.062 0 0 0-.767-2.254c-.373-.546-.76-1.113-.76-2.86 0-1.54-.34-2.666-.973-3.186a1.55 1.55 0 0 0-.853-.373c-.033.153-.06.32-.1.5-.453 2.3-1.393 7.086 1.06 11.659a20.366 20.366 0 0 1 1.62 3.86.35.35 0 0 1-.24.433l-.094.02zM462.197 107.72a.332.332 0 0 1-.142-.029.34.34 0 0 1-.118-.084c-1.593-1.773-1.76-3.727-1.96-6a21.998 21.998 0 0 0-1.466-6.96c-.88-2.18-3-4.566-3.74-5.332-.727 1.073-.08 2.613.446 3.866.169.38.318.766.447 1.16.387 1.427-.213 5.426-.24 5.6a.358.358 0 0 1-.4.293.357.357 0 0 1-.293-.4c.173-1.113.546-4.24.26-5.333a9.475 9.475 0 0 0-.414-1.08c-.619-1.48-1.466-3.513-.066-4.906a.341.341 0 0 1 .246-.1.3.3 0 0 1 .247.1c.127.126 3.033 3.086 4.16 5.866a22.76 22.76 0 0 1 1.52 7.153c.186 2.226.34 4 1.78 5.586a.356.356 0 0 1-.122.575.36.36 0 0 1-.145.025z" fill="#000"/>
    <path d="M455.378 97.521a.37.37 0 0 1-.26-.113c-.087-.1-8.966-9.68-10-10.54a1.492 1.492 0 0 0-1.693-.22c-.38.327-.06 1.007.16 1.387a78.195 78.195 0 0 0 5.026 6.833l.38.48a.345.345 0 0 1-.06.487.345.345 0 0 1-.486-.054l-.38-.466a80.065 80.065 0 0 1-5.067-6.9c-.806-1.366-.28-2.04 0-2.266a2.16 2.16 0 0 1 2.58.18c1.054.893 9.686 10.206 10.086 10.606a.342.342 0 0 1 .076.38.33.33 0 0 1-.209.191.358.358 0 0 1-.153.015z" fill="#000"/>
    <path d="M449.125 100.081a2.567 2.567 0 0 1-1.507-.6h-.033l-3.333-3.686a2.188 2.188 0 0 1 0-2.807c.933-1 2.266-.467 2.84-.047a.345.345 0 0 1 .073.487.351.351 0 0 1-.227.142.347.347 0 0 1-.26-.062c-.053-.04-1.18-.84-1.92-.047-.739.794 0 1.78.067 1.9l3.333 3.66c.114.087.927.666 1.573.246.647-.42.187-1.333.18-1.333a.36.36 0 0 1 .591-.384.35.35 0 0 1 .076.118c0 .06.613 1.466-.427 2.18a1.599 1.599 0 0 1-1.026.233z" fill="#000"/>
    <path d="M448.105 103.314a2.758 2.758 0 0 1-1.373-.433h-.034l-3.746-3.293a2.2 2.2 0 0 1-.34-2.793c1-1.334 2.806-.614 2.886-.58a.36.36 0 0 1-.266.666c-.054 0-1.387-.546-2.06.353-.673.9.173 1.767.273 1.88l3.713 3.267c.127.073 1 .586 1.593.073.594-.513.04-1.333 0-1.333a.353.353 0 0 1 .263-.522.342.342 0 0 1 .344.175c0 .06.767 1.4-.18 2.22a1.62 1.62 0 0 1-1.073.32z" fill="#000"/>
    <path d="M447.278 105.64a2.453 2.453 0 0 1-.987-.22h-.033l-3.753-2.36a1.998 1.998 0 0 1-.713-2.453c.56-1.093 1.859-1 2.466-.8a.353.353 0 0 1 .22.447.353.353 0 0 1-.44.22c-.053 0-1.2-.38-1.626.453-.427.833.406 1.487.506 1.567l3.713 2.339c.127.054.927.36 1.333-.153.407-.513 0-1.26 0-1.266a.356.356 0 0 1 .14-.474.358.358 0 0 1 .266-.029.353.353 0 0 1 .208.169c.175.315.262.672.252 1.032a2.01 2.01 0 0 1-.312 1.015 1.532 1.532 0 0 1-1.24.513z" fill="#000"/>
    <path d="M454.904 113.76a.358.358 0 0 1-.28-.133c-1.106-1.434-1.213-1.487-2.933-2.394-.72-.38-1.706-.9-3.16-1.726-4.999-2.86-5.646-6.233-5.673-6.38a.346.346 0 0 1 .667-.12s.667 3.213 5.333 5.893c1.44.82 2.42 1.333 3.14 1.713 1.733.92 1.953 1.034 3.159 2.587a.354.354 0 0 1-.06.487.375.375 0 0 1-.193.073zM567.142 77.983h-.046a.346.346 0 0 1-.3-.387c.046-.38 1.18-9.333 1.54-10.666a2.17 2.17 0 0 1 1.999-1.646c.347 0 1.174.273 1.334 1.853a76.618 76.618 0 0 1-.107 8.586v.6a.356.356 0 0 1-.367.327.344.344 0 0 1-.312-.227.339.339 0 0 1-.021-.133l.033-.6c.19-2.827.225-5.662.107-8.493-.04-.44-.173-1.173-.667-1.22-.493-.047-1.093.52-1.26 1.133-.346 1.333-1.513 10.493-1.519 10.586a.359.359 0 0 1-.414.287z" fill="#000"/>
    <path d="M572.522 81.462c-1.234 0-1.574-1.466-1.587-1.526a.248.248 0 0 1 0-.067l-.107-3.766a.358.358 0 0 1 .092-.25.352.352 0 0 1 .495-.018.347.347 0 0 1 .107.248l.106 3.726c.04.16.294.954.907.954.793 0 1.093-.974 1.133-1.114l.58-4.913c0-.146 0-1.38-1.053-1.586-1.053-.207-1.54 1.1-1.54 1.153a.352.352 0 0 1-.56.154.352.352 0 0 1-.123-.238.348.348 0 0 1 .016-.136c.227-.667 1-1.88 2.34-1.613 1.34.266 1.633 1.62 1.607 2.3l-.587 4.953a.092.092 0 0 1 0 .046c0 .067-.42 1.64-1.8 1.667l-.026.026z" fill="#000"/>
    <path d="M575.228 83.496h-.16c-1.253-.114-1.433-1.634-1.44-1.694a.341.341 0 0 1 .026-.304.341.341 0 0 1 .412-.149.352.352 0 0 1 .214.218c.017.05.022.103.015.155 0 0 .126 1.014.813 1.08.687.067 1.213-.82 1.273-.993l1.12-4.82c0-.14.133-1.333-.873-1.686-1.007-.353-1.873.9-1.88.913a.356.356 0 0 1-.461.075.356.356 0 0 1-.151-.2.357.357 0 0 1 .019-.248c.046-.067 1.1-1.713 2.666-1.207a2.184 2.184 0 0 1 1.333 2.467l-1.099 4.88v.04c-.067.073-.567 1.473-1.827 1.473z" fill="#000"/>
    <path d="M577.302 84.915a1.4 1.4 0 0 1-.394-.053c-1.06-.28-1.253-1.546-1.253-1.626a.35.35 0 0 1 .3-.387.36.36 0 0 1 .393.3s.12.88.727 1.04c.607.16 1.113-.547 1.18-.667l1.66-4.06c.04-.126.3-1.16-.5-1.573-.8-.413-1.554.534-1.587.58a.349.349 0 0 1-.56-.413c.374-.52 1.373-1.333 2.467-.787a2.004 2.004 0 0 1 .846 2.414l-1.673 4.1v.04a2.073 2.073 0 0 1-1.606 1.093z" fill="#000"/>
    <path d="M575.655 95.441h-.067a.345.345 0 0 1-.22-.146.342.342 0 0 1-.053-.26c.433-2.207.947-3.82 2.82-7.566 2.44-4.867 1.56-7.166 1.553-7.193a.358.358 0 0 1 .667-.26c.04.106 1.006 2.62-1.574 7.766-1.839 3.673-2.339 5.246-2.766 7.386a.341.341 0 0 1-.36.273zM585.877 51.157l.036-.037-.036.037zM585.913 64.61l-.036-.038.036.038zM559.525 65.283c-.007-.01-.014-.019-.019-.03-.001-.001.007-.008.011-.013.004.01.009.018.011.028.002.004-.002.01-.003.015zM559.488 66.563l.036-.036-.036.036zM586.002 66.563l.051-.036-.051.035z" fill="#000"/>
    <g clip-path="url(#na20g01euc)" fill="#000">
        <path d="M439.78 106.17h-13.85c-.52 0-.93-.41-.93-.93v-2.07c0-.52.41-.93.93-.93h12.86c.22 0 .4.18.4.4 0 .22-.18.4-.4.4h-12.86c-.07 0-.13.05-.13.12v2.07c0 .07.05.12.13.12h13.86c.22 0 .4.18.4.4 0 .22-.18.4-.4.4l-.01.02z"/>
        <path d="M427.42 102.89c-.22 0-.4-.18-.4-.4v-2.3c0-.52.42-.95.95-.95h9.83c.22 0 .4.18.4.4 0 .22-.18.4-.4.4h-9.83c-.08 0-.15.06-.15.15v2.3c0 .22-.18.4-.4.4z"/>
        <path d="M429.66 68.95h-.8V99.5h.8V68.95zM463.08 93.48c-.22 0-.4-.18-.4-.4v-24c0-.22.18-.4.4-.4.22 0 .4.18.4.4v24c0 .22-.18.4-.4.4zM475.56 99.88c-.22 0-.4-.18-.4-.4V68.95c0-.22.18-.4.4-.4.22 0 .4.18.4.4v30.53c0 .22-.18.4-.4.4zM442.08 83.48c-.22 0-.4-.18-.4-.4v-14c0-.22.18-.4.4-.4.22 0 .4.18.4.4v14c0 .22-.18.4-.4.4z"/>
        <path d="M477.23 69.23h-49.44l-.03-.03a.943.943 0 0 1-.75-.92v-2.52c0-.33.17-.63.45-.79l24.65-15.81c.33-.21.75-.21 1.08 0l24.54 15.77c.26.17.43.47.43.78v2.6c0 .52-.41.93-.93.93v-.01zm-49.1-.8h49.1c.07 0 .12-.05.12-.13v-2.6s-.02-.08-.06-.11l-24.53-15.76a.217.217 0 0 0-.22 0l-24.66 15.81s-.07.07-.07.12v2.52c0 .07.06.14.14.14h.18v.01z"/>
        <path d="M477.76 65.86h-50.34c-.22 0-.4-.18-.4-.4 0-.22.18-.4.4-.4h50.34c.22 0 .4.18.4.4 0 .22-.18.4-.4.4zM479.24 106.17h-13.86c-.22 0-.4-.18-.4-.4 0-.22.18-.4.4-.4h13.86c.07 0 .12-.05.12-.12v-2.07c0-.07-.05-.12-.12-.12h-12.86c-.22 0-.4-.18-.4-.4 0-.22.18-.4.4-.4h12.86c.52 0 .93.41.93.93v2.07c0 .52-.41.93-.93.93v-.02z"/>
        <path d="M477.76 102.91c-.22 0-.4-.18-.4-.4v-2.33c0-.08-.06-.15-.15-.15h-9.83c-.22 0-.4-.18-.4-.4 0-.22.18-.4.4-.4h9.83c.52 0 .95.42.95.95v2.33c0 .22-.18.4-.4.4z"/>
    </g>
    <path d="M79.229 53.378c.542.832.79 1.821.705 2.81v10.977h5.95V54.66c-.002-.846-.07-1.692-.204-2.527a6.924 6.924 0 0 0-.838-2.395 4.945 4.945 0 0 0-1.767-1.788 5.683 5.683 0 0 0-2.993-.684 8.6 8.6 0 0 0-4.169.985 7.724 7.724 0 0 0-2.943 2.81 5.133 5.133 0 0 0-.599-1.473 4.402 4.402 0 0 0-1.077-1.197 5.217 5.217 0 0 0-1.584-.818 6.869 6.869 0 0 0-2.14-.295 9.34 9.34 0 0 0-4.296.93 7.062 7.062 0 0 0-2.923 2.717V47.65H55v19.54h5.95V55.986a5.457 5.457 0 0 1 1.655-2.514 3.63 3.63 0 0 1 2.324-.95 2.25 2.25 0 0 1 1.823.873c.542.832.79 1.821.705 2.81v10.977h5.95V55.986a5.891 5.891 0 0 1 1.635-2.478c.336-.304.721-.55 1.14-.725.376-.169.784-.258 1.197-.26a2.26 2.26 0 0 1 1.838.874M176.055 67.404a9.615 9.615 0 0 0 1.416-.246v-5.024a1.399 1.399 0 0 1-.985-.43 2.084 2.084 0 0 1-.276-1.246v-5.021a7.621 7.621 0 0 0-2.421-6.105 10.19 10.19 0 0 0-6.851-2.085c-1.5-.008-2.992.206-4.429.635a15.598 15.598 0 0 0-4.021 1.901l1.746 3.718a15.057 15.057 0 0 1 3.049-1.62 8.869 8.869 0 0 1 3.05-.541c2.605 0 3.907 1.128 3.907 3.386v.894a7.742 7.742 0 0 0-2.014-.612 13.535 13.535 0 0 0-2.381-.204 11.046 11.046 0 0 0-3.386.486 8.499 8.499 0 0 0-2.64 1.337 6.002 6.002 0 0 0-1.732 2.052 5.644 5.644 0 0 0-.613 2.64c-.01.852.165 1.695.513 2.472a6.148 6.148 0 0 0 1.416 1.972 6.261 6.261 0 0 0 2.141 1.303 7.659 7.659 0 0 0 2.697.465 8.443 8.443 0 0 0 3.817-.894 8.846 8.846 0 0 0 3.106-2.566l.113.895c.113.729.497 1.388 1.077 1.845.75.484 1.637.713 2.528.655.359 0 .745-.02 1.167-.056m-5.814-6.795a1.856 1.856 0 0 1-.855 1.416 4.357 4.357 0 0 1-1.507.895 5.346 5.346 0 0 1-1.881.342 3.117 3.117 0 0 1-2.084-.684 2.182 2.182 0 0 1-.818-1.767 2.275 2.275 0 0 1 1.064-1.936c.8-.522 1.743-.78 2.697-.739a9.673 9.673 0 0 1 1.689.171 10.25 10.25 0 0 1 1.697.466l-.002 1.836zM124.478 56.181V67.16h5.949V54.66a16.175 16.175 0 0 0-.203-2.535 6.989 6.989 0 0 0-.838-2.394 4.956 4.956 0 0 0-1.789-1.788 5.902 5.902 0 0 0-3.049-.684 10.419 10.419 0 0 0-4.542.95 7.158 7.158 0 0 0-3.05 2.697v-3.275h-5.357v19.533h5.956V55.976c.171-.494.415-.96.725-1.38a5.412 5.412 0 0 1 1.064-1.098c.373-.296.785-.54 1.224-.725.401-.17.832-.259 1.267-.26a2.37 2.37 0 0 1 1.916.874c.554.827.809 1.818.725 2.81M152.833 67.461c.342 0 .718-.02 1.113-.056.476-.052.949-.131 1.416-.24v-5.02a1.412 1.412 0 0 1-.987-.43 2.04 2.04 0 0 1-.282-1.247V40h-5.951v10.83a6.62 6.62 0 0 0-2.548-2.604 7.266 7.266 0 0 0-3.704-.972 7.737 7.737 0 0 0-3.479.782 8.536 8.536 0 0 0-2.736 2.14 9.755 9.755 0 0 0-1.789 3.226 12.318 12.318 0 0 0-.634 3.985 11.414 11.414 0 0 0 .684 4.034 10.229 10.229 0 0 0 1.915 3.218 8.54 8.54 0 0 0 2.923 2.142 8.946 8.946 0 0 0 3.704.76 8.188 8.188 0 0 0 3.781-.894 6.621 6.621 0 0 0 2.81-2.717l.113 1.007a2.51 2.51 0 0 0 1.113 1.881 4.593 4.593 0 0 0 2.534.648m-4.655-7.668a4.653 4.653 0 0 1-1.732 1.992 4.327 4.327 0 0 1-2.358.726 4.646 4.646 0 0 1-1.881-.373 4.198 4.198 0 0 1-1.486-1.042 4.89 4.89 0 0 1-.972-1.599 5.606 5.606 0 0 1-.352-2.014 6.062 6.062 0 0 1 .316-1.972c.198-.6.509-1.157.915-1.64.386-.466.86-.85 1.394-1.134a3.684 3.684 0 0 1 1.767-.43c.943.02 1.853.355 2.584.952a5.321 5.321 0 0 1 1.802 2.437l.003 4.097zM102.249 64.073l.112.895c.113.729.498 1.388 1.078 1.845a4.12 4.12 0 0 0 2.527.648c.353 0 .732-.02 1.155-.056.477-.048.95-.128 1.416-.24v-5.024a1.41 1.41 0 0 1-.985-.43 2.079 2.079 0 0 1-.283-1.246v-5.021a7.625 7.625 0 0 0-2.414-6.105 10.184 10.184 0 0 0-6.84-2.085 15.21 15.21 0 0 0-4.43.635 15.58 15.58 0 0 0-4.02 1.901l1.746 3.725a14.715 14.715 0 0 1 3.049-1.62 8.86 8.86 0 0 1 3.049-.542c2.605 0 3.907 1.129 3.907 3.386v.903a7.74 7.74 0 0 0-2.014-.612 13.53 13.53 0 0 0-2.38-.203 11.044 11.044 0 0 0-3.387.485 8.499 8.499 0 0 0-2.64 1.338 6.083 6.083 0 0 0-1.732 2.052 5.643 5.643 0 0 0-.613 2.64 5.86 5.86 0 0 0 .513 2.471 6.146 6.146 0 0 0 1.416 1.972 6.364 6.364 0 0 0 2.142 1.303 7.625 7.625 0 0 0 2.696.465 8.415 8.415 0 0 0 3.81-.894 8.936 8.936 0 0 0 3.12-2.577m-.922-3.465a1.868 1.868 0 0 1-.855 1.416c-.437.397-.95.701-1.507.894a5.378 5.378 0 0 1-1.88.342 3.155 3.155 0 0 1-2.085-.684 2.222 2.222 0 0 1-.818-1.766 2.276 2.276 0 0 1 1.064-1.936c.8-.52 1.742-.781 2.697-.746.569.008 1.137.065 1.696.171.578.107 1.145.262 1.697.465v1.829l-.009.015zM198.736 50.175a8.809 8.809 0 0 0-2.866-2.134 8.372 8.372 0 0 0-3.628-.781 7.572 7.572 0 0 0-3.851.93 7.839 7.839 0 0 0-2.697 2.604v-3.162h-5.174v27.462h5.949V63.997a6.388 6.388 0 0 0 2.528 2.604 7.734 7.734 0 0 0 3.873.93 7.435 7.435 0 0 0 3.388-.788 8.077 8.077 0 0 0 2.676-2.141 10.24 10.24 0 0 0 1.753-3.219c.432-1.308.646-2.678.634-4.056a11.329 11.329 0 0 0-.684-3.964 10.057 10.057 0 0 0-1.894-3.196m-3.804 9.111a5.056 5.056 0 0 1-.908 1.656 4.735 4.735 0 0 1-1.393 1.134 3.69 3.69 0 0 1-1.769.429 4.004 4.004 0 0 1-2.591-1.008 6.123 6.123 0 0 1-1.802-2.493v-4.02a4.69 4.69 0 0 1 1.732-1.952 4.331 4.331 0 0 1 2.359-.725 4.646 4.646 0 0 1 1.881.373c.565.235 1.072.59 1.486 1.042.417.463.744 1 .964 1.583.244.636.363 1.312.353 1.992a5.811 5.811 0 0 1-.31 1.979M208.769 67.066a5.814 5.814 0 0 0 1.881 1.317c.761.331 1.584.499 2.414.492a6.159 6.159 0 0 0 3.106-.824 4.706 4.706 0 0 0 1.127-.915c.317-.347.57-.748.747-1.183l-1.915-.585a1.967 1.967 0 0 1-.451.704 3.598 3.598 0 0 1-1.64.956 3.538 3.538 0 0 1-1.015.147 3.488 3.488 0 0 1-1.506-.342 3.861 3.861 0 0 1-1.224-.93 4.713 4.713 0 0 1-1.148-3.11 4.755 4.755 0 0 1 .303-1.71 4.43 4.43 0 0 1 .817-1.36 3.628 3.628 0 0 1 2.746-1.232 3.54 3.54 0 0 1 1.789.459c.529.302.963.745 1.254 1.28l1.915-.605a4.99 4.99 0 0 0-1.908-2.062 5.619 5.619 0 0 0-3.007-.768 5.832 5.832 0 0 0-4.289 1.767 5.638 5.638 0 0 0-1.197 1.915 6.387 6.387 0 0 0-.422 2.324c-.008.798.141 1.59.436 2.33a5.57 5.57 0 0 0 1.197 1.944M241.321 68.651h1.965V61.64a4.773 4.773 0 0 1 1.353-2.224 3.131 3.131 0 0 1 2.155-.854 1.961 1.961 0 0 1 1.752.873c.454.826.66 1.765.592 2.704v6.52h1.965v-6.963a9.524 9.524 0 0 0-.183-1.942 4.73 4.73 0 0 0-.578-1.55 2.774 2.774 0 0 0-1.084-1.026 3.57 3.57 0 0 0-1.683-.373 4.869 4.869 0 0 0-4.446 2.83 3.406 3.406 0 0 0-1.064-2.041 3.316 3.316 0 0 0-2.331-.796 4.785 4.785 0 0 0-2.565.705 5.264 5.264 0 0 0-1.852 2v-2.501h-1.791v11.653h1.965V61.62a4.516 4.516 0 0 1 1.36-2.223 3.215 3.215 0 0 1 2.139-.838 1.96 1.96 0 0 1 1.739.855c.453.83.654 1.775.579 2.717v6.52h.013zM204.884 66.151h-1.655v2.5h1.655v-2.5zM229.499 58.61a5.778 5.778 0 0 0-4.253-1.81 5.723 5.723 0 0 0-4.232 1.81 5.92 5.92 0 0 0-1.198 1.915 6.503 6.503 0 0 0 0 4.626c.272.71.678 1.36 1.198 1.915a5.95 5.95 0 0 0 6.647 1.317 5.803 5.803 0 0 0 3.078-3.232 6.268 6.268 0 0 0 .422-2.302 6.084 6.084 0 0 0-.436-2.324 5.76 5.76 0 0 0-1.197-1.916m-.669 5.923c-.187.51-.471.978-.837 1.38-.348.389-.769.705-1.24.93a3.53 3.53 0 0 1-3.014 0 3.8 3.8 0 0 1-1.225-.915 4.208 4.208 0 0 1-.825-1.36 4.68 4.68 0 0 1-.303-1.696 4.754 4.754 0 0 1 .303-1.71c.188-.509.468-.979.825-1.387a4.085 4.085 0 0 1 1.225-.937 3.5 3.5 0 0 1 3.014 0c.471.225.892.54 1.24.93.366.404.65.875.837 1.387.202.538.304 1.108.303 1.683a4.87 4.87 0 0 1-.303 1.71" fill="#C13A54"/>
    <mask id="x7feveli7d" style="mask-type:luminance" maskUnits="userSpaceOnUse" x="57" y="102" width="12" height="10">
        <path d="M68.524 102.001H57.682v9.03h10.842v-9.03z" fill="#fff"/>
    </mask>
    <g mask="url(#x7feveli7d)">
        <path d="m57.682 106.418.857-.821 2.566 1.638c.046-.051.087-.094.126-.14a26.96 26.96 0 0 1 3.907-3.788c.558-.44 1.158-.823 1.742-1.227a.527.527 0 0 1 .27-.074c.406-.007.822 0 1.232 0h.146c-.012.024-.015.037-.023.045a23.196 23.196 0 0 0-3.355 3.415 54.59 54.59 0 0 0-3.947 5.467c-.018.029-.04.056-.068.098-1.068-1.606-2.276-3.112-3.453-4.613z" fill="#777"/>
    </g>
    <path d="M83.843 112.094h-1.746V99.197h1.746v12.897zm3.738 0v-9.117h.954c.228 0 .372.111.432.333l.126.99a5.155 5.155 0 0 1 1.323-1.062c.492-.27 1.059-.405 1.7-.405.499 0 .937.084 1.315.252.384.162.702.396.954.702.258.3.453.663.585 1.089.132.426.198.897.198 1.413v5.805h-1.602v-5.805c0-.69-.16-1.224-.477-1.602-.312-.384-.792-.576-1.44-.576-.474 0-.918.114-1.332.342a4.403 4.403 0 0 0-1.134.927v6.714H87.58zm16.959 0c-.228 0-.372-.111-.432-.333l-.144-1.107c-.39.474-.837.855-1.341 1.143-.498.282-1.071.423-1.719.423-.522 0-.996-.099-1.422-.297a2.991 2.991 0 0 1-1.09-.891c-.3-.39-.53-.876-.692-1.458-.163-.582-.243-1.251-.243-2.007 0-.672.09-1.296.27-1.872.18-.582.438-1.086.773-1.512a3.645 3.645 0 0 1 1.243-.999c.486-.246 1.038-.369 1.656-.369.558 0 1.035.096 1.431.288.396.186.75.45 1.062.792v-5.058h1.602v13.257h-.954zm-3.105-1.17c.522 0 .978-.12 1.368-.36.396-.24.759-.579 1.089-1.017v-4.41c-.294-.396-.618-.672-.972-.828a2.718 2.718 0 0 0-1.161-.243c-.852 0-1.506.303-1.963.909-.456.606-.684 1.47-.684 2.592 0 .594.052 1.104.154 1.53.102.42.251.768.45 1.044.198.27.441.468.729.594.288.126.618.189.99.189zm9.064-7.947v9.117h-1.602v-9.117h1.602zm.36-2.862c0 .156-.033.303-.099.441-.06.132-.144.252-.252.36a1.154 1.154 0 0 1-.36.243c-.138.06-.285.09-.441.09-.156 0-.303-.03-.441-.09a1.313 1.313 0 0 1-.36-.243 1.313 1.313 0 0 1-.243-.36 1.094 1.094 0 0 1-.09-.441c0-.156.03-.303.09-.441.06-.144.141-.267.243-.37a1.094 1.094 0 0 1 .801-.342 1.094 1.094 0 0 1 .801.343c.108.102.192.225.252.369.066.138.099.285.099.441zm9.7 11.979h-.711a.849.849 0 0 1-.378-.072c-.096-.048-.159-.15-.189-.306l-.18-.846c-.24.216-.474.411-.702.585a4.402 4.402 0 0 1-.72.432 3.877 3.877 0 0 1-.81.261c-.282.06-.597.09-.945.09a3.38 3.38 0 0 1-.999-.144 2.33 2.33 0 0 1-.801-.45 2.179 2.179 0 0 1-.549-.747 2.711 2.711 0 0 1-.198-1.08c0-.36.099-.705.297-1.035.198-.336.516-.633.954-.891.444-.258 1.023-.468 1.737-.63.714-.168 1.587-.264 2.619-.288v-.711c0-.708-.153-1.242-.459-1.602-.3-.366-.747-.549-1.341-.549-.39 0-.72.051-.99.153a3.546 3.546 0 0 0-.693.333c-.192.12-.36.231-.504.333a.721.721 0 0 1-.414.144.52.52 0 0 1-.288-.081.723.723 0 0 1-.189-.216l-.288-.513a5.206 5.206 0 0 1 1.629-1.089 5.03 5.03 0 0 1 1.935-.36c.51 0 .963.084 1.359.252.396.168.729.402.999.702.27.3.474.663.612 1.089.138.426.207.894.207 1.404v5.832zm-4.158-.981c.282 0 .54-.027.774-.081.234-.06.453-.141.657-.243.21-.108.408-.237.594-.387a4.91 4.91 0 0 0 .558-.513v-1.899c-.738.024-1.365.084-1.881.18-.516.09-.936.21-1.26.36-.324.15-.561.327-.711.531a1.158 1.158 0 0 0-.216.684c0 .24.039.447.117.621.078.174.183.318.315.432.132.108.288.189.468.243.18.048.375.072.585.072zM124 98.522a3.293 3.293 0 0 1 .495 1.728 3.24 3.24 0 0 1-.405 1.566 4.864 4.864 0 0 1-1.107 1.359l-.495-.306a.26.26 0 0 1-.099-.099.34.34 0 0 1-.018-.108c0-.084.03-.156.09-.216.096-.114.189-.237.279-.369.09-.138.171-.279.243-.423.072-.15.129-.306.171-.468a2.037 2.037 0 0 0-.027-1.107 2.502 2.502 0 0 0-.288-.648.366.366 0 0 1-.063-.198c0-.144.081-.25.243-.315l.981-.396zm8.45 5.958a.355.355 0 0 1-.333.198.627.627 0 0 1-.306-.099 5.385 5.385 0 0 0-.423-.216 3.227 3.227 0 0 0-.585-.225 2.702 2.702 0 0 0-.81-.108c-.27 0-.513.036-.729.108a1.739 1.739 0 0 0-.558.279c-.15.12-.267.261-.351.423a1.13 1.13 0 0 0-.117.513c0 .234.066.429.198.585.138.156.318.291.54.405.222.114.474.216.756.306.282.084.57.177.864.279.3.096.591.204.873.324.282.12.534.27.756.45.222.18.399.402.531.666.138.258.207.57.207.936 0 .42-.075.81-.225 1.17-.15.354-.372.663-.666.927a3.255 3.255 0 0 1-1.08.612c-.426.15-.918.225-1.476.225a4.664 4.664 0 0 1-1.728-.306 4.45 4.45 0 0 1-1.314-.801l.378-.612a.55.55 0 0 1 .171-.18.48.48 0 0 1 .261-.063c.108 0 .222.042.342.126.12.084.264.177.432.279.174.102.381.195.621.279.246.084.552.126.918.126.312 0 .585-.039.819-.117.234-.084.429-.195.585-.333.156-.138.27-.297.342-.477.078-.18.117-.372.117-.576a.924.924 0 0 0-.207-.621 1.579 1.579 0 0 0-.531-.423 3.91 3.91 0 0 0-.765-.306l-.873-.279a11.76 11.76 0 0 1-.873-.324 3.205 3.205 0 0 1-.756-.468 2.168 2.168 0 0 1-.54-.684c-.132-.276-.198-.609-.198-.999 0-.348.072-.681.216-.999.144-.324.354-.606.63-.846a3.058 3.058 0 0 1 1.017-.585 4.07 4.07 0 0 1 1.377-.216c.6 0 1.137.096 1.611.288.48.186.894.444 1.242.774l-.36.585zm8.927-5.643v13.257h-1.602V98.837h1.602zm10.059 13.257h-.711a.849.849 0 0 1-.378-.072c-.096-.048-.159-.15-.189-.306l-.18-.846c-.24.216-.474.411-.702.585a4.402 4.402 0 0 1-.72.432 3.877 3.877 0 0 1-.81.261c-.282.06-.597.09-.945.09a3.38 3.38 0 0 1-.999-.144 2.33 2.33 0 0 1-.801-.45 2.179 2.179 0 0 1-.549-.747 2.711 2.711 0 0 1-.198-1.08c0-.36.099-.705.297-1.035.198-.336.516-.633.954-.891.444-.258 1.023-.468 1.737-.63.714-.168 1.587-.264 2.619-.288v-.711c0-.708-.153-1.242-.459-1.602-.3-.366-.747-.549-1.341-.549-.39 0-.72.051-.99.153a3.546 3.546 0 0 0-.693.333c-.192.12-.36.231-.504.333a.721.721 0 0 1-.414.144.52.52 0 0 1-.288-.081.723.723 0 0 1-.189-.216l-.288-.513a5.206 5.206 0 0 1 1.629-1.089 5.03 5.03 0 0 1 1.935-.36c.51 0 .963.084 1.359.252.396.168.729.402.999.702.27.3.474.663.612 1.089.138.426.207.894.207 1.404v5.832zm-4.158-.981c.282 0 .54-.027.774-.081.234-.06.453-.141.657-.243.21-.108.408-.237.594-.387a4.91 4.91 0 0 0 .558-.513v-1.899c-.738.024-1.365.084-1.881.18-.516.09-.936.21-1.26.36-.324.15-.561.327-.711.531a1.158 1.158 0 0 0-.216.684c0 .24.039.447.117.621.078.174.183.318.315.432.132.108.288.189.468.243.18.048.375.072.585.072zm7.125.981v-9.117h.918c.174 0 .294.033.36.099s.111.18.135.342l.108 1.422c.312-.636.696-1.131 1.152-1.485a2.56 2.56 0 0 1 1.62-.54c.252 0 .48.03.684.09.204.054.393.132.567.234l-.207 1.197c-.042.15-.135.225-.279.225-.084 0-.213-.027-.387-.081-.174-.06-.417-.09-.729-.09-.558 0-1.026.162-1.404.486-.372.324-.684.795-.936 1.413v5.805h-1.602zm10.869-9.27c.396 0 .765.045 1.107.135.348.084.663.21.945.378h2.475v.594c0 .198-.126.324-.378.378l-1.035.144c.204.39.306.825.306 1.305 0 .444-.087.849-.261 1.215-.168.36-.405.669-.711.927-.3.258-.66.456-1.08.594-.414.138-.87.207-1.368.207-.426 0-.828-.051-1.206-.153a1.58 1.58 0 0 0-.441.387.71.71 0 0 0-.144.405c0 .216.087.381.261.495.174.108.405.186.693.234.288.048.615.078.981.09.366.012.738.033 1.116.063.384.024.759.069 1.125.135s.693.174.981.324c.288.15.519.357.693.621.174.264.261.606.261 1.026 0 .39-.099.768-.297 1.134a2.97 2.97 0 0 1-.837.972 4.21 4.21 0 0 1-1.341.684c-.528.174-1.125.261-1.791.261-.666 0-1.251-.066-1.755-.198-.498-.132-.912-.309-1.242-.531a2.343 2.343 0 0 1-.747-.774 1.827 1.827 0 0 1-.243-.909c0-.45.141-.831.423-1.143.288-.318.681-.57 1.179-.756a1.67 1.67 0 0 1-.621-.477c-.15-.204-.225-.474-.225-.81 0-.132.024-.267.072-.405a1.66 1.66 0 0 1 .216-.423c.102-.138.225-.27.369-.396a2.37 2.37 0 0 1 .504-.333 2.886 2.886 0 0 1-1.062-.999c-.252-.42-.378-.909-.378-1.467 0-.444.084-.846.252-1.206a2.67 2.67 0 0 1 .72-.927 3.235 3.235 0 0 1 1.089-.594 4.505 4.505 0 0 1 1.395-.207zm2.844 9.765c0-.228-.063-.411-.189-.549a1.185 1.185 0 0 0-.513-.315 3.517 3.517 0 0 0-.747-.171c-.282-.036-.579-.06-.891-.072l-.954-.054a8.777 8.777 0 0 1-.927-.099c-.342.162-.621.36-.837.594a1.21 1.21 0 0 0-.315.837c0 .204.051.393.153.567.108.18.27.333.486.459.216.132.486.234.81.306.33.078.717.117 1.161.117.432 0 .819-.039 1.161-.117.342-.078.63-.189.864-.333.24-.144.423-.315.549-.513.126-.198.189-.417.189-.657zm-2.844-4.95c.324 0 .609-.045.855-.135.252-.09.462-.216.63-.378.168-.162.294-.354.378-.576.084-.228.126-.477.126-.747 0-.558-.171-1.002-.513-1.332-.336-.33-.828-.495-1.476-.495-.642 0-1.134.165-1.476.495-.336.33-.504.774-.504 1.332 0 .27.042.519.126.747a1.653 1.653 0 0 0 1.008.954c.246.09.528.135.846.135zm10.274-4.806c.546 0 1.05.093 1.512.279.462.18.861.444 1.197.792.336.342.597.768.783 1.278.192.504.288 1.08.288 1.728 0 .252-.027.42-.081.504-.054.084-.156.126-.306.126h-6.066c.012.576.09 1.077.234 1.503.144.426.342.783.594 1.071.252.282.552.495.9.639a3.15 3.15 0 0 0 1.17.207c.402 0 .747-.045 1.035-.135a5.184 5.184 0 0 0 1.278-.603c.144-.096.267-.144.369-.144.132 0 .234.051.306.153l.45.585a3.13 3.13 0 0 1-.711.63 4.533 4.533 0 0 1-.891.432 5.255 5.255 0 0 1-.972.252c-.336.06-.669.09-.999.09a4.73 4.73 0 0 1-1.746-.315 3.954 3.954 0 0 1-1.377-.936 4.378 4.378 0 0 1-.9-1.53c-.216-.606-.324-1.302-.324-2.088 0-.636.096-1.23.288-1.782.198-.552.48-1.029.846-1.431a3.797 3.797 0 0 1 1.341-.954c.528-.234 1.122-.351 1.782-.351zm.036 1.179c-.774 0-1.383.225-1.827.675-.444.444-.72 1.062-.828 1.854h4.959c0-.372-.051-.711-.153-1.017a2.225 2.225 0 0 0-.45-.801 1.937 1.937 0 0 0-.729-.522 2.361 2.361 0 0 0-.972-.189zm11.554.468a.355.355 0 0 1-.333.198.627.627 0 0 1-.306-.099 5.385 5.385 0 0 0-.423-.216 3.227 3.227 0 0 0-.585-.225 2.702 2.702 0 0 0-.81-.108c-.27 0-.513.036-.729.108a1.739 1.739 0 0 0-.558.279c-.15.12-.267.261-.351.423a1.13 1.13 0 0 0-.117.513c0 .234.066.429.198.585.138.156.318.291.54.405.222.114.474.216.756.306.282.084.57.177.864.279.3.096.591.204.873.324.282.12.534.27.756.45.222.18.399.402.531.666.138.258.207.57.207.936 0 .42-.075.81-.225 1.17-.15.354-.372.663-.666.927a3.255 3.255 0 0 1-1.08.612c-.426.15-.918.225-1.476.225a4.664 4.664 0 0 1-1.728-.306 4.45 4.45 0 0 1-1.314-.801l.378-.612a.55.55 0 0 1 .171-.18.48.48 0 0 1 .261-.063c.108 0 .222.042.342.126.12.084.264.177.432.279.174.102.381.195.621.279.246.084.552.126.918.126.312 0 .585-.039.819-.117.234-.084.429-.195.585-.333.156-.138.27-.297.342-.477.078-.18.117-.372.117-.576a.924.924 0 0 0-.207-.621 1.579 1.579 0 0 0-.531-.423 3.91 3.91 0 0 0-.765-.306l-.873-.279a11.76 11.76 0 0 1-.873-.324 3.205 3.205 0 0 1-.756-.468 2.168 2.168 0 0 1-.54-.684c-.132-.276-.198-.609-.198-.999 0-.348.072-.681.216-.999.144-.324.354-.606.63-.846a3.058 3.058 0 0 1 1.017-.585 4.07 4.07 0 0 1 1.377-.216c.6 0 1.137.096 1.611.288.48.186.894.444 1.242.774l-.36.585zm5.888 7.758c-.72 0-1.275-.201-1.665-.603-.384-.402-.576-.981-.576-1.737v-5.58h-1.098a.371.371 0 0 1-.243-.081c-.066-.06-.099-.15-.099-.27v-.639l1.494-.189.369-2.817a.323.323 0 0 1 .117-.216.36.36 0 0 1 .252-.09h.81v3.141h2.61v1.161h-2.61v5.472c0 .384.093.669.279.855a.974.974 0 0 0 .72.279c.168 0 .312-.021.432-.063.126-.048.234-.099.324-.153.09-.054.165-.102.225-.144.066-.048.123-.072.171-.072.084 0 .159.051.225.153l.468.765a3.043 3.043 0 0 1-.999.612c-.39.144-.792.216-1.206.216zm7.36-9.261h1.314c.126 0 .231.033.315.099a.561.561 0 0 1 .18.234l2.313 5.868c.084.216.15.432.198.648.048.216.093.429.135.639.048-.21.099-.423.153-.639.054-.216.123-.432.207-.648l2.34-5.868a.518.518 0 0 1 .171-.234.48.48 0 0 1 .306-.099h1.251l-3.717 9.117h-1.449l-3.717-9.117zm14.283-.144c.546 0 1.05.093 1.512.279.462.18.861.444 1.197.792.336.342.597.768.783 1.278.192.504.288 1.08.288 1.728 0 .252-.027.42-.081.504-.054.084-.156.126-.306.126h-6.066c.012.576.09 1.077.234 1.503.144.426.342.783.594 1.071.252.282.552.495.9.639a3.15 3.15 0 0 0 1.17.207c.402 0 .747-.045 1.035-.135a5.184 5.184 0 0 0 1.278-.603c.144-.096.267-.144.369-.144.132 0 .234.051.306.153l.45.585a3.13 3.13 0 0 1-.711.63 4.533 4.533 0 0 1-.891.432 5.255 5.255 0 0 1-.972.252c-.336.06-.669.09-.999.09a4.73 4.73 0 0 1-1.746-.315 3.954 3.954 0 0 1-1.377-.936 4.378 4.378 0 0 1-.9-1.53c-.216-.606-.324-1.302-.324-2.088 0-.636.096-1.23.288-1.782.198-.552.48-1.029.846-1.431a3.797 3.797 0 0 1 1.341-.954c.528-.234 1.122-.351 1.782-.351zm.036 1.179c-.774 0-1.383.225-1.827.675-.444.444-.72 1.062-.828 1.854h4.959c0-.372-.051-.711-.153-1.017a2.225 2.225 0 0 0-.45-.801 1.937 1.937 0 0 0-.729-.522 2.361 2.361 0 0 0-.972-.189zm6.335 8.082v-9.117h.954c.228 0 .372.111.432.333l.126.99a5.155 5.155 0 0 1 1.323-1.062c.492-.27 1.059-.405 1.701-.405.498 0 .936.084 1.314.252.384.162.702.396.954.702.258.3.453.663.585 1.089.132.426.198.897.198 1.413v5.805h-1.602v-5.805c0-.69-.159-1.224-.477-1.602-.312-.384-.792-.576-1.44-.576-.474 0-.918.114-1.332.342a4.403 4.403 0 0 0-1.134.927v6.714h-1.602zm11.928-9.117v5.814c0 .69.159 1.224.477 1.602.318.378.798.567 1.44.567.468 0 .909-.111 1.323-.333a4.115 4.115 0 0 0 1.143-.927v-6.723h1.602v9.117h-.954c-.228 0-.372-.111-.432-.333l-.126-.981c-.396.438-.84.792-1.332 1.062-.492.264-1.056.396-1.692.396-.498 0-.939-.081-1.323-.243a2.668 2.668 0 0 1-.954-.702 3.015 3.015 0 0 1-.585-1.089 4.97 4.97 0 0 1-.189-1.413v-5.814h1.602zm12.765-.144c.546 0 1.05.093 1.512.279.462.18.861.444 1.197.792.336.342.597.768.783 1.278.192.504.288 1.08.288 1.728 0 .252-.027.42-.081.504-.054.084-.156.126-.306.126h-6.066c.012.576.09 1.077.234 1.503.144.426.342.783.594 1.071.252.282.552.495.9.639a3.15 3.15 0 0 0 1.17.207c.402 0 .747-.045 1.035-.135a5.184 5.184 0 0 0 1.278-.603c.144-.096.267-.144.369-.144.132 0 .234.051.306.153l.45.585a3.13 3.13 0 0 1-.711.63 4.533 4.533 0 0 1-.891.432 5.255 5.255 0 0 1-.972.252c-.336.06-.669.09-.999.09a4.73 4.73 0 0 1-1.746-.315 3.954 3.954 0 0 1-1.377-.936 4.378 4.378 0 0 1-.9-1.53c-.216-.606-.324-1.302-.324-2.088 0-.636.096-1.23.288-1.782.198-.552.48-1.029.846-1.431a3.797 3.797 0 0 1 1.341-.954c.528-.234 1.122-.351 1.782-.351zm.036 1.179c-.774 0-1.383.225-1.827.675-.444.444-.72 1.062-.828 1.854h4.959c0-.372-.051-.711-.153-1.017a2.225 2.225 0 0 0-.45-.801 1.937 1.937 0 0 0-.729-.522 2.361 2.361 0 0 0-.972-.189zm10.409 8.082V98.837h1.611v5.454c.378-.438.81-.789 1.296-1.053.492-.27 1.053-.405 1.683-.405.528 0 1.005.099 1.431.297.426.198.789.495 1.089.891.3.39.531.876.693 1.458.162.576.243 1.242.243 1.998 0 .672-.09 1.299-.27 1.881a4.532 4.532 0 0 1-.783 1.503c-.336.42-.75.753-1.242.999-.486.24-1.035.36-1.647.36-.588 0-1.089-.114-1.503-.342a3.427 3.427 0 0 1-1.071-.954l-.081.828c-.048.228-.186.342-.414.342h-1.035zm4.068-7.983c-.522 0-.981.12-1.377.36-.39.24-.75.579-1.08 1.017v4.41c.288.396.606.675.954.837a2.8 2.8 0 0 0 1.179.243c.852 0 1.506-.303 1.962-.909.456-.606.684-1.47.684-2.592 0-.594-.054-1.104-.162-1.53-.102-.426-.252-.774-.45-1.044a1.757 1.757 0 0 0-.729-.603 2.425 2.425 0 0 0-.981-.189zm10.162-1.278c.666 0 1.266.111 1.8.333.54.222.996.537 1.368.945.378.408.666.903.864 1.485.204.576.306 1.221.306 1.935 0 .72-.102 1.368-.306 1.944a4.102 4.102 0 0 1-.864 1.476 3.754 3.754 0 0 1-1.368.945c-.534.216-1.134.324-1.8.324a4.832 4.832 0 0 1-1.809-.324 3.857 3.857 0 0 1-1.368-.945 4.208 4.208 0 0 1-.873-1.476c-.204-.576-.306-1.224-.306-1.944 0-.714.102-1.359.306-1.935a4.195 4.195 0 0 1 .873-1.485 3.857 3.857 0 0 1 1.368-.945 4.717 4.717 0 0 1 1.809-.333zm0 8.136c.9 0 1.572-.3 2.016-.9.444-.606.666-1.449.666-2.529 0-1.086-.222-1.932-.666-2.538-.444-.606-1.116-.909-2.016-.909-.456 0-.852.078-1.188.234a2.261 2.261 0 0 0-.846.675c-.222.294-.39.657-.504 1.089a5.912 5.912 0 0 0-.162 1.449c0 .54.054 1.023.162 1.449.114.426.282.786.504 1.08.228.288.51.51.846.666.336.156.732.234 1.188.234zm10.542-8.136c.666 0 1.266.111 1.8.333.54.222.996.537 1.368.945.378.408.666.903.864 1.485.204.576.306 1.221.306 1.935 0 .72-.102 1.368-.306 1.944a4.102 4.102 0 0 1-.864 1.476 3.754 3.754 0 0 1-1.368.945c-.534.216-1.134.324-1.8.324a4.832 4.832 0 0 1-1.809-.324 3.857 3.857 0 0 1-1.368-.945 4.208 4.208 0 0 1-.873-1.476c-.204-.576-.306-1.224-.306-1.944 0-.714.102-1.359.306-1.935a4.195 4.195 0 0 1 .873-1.485 3.857 3.857 0 0 1 1.368-.945 4.717 4.717 0 0 1 1.809-.333zm0 8.136c.9 0 1.572-.3 2.016-.9.444-.606.666-1.449.666-2.529 0-1.086-.222-1.932-.666-2.538-.444-.606-1.116-.909-2.016-.909-.456 0-.852.078-1.188.234a2.261 2.261 0 0 0-.846.675c-.222.294-.39.657-.504 1.089a5.912 5.912 0 0 0-.162 1.449c0 .54.054 1.023.162 1.449.114.426.282.786.504 1.08.228.288.51.51.846.666.336.156.732.234 1.188.234zm8.517-12.132v7.803h.414c.12 0 .219-.015.297-.045a.907.907 0 0 0 .261-.207l2.88-3.087c.09-.096.18-.174.27-.234a.64.64 0 0 1 .36-.09h1.458l-3.357 3.573a2.776 2.776 0 0 1-.252.27 1.34 1.34 0 0 1-.27.207c.108.072.204.156.288.252.09.09.174.195.252.315l3.564 4.5h-1.44a.757.757 0 0 1-.342-.072.976.976 0 0 1-.261-.243l-2.997-3.735a.66.66 0 0 0-.27-.243c-.09-.042-.225-.063-.405-.063h-.45v4.356h-1.611V98.837h1.611zm10.097 4.14v9.117h-1.602v-9.117h1.602zm.36-2.862c0 .156-.033.303-.099.441-.06.132-.144.252-.252.36a1.154 1.154 0 0 1-.36.243c-.138.06-.285.09-.441.09-.156 0-.303-.03-.441-.09a1.313 1.313 0 0 1-.36-.243 1.313 1.313 0 0 1-.243-.36 1.094 1.094 0 0 1-.09-.441c0-.156.03-.303.09-.441.06-.144.141-.267.243-.37a1.094 1.094 0 0 1 .801-.342 1.094 1.094 0 0 1 .801.343c.108.102.192.225.252.369.066.138.099.285.099.441zm3.003 11.979v-9.117h.954c.228 0 .372.111.432.333l.126.99a5.155 5.155 0 0 1 1.323-1.062c.492-.27 1.059-.405 1.701-.405.498 0 .936.084 1.314.252.384.162.702.396.954.702.258.3.453.663.585 1.089.132.426.198.897.198 1.413v5.805h-1.602v-5.805c0-.69-.159-1.224-.477-1.602-.312-.384-.792-.576-1.44-.576-.474 0-.918.114-1.332.342a4.403 4.403 0 0 0-1.134.927v6.714h-1.602zm13.611-9.27c.396 0 .765.045 1.107.135.348.084.663.21.945.378h2.475v.594c0 .198-.126.324-.378.378l-1.035.144c.204.39.306.825.306 1.305 0 .444-.087.849-.261 1.215-.168.36-.405.669-.711.927-.3.258-.66.456-1.08.594-.414.138-.87.207-1.368.207-.426 0-.828-.051-1.206-.153a1.58 1.58 0 0 0-.441.387.71.71 0 0 0-.144.405c0 .216.087.381.261.495.174.108.405.186.693.234.288.048.615.078.981.09.366.012.738.033 1.116.063.384.024.759.069 1.125.135s.693.174.981.324c.288.15.519.357.693.621.174.264.261.606.261 1.026 0 .39-.099.768-.297 1.134a2.97 2.97 0 0 1-.837.972 4.21 4.21 0 0 1-1.341.684c-.528.174-1.125.261-1.791.261-.666 0-1.251-.066-1.755-.198-.498-.132-.912-.309-1.242-.531a2.343 2.343 0 0 1-.747-.774 1.827 1.827 0 0 1-.243-.909c0-.45.141-.831.423-1.143.288-.318.681-.57 1.179-.756a1.67 1.67 0 0 1-.621-.477c-.15-.204-.225-.474-.225-.81 0-.132.024-.267.072-.405a1.66 1.66 0 0 1 .216-.423c.102-.138.225-.27.369-.396a2.37 2.37 0 0 1 .504-.333 2.886 2.886 0 0 1-1.062-.999c-.252-.42-.378-.909-.378-1.467 0-.444.084-.846.252-1.206a2.67 2.67 0 0 1 .72-.927 3.235 3.235 0 0 1 1.089-.594 4.505 4.505 0 0 1 1.395-.207zm2.844 9.765c0-.228-.063-.411-.189-.549a1.185 1.185 0 0 0-.513-.315 3.517 3.517 0 0 0-.747-.171c-.282-.036-.579-.06-.891-.072l-.954-.054a8.777 8.777 0 0 1-.927-.099c-.342.162-.621.36-.837.594a1.21 1.21 0 0 0-.315.837c0 .204.051.393.153.567.108.18.27.333.486.459.216.132.486.234.81.306.33.078.717.117 1.161.117.432 0 .819-.039 1.161-.117.342-.078.63-.189.864-.333.24-.144.423-.315.549-.513.126-.198.189-.417.189-.657zm-2.844-4.95c.324 0 .609-.045.855-.135.252-.09.462-.216.63-.378.168-.162.294-.354.378-.576.084-.228.126-.477.126-.747 0-.558-.171-1.002-.513-1.332-.336-.33-.828-.495-1.476-.495-.642 0-1.134.165-1.476.495-.336.33-.504.774-.504 1.332 0 .27.042.519.126.747a1.653 1.653 0 0 0 1.008.954c.246.09.528.135.846.135zm10.685 7.542v-12.204h.954c.228 0 .372.111.432.333l.135 1.08c.39-.474.834-.855 1.332-1.143.504-.288 1.083-.432 1.737-.432.522 0 .996.102 1.422.306.426.198.789.495 1.089.891.3.39.531.876.693 1.458.162.582.243 1.251.243 2.007 0 .672-.09 1.299-.27 1.881a4.63 4.63 0 0 1-.774 1.503c-.336.42-.75.753-1.242.999-.486.24-1.035.36-1.647.36-.564 0-1.047-.093-1.449-.279a3.27 3.27 0 0 1-1.053-.792v4.032h-1.602zm4.059-11.07c-.522 0-.981.12-1.377.36-.39.24-.75.579-1.08 1.017v4.41c.294.396.615.675.963.837a2.8 2.8 0 0 0 1.179.243c.846 0 1.497-.303 1.953-.909.456-.606.684-1.47.684-2.592 0-.594-.054-1.104-.162-1.53-.102-.426-.252-.774-.45-1.044a1.757 1.757 0 0 0-.729-.603 2.425 2.425 0 0 0-.981-.189zm8.195-5.274v13.257h-1.602V98.837h1.602zm10.059 13.257h-.711a.849.849 0 0 1-.378-.072c-.096-.048-.159-.15-.189-.306l-.18-.846c-.24.216-.474.411-.702.585a4.402 4.402 0 0 1-.72.432 3.877 3.877 0 0 1-.81.261c-.282.06-.597.09-.945.09a3.38 3.38 0 0 1-.999-.144 2.33 2.33 0 0 1-.801-.45 2.179 2.179 0 0 1-.549-.747 2.711 2.711 0 0 1-.198-1.08c0-.36.099-.705.297-1.035.198-.336.516-.633.954-.891.444-.258 1.023-.468 1.737-.63.714-.168 1.587-.264 2.619-.288v-.711c0-.708-.153-1.242-.459-1.602-.3-.366-.747-.549-1.341-.549-.39 0-.72.051-.99.153a3.546 3.546 0 0 0-.693.333c-.192.12-.36.231-.504.333a.721.721 0 0 1-.414.144.52.52 0 0 1-.288-.081.723.723 0 0 1-.189-.216l-.288-.513a5.206 5.206 0 0 1 1.629-1.089 5.03 5.03 0 0 1 1.935-.36c.51 0 .963.084 1.359.252.396.168.729.402.999.702.27.3.474.663.612 1.089.138.426.207.894.207 1.404v5.832zm-4.158-.981c.282 0 .54-.027.774-.081.234-.06.453-.141.657-.243.21-.108.408-.237.594-.387a4.91 4.91 0 0 0 .558-.513v-1.899c-.738.024-1.365.084-1.881.18-.516.09-.936.21-1.26.36-.324.15-.561.327-.711.531a1.158 1.158 0 0 0-.216.684c0 .24.039.447.117.621.078.174.183.318.315.432.132.108.288.189.468.243.18.048.375.072.585.072zm9.888 1.125c-.72 0-1.275-.201-1.665-.603-.384-.402-.576-.981-.576-1.737v-5.58h-1.098a.371.371 0 0 1-.243-.081c-.066-.06-.099-.15-.099-.27v-.639l1.494-.189.369-2.817a.323.323 0 0 1 .117-.216.36.36 0 0 1 .252-.09h.81v3.141h2.61v1.161h-2.61v5.472c0 .384.093.669.279.855a.974.974 0 0 0 .72.279c.168 0 .312-.021.432-.063.126-.048.234-.099.324-.153.09-.054.165-.102.225-.144.066-.048.123-.072.171-.072.084 0 .159.051.225.153l.468.765a3.043 3.043 0 0 1-.999.612c-.39.144-.792.216-1.206.216zm4.852-.144v-7.749l-1.008-.117a.893.893 0 0 1-.315-.135.345.345 0 0 1-.117-.279v-.657h1.44v-.882a4.1 4.1 0 0 1 .216-1.386c.15-.408.36-.75.63-1.026.276-.282.606-.495.99-.64a3.67 3.67 0 0 1 1.296-.215c.408 0 .786.06 1.134.18l-.036.8c-.006.121-.057.193-.153.217a1.76 1.76 0 0 1-.405.036h-.279c-.276 0-.528.036-.756.108a1.423 1.423 0 0 0-.576.351 1.63 1.63 0 0 0-.378.639c-.084.264-.126.591-.126.981v.837h2.637v1.161h-2.583v7.776h-1.611zm9.934-9.261c.666 0 1.266.111 1.8.333.54.222.996.537 1.368.945.378.408.666.903.864 1.485.204.576.306 1.221.306 1.935 0 .72-.102 1.368-.306 1.944a4.102 4.102 0 0 1-.864 1.476 3.754 3.754 0 0 1-1.368.945c-.534.216-1.134.324-1.8.324a4.832 4.832 0 0 1-1.809-.324 3.857 3.857 0 0 1-1.368-.945 4.208 4.208 0 0 1-.873-1.476c-.204-.576-.306-1.224-.306-1.944 0-.714.102-1.359.306-1.935a4.195 4.195 0 0 1 .873-1.485 3.857 3.857 0 0 1 1.368-.945 4.717 4.717 0 0 1 1.809-.333zm0 8.136c.9 0 1.572-.3 2.016-.9.444-.606.666-1.449.666-2.529 0-1.086-.222-1.932-.666-2.538-.444-.606-1.116-.909-2.016-.909-.456 0-.852.078-1.188.234a2.261 2.261 0 0 0-.846.675c-.222.294-.39.657-.504 1.089a5.912 5.912 0 0 0-.162 1.449c0 .54.054 1.023.162 1.449.114.426.282.786.504 1.08.228.288.51.51.846.666.336.156.732.234 1.188.234zm6.852 1.125v-9.117h.918c.174 0 .294.033.36.099s.111.18.135.342l.108 1.422c.312-.636.696-1.131 1.152-1.485a2.56 2.56 0 0 1 1.62-.54c.252 0 .48.03.684.09.204.054.393.132.567.234l-.207 1.197c-.042.15-.135.225-.279.225-.084 0-.213-.027-.387-.081-.174-.06-.417-.09-.729-.09-.558 0-1.026.162-1.404.486-.372.324-.684.795-.936 1.413v5.805h-1.602zm7.8 0v-9.117h.954c.228 0 .372.111.432.333l.117.936a4.715 4.715 0 0 1 1.125-1.017c.42-.264.906-.396 1.458-.396.618 0 1.116.171 1.494.513.384.342.66.804.828 1.386.126-.33.291-.615.495-.855a2.98 2.98 0 0 1 1.521-.936c.294-.072.591-.108.891-.108.48 0 .906.078 1.278.234.378.15.696.372.954.666.264.294.465.657.603 1.089.138.426.207.915.207 1.467v5.805h-1.602v-5.805c0-.714-.156-1.254-.468-1.62-.312-.372-.765-.558-1.359-.558-.264 0-.516.048-.756.144-.234.09-.441.225-.621.405-.18.18-.324.408-.432.684-.102.27-.153.585-.153.945v5.805h-1.602v-5.805c0-.732-.147-1.278-.441-1.638-.294-.36-.723-.54-1.287-.54-.396 0-.765.108-1.107.324a3.57 3.57 0 0 0-.927.864v6.795h-1.602z" fill="#000"/>
    <mask id="njw56bozde" style="mask-type:luminance" maskUnits="userSpaceOnUse" x="57" y="135" width="12" height="10">
        <path d="M68.524 135.001H57.682v9.03h10.842v-9.03z" fill="#fff"/>
    </mask>
    <g mask="url(#njw56bozde)">
        <path d="m57.682 139.418.857-.821 2.566 1.638c.046-.051.087-.094.126-.14a26.96 26.96 0 0 1 3.907-3.788c.558-.44 1.158-.823 1.742-1.227a.527.527 0 0 1 .27-.074c.406-.007.822 0 1.232 0h.146c-.012.024-.015.037-.023.045a23.196 23.196 0 0 0-3.355 3.415 54.59 54.59 0 0 0-3.947 5.467c-.018.029-.04.056-.068.098-1.068-1.606-2.276-3.112-3.453-4.613z" fill="#777"/>
    </g>
    <path d="M93.752 138.65c0 .966-.153 1.854-.459 2.664a6.1 6.1 0 0 1-1.296 2.079 5.835 5.835 0 0 1-2.016 1.359c-.78.318-1.644.477-2.592.477-.948 0-1.812-.159-2.592-.477a5.855 5.855 0 0 1-2.007-1.359 6.1 6.1 0 0 1-1.296-2.079c-.306-.81-.459-1.698-.459-2.664 0-.966.153-1.851.459-2.655a6.082 6.082 0 0 1 1.296-2.088 5.794 5.794 0 0 1 2.007-1.368c.78-.324 1.644-.486 2.592-.486.948 0 1.812.162 2.592.486.786.324 1.458.78 2.016 1.368.558.582.99 1.278 1.296 2.088.306.804.459 1.689.459 2.655zm-1.791 0c0-.792-.108-1.503-.324-2.133-.216-.63-.522-1.161-.918-1.593a3.958 3.958 0 0 0-1.44-1.008c-.564-.234-1.194-.351-1.89-.351-.69 0-1.317.117-1.881.351a4.043 4.043 0 0 0-1.449 1.008c-.396.432-.702.963-.918 1.593-.216.63-.324 1.341-.324 2.133s.108 1.503.324 2.133c.216.624.522 1.155.918 1.593.402.432.885.765 1.449.999a4.977 4.977 0 0 0 1.881.342c.696 0 1.326-.114 1.89-.342a4.01 4.01 0 0 0 1.44-.999c.396-.438.702-.969.918-1.593.216-.63.324-1.341.324-2.133zm3.31-2.673h1.313c.126 0 .231.033.315.099a.561.561 0 0 1 .18.234l2.313 5.868c.084.216.15.432.198.648.048.216.093.429.135.639.048-.21.1-.423.153-.639a5.4 5.4 0 0 1 .207-.648l2.34-5.868a.518.518 0 0 1 .171-.234.48.48 0 0 1 .306-.099h1.251l-3.717 9.117h-1.449l-3.717-9.117zm14.283-.144c.546 0 1.05.093 1.512.279.462.18.861.444 1.197.792.336.342.597.768.783 1.278.192.504.288 1.08.288 1.728 0 .252-.027.42-.081.504-.054.084-.156.126-.306.126h-6.066c.012.576.09 1.077.234 1.503.144.426.342.783.594 1.071.252.282.552.495.9.639a3.15 3.15 0 0 0 1.17.207c.402 0 .747-.045 1.035-.135a5.184 5.184 0 0 0 1.278-.603c.144-.096.267-.144.369-.144.132 0 .234.051.306.153l.45.585a3.13 3.13 0 0 1-.711.63 4.533 4.533 0 0 1-.891.432 5.255 5.255 0 0 1-.972.252c-.336.06-.669.09-.999.09a4.73 4.73 0 0 1-1.746-.315 3.954 3.954 0 0 1-1.377-.936 4.378 4.378 0 0 1-.9-1.53c-.216-.606-.324-1.302-.324-2.088 0-.636.096-1.23.288-1.782.198-.552.48-1.029.846-1.431a3.797 3.797 0 0 1 1.341-.954c.528-.234 1.122-.351 1.782-.351zm.036 1.179c-.774 0-1.383.225-1.827.675-.444.444-.72 1.062-.828 1.854h4.959c0-.372-.051-.711-.153-1.017a2.225 2.225 0 0 0-.45-.801 1.937 1.937 0 0 0-.729-.522 2.361 2.361 0 0 0-.972-.189zm6.334 8.082v-9.117h.918c.174 0 .294.033.36.099s.111.18.135.342l.108 1.422c.312-.636.696-1.131 1.152-1.485a2.56 2.56 0 0 1 1.62-.54c.252 0 .48.03.684.09.204.054.393.132.567.234l-.207 1.197c-.042.15-.135.225-.279.225-.084 0-.213-.027-.387-.081-.174-.06-.417-.09-.729-.09-.558 0-1.026.162-1.404.486-.372.324-.684.795-.936 1.413v5.805h-1.602zm18.633-4.653h1.953v.918c0 .096-.03.177-.09.243-.054.066-.141.099-.261.099h-1.602v3.393h-1.413v-3.393h-5.715a.518.518 0 0 1-.315-.099.483.483 0 0 1-.162-.261l-.162-.819 6.273-8.325h1.494v8.244zm-1.413-5.319c0-.156.003-.324.009-.504.012-.18.033-.366.063-.558l-4.689 6.381h4.617v-5.319zm14.168 3.528c0 1.128-.123 2.106-.369 2.934-.24.822-.57 1.503-.99 2.043-.42.54-.918.942-1.494 1.206a4.315 4.315 0 0 1-1.836.396c-.66 0-1.275-.132-1.845-.396a4.027 4.027 0 0 1-1.476-1.206c-.42-.54-.75-1.221-.99-2.043-.24-.828-.36-1.806-.36-2.934 0-1.128.12-2.106.36-2.934.24-.828.57-1.512.99-2.052.42-.546.912-.951 1.476-1.215a4.336 4.336 0 0 1 1.845-.396c.654 0 1.266.132 1.836.396a3.954 3.954 0 0 1 1.494 1.215c.42.54.75 1.224.99 2.052.246.828.369 1.806.369 2.934zm-1.665 0c0-.984-.084-1.809-.252-2.475-.162-.672-.384-1.212-.666-1.62-.276-.408-.597-.699-.963-.873a2.56 2.56 0 0 0-2.286 0c-.366.174-.687.465-.963.873-.276.408-.498.948-.666 1.62-.162.666-.243 1.491-.243 2.475s.081 1.809.243 2.475c.168.666.39 1.203.666 1.611.276.408.597.702.963.882a2.632 2.632 0 0 0 2.286 0c.366-.18.687-.474.963-.882.282-.408.504-.945.666-1.611.168-.666.252-1.491.252-2.475zm3.592 5.337c0-.138.024-.267.072-.387.054-.126.126-.234.216-.324.096-.096.21-.171.342-.225a1.13 1.13 0 0 1 .432-.081c.18 0 .339.033.477.099a.897.897 0 0 1 .351.279c.096.114.168.249.216.405.048.15.072.315.072.495 0 .27-.039.552-.117.846a4.719 4.719 0 0 1-.873 1.692c-.21.27-.45.519-.72.747l-.27-.261a.333.333 0 0 1-.117-.252c0-.078.042-.159.126-.243.06-.066.135-.156.225-.27a3.447 3.447 0 0 0 .549-.855 2.17 2.17 0 0 0 .18-.558h-.117c-.156 0-.297-.027-.423-.081a1.053 1.053 0 0 1-.333-.225 1.23 1.23 0 0 1-.216-.351 1.361 1.361 0 0 1-.072-.45zm13.409-5.337c0 1.128-.123 2.106-.369 2.934-.24.822-.57 1.503-.99 2.043-.42.54-.918.942-1.494 1.206a4.315 4.315 0 0 1-1.836.396c-.66 0-1.275-.132-1.845-.396a4.027 4.027 0 0 1-1.476-1.206c-.42-.54-.75-1.221-.99-2.043-.24-.828-.36-1.806-.36-2.934 0-1.128.12-2.106.36-2.934.24-.828.57-1.512.99-2.052.42-.546.912-.951 1.476-1.215a4.336 4.336 0 0 1 1.845-.396c.654 0 1.266.132 1.836.396a3.954 3.954 0 0 1 1.494 1.215c.42.54.75 1.224.99 2.052.246.828.369 1.806.369 2.934zm-1.665 0c0-.984-.084-1.809-.252-2.475-.162-.672-.384-1.212-.666-1.62-.276-.408-.597-.699-.963-.873a2.56 2.56 0 0 0-2.286 0c-.366.174-.687.465-.963.873-.276.408-.498.948-.666 1.62-.162.666-.243 1.491-.243 2.475s.081 1.809.243 2.475c.168.666.39 1.203.666 1.611.276.408.597.702.963.882a2.632 2.632 0 0 0 2.286 0c.366-.18.687-.474.963-.882.282-.408.504-.945.666-1.611.168-.666.252-1.491.252-2.475zm12.646 0c0 1.128-.123 2.106-.369 2.934-.24.822-.57 1.503-.99 2.043-.42.54-.918.942-1.494 1.206a4.315 4.315 0 0 1-1.836.396c-.66 0-1.275-.132-1.845-.396a4.027 4.027 0 0 1-1.476-1.206c-.42-.54-.75-1.221-.99-2.043-.24-.828-.36-1.806-.36-2.934 0-1.128.12-2.106.36-2.934.24-.828.57-1.512.99-2.052.42-.546.912-.951 1.476-1.215a4.336 4.336 0 0 1 1.845-.396c.654 0 1.266.132 1.836.396a3.954 3.954 0 0 1 1.494 1.215c.42.54.75 1.224.99 2.052.246.828.369 1.806.369 2.934zm-1.665 0c0-.984-.084-1.809-.252-2.475-.162-.672-.384-1.212-.666-1.62-.276-.408-.597-.699-.963-.873a2.56 2.56 0 0 0-2.286 0c-.366.174-.687.465-.963.873-.276.408-.498.948-.666 1.62-.162.666-.243 1.491-.243 2.475s.081 1.809.243 2.475c.168.666.39 1.203.666 1.611.276.408.597.702.963.882a2.632 2.632 0 0 0 2.286 0c.366-.18.687-.474.963-.882.282-.408.504-.945.666-1.611.168-.666.252-1.491.252-2.475zm12.647 0c0 1.128-.123 2.106-.369 2.934-.24.822-.57 1.503-.99 2.043-.42.54-.918.942-1.494 1.206a4.315 4.315 0 0 1-1.836.396c-.66 0-1.275-.132-1.845-.396a4.027 4.027 0 0 1-1.476-1.206c-.42-.54-.75-1.221-.99-2.043-.24-.828-.36-1.806-.36-2.934 0-1.128.12-2.106.36-2.934.24-.828.57-1.512.99-2.052.42-.546.912-.951 1.476-1.215a4.336 4.336 0 0 1 1.845-.396c.654 0 1.266.132 1.836.396a3.954 3.954 0 0 1 1.494 1.215c.42.54.75 1.224.99 2.052.246.828.369 1.806.369 2.934zm-1.665 0c0-.984-.084-1.809-.252-2.475-.162-.672-.384-1.212-.666-1.62-.276-.408-.597-.699-.963-.873a2.56 2.56 0 0 0-2.286 0c-.366.174-.687.465-.963.873-.276.408-.498.948-.666 1.62-.162.666-.243 1.491-.243 2.475s.081 1.809.243 2.475c.168.666.39 1.203.666 1.611.276.408.597.702.963.882a2.632 2.632 0 0 0 2.286 0c.366-.18.687-.474.963-.882.282-.408.504-.945.666-1.611.168-.666.252-1.491.252-2.475zm8.605-4.05v3.843h3.663v1.215h-3.663v3.87h-1.314v-3.87h-3.645v-1.215h3.645V134.6h1.314zm9.305 1.377h1.314c.126 0 .231.033.315.099a.561.561 0 0 1 .18.234l2.313 5.868c.084.216.15.432.198.648.048.216.093.429.135.639.048-.21.099-.423.153-.639.054-.216.123-.432.207-.648l2.34-5.868a.518.518 0 0 1 .171-.234.48.48 0 0 1 .306-.099h1.251l-3.717 9.117h-1.449l-3.717-9.117zm14.283-.144c.546 0 1.05.093 1.512.279.462.18.861.444 1.197.792.336.342.597.768.783 1.278.192.504.288 1.08.288 1.728 0 .252-.027.42-.081.504-.054.084-.156.126-.306.126h-6.066c.012.576.09 1.077.234 1.503.144.426.342.783.594 1.071.252.282.552.495.9.639a3.15 3.15 0 0 0 1.17.207c.402 0 .747-.045 1.035-.135a5.184 5.184 0 0 0 1.278-.603c.144-.096.267-.144.369-.144.132 0 .234.051.306.153l.45.585a3.13 3.13 0 0 1-.711.63 4.533 4.533 0 0 1-.891.432 5.255 5.255 0 0 1-.972.252c-.336.06-.669.09-.999.09a4.73 4.73 0 0 1-1.746-.315 3.954 3.954 0 0 1-1.377-.936 4.378 4.378 0 0 1-.9-1.53c-.216-.606-.324-1.302-.324-2.088 0-.636.096-1.23.288-1.782.198-.552.48-1.029.846-1.431a3.797 3.797 0 0 1 1.341-.954c.528-.234 1.122-.351 1.782-.351zm.036 1.179c-.774 0-1.383.225-1.827.675-.444.444-.72 1.062-.828 1.854h4.959c0-.372-.051-.711-.153-1.017a2.225 2.225 0 0 0-.45-.801 1.937 1.937 0 0 0-.729-.522 2.361 2.361 0 0 0-.972-.189zm6.335 8.082v-9.117h.954c.228 0 .372.111.432.333l.126.99a5.155 5.155 0 0 1 1.323-1.062c.492-.27 1.059-.405 1.701-.405.498 0 .936.084 1.314.252.384.162.702.396.954.702.258.3.453.663.585 1.089.132.426.198.897.198 1.413v5.805h-1.602v-5.805c0-.69-.159-1.224-.477-1.602-.312-.384-.792-.576-1.44-.576-.474 0-.918.114-1.332.342a4.403 4.403 0 0 0-1.134.927v6.714h-1.602zm11.928-9.117v5.814c0 .69.159 1.224.477 1.602.318.378.798.567 1.44.567.468 0 .909-.111 1.323-.333a4.115 4.115 0 0 0 1.143-.927v-6.723h1.602v9.117h-.954c-.228 0-.372-.111-.432-.333l-.126-.981c-.396.438-.84.792-1.332 1.062-.492.264-1.056.396-1.692.396-.498 0-.939-.081-1.323-.243a2.668 2.668 0 0 1-.954-.702 3.015 3.015 0 0 1-.585-1.089 4.97 4.97 0 0 1-.189-1.413v-5.814h1.602zm12.765-.144c.546 0 1.05.093 1.512.279.462.18.861.444 1.197.792.336.342.597.768.783 1.278.192.504.288 1.08.288 1.728 0 .252-.027.42-.081.504-.054.084-.156.126-.306.126h-6.066c.012.576.09 1.077.234 1.503.144.426.342.783.594 1.071.252.282.552.495.9.639a3.15 3.15 0 0 0 1.17.207c.402 0 .747-.045 1.035-.135a5.184 5.184 0 0 0 1.278-.603c.144-.096.267-.144.369-.144.132 0 .234.051.306.153l.45.585a3.13 3.13 0 0 1-.711.63 4.533 4.533 0 0 1-.891.432 5.255 5.255 0 0 1-.972.252c-.336.06-.669.09-.999.09a4.73 4.73 0 0 1-1.746-.315 3.954 3.954 0 0 1-1.377-.936 4.378 4.378 0 0 1-.9-1.53c-.216-.606-.324-1.302-.324-2.088 0-.636.096-1.23.288-1.782.198-.552.48-1.029.846-1.431a3.797 3.797 0 0 1 1.341-.954c.528-.234 1.122-.351 1.782-.351zm.036 1.179c-.774 0-1.383.225-1.827.675-.444.444-.72 1.062-.828 1.854h4.959c0-.372-.051-.711-.153-1.017a2.225 2.225 0 0 0-.45-.801 1.937 1.937 0 0 0-.729-.522 2.361 2.361 0 0 0-.972-.189zm11.554.468a.355.355 0 0 1-.333.198.627.627 0 0 1-.306-.099 5.385 5.385 0 0 0-.423-.216 3.227 3.227 0 0 0-.585-.225 2.702 2.702 0 0 0-.81-.108c-.27 0-.513.036-.729.108a1.739 1.739 0 0 0-.558.279c-.15.12-.267.261-.351.423a1.13 1.13 0 0 0-.117.513c0 .234.066.429.198.585.138.156.318.291.54.405.222.114.474.216.756.306.282.084.57.177.864.279.3.096.591.204.873.324.282.12.534.27.756.45.222.18.399.402.531.666.138.258.207.57.207.936 0 .42-.075.81-.225 1.17-.15.354-.372.663-.666.927a3.255 3.255 0 0 1-1.08.612c-.426.15-.918.225-1.476.225a4.664 4.664 0 0 1-1.728-.306 4.45 4.45 0 0 1-1.314-.801l.378-.612a.55.55 0 0 1 .171-.18.48.48 0 0 1 .261-.063c.108 0 .222.042.342.126.12.084.264.177.432.279.174.102.381.195.621.279.246.084.552.126.918.126.312 0 .585-.039.819-.117.234-.084.429-.195.585-.333.156-.138.27-.297.342-.477.078-.18.117-.372.117-.576a.924.924 0 0 0-.207-.621 1.579 1.579 0 0 0-.531-.423 3.91 3.91 0 0 0-.765-.306l-.873-.279a11.76 11.76 0 0 1-.873-.324 3.205 3.205 0 0 1-.756-.468 2.168 2.168 0 0 1-.54-.684c-.132-.276-.198-.609-.198-.999 0-.348.072-.681.216-.999.144-.324.354-.606.63-.846a3.058 3.058 0 0 1 1.017-.585 4.07 4.07 0 0 1 1.377-.216c.6 0 1.137.096 1.611.288.48.186.894.444 1.242.774l-.36.585z" fill="#000"/>
    <rect x="55" y="171.094" width="146" height="32" rx="10" fill="#E06506"/>
    <path d="M91.645 181.972v1.498h-4.487v2.996h3.787v1.505h-3.787v4.123H85.26v-10.122h6.384zm4.018 10.122h-1.89v-10.122h1.89v10.122zm3.689-10.122c.084 0 .154.004.21.014a.341.341 0 0 1 .147.042.39.39 0 0 1 .133.091c.042.037.088.088.14.154l5.313 6.769a8.38 8.38 0 0 1-.042-.476 14.017 14.017 0 0 1-.007-.441v-6.153h1.659v10.122h-.973a.87.87 0 0 1-.371-.07.83.83 0 0 1-.287-.252l-5.292-6.741c.014.149.023.298.028.448.009.144.014.277.014.399v6.216h-1.66v-10.122h.988zm19.003 5.061c0 .742-.124 1.423-.371 2.044a4.711 4.711 0 0 1-1.043 1.603 4.676 4.676 0 0 1-1.617 1.043c-.63.247-1.328.371-2.093.371h-3.864v-10.122h3.864c.765 0 1.463.126 2.093.378.63.247 1.169.595 1.617 1.043.448.443.795.975 1.043 1.596.247.62.371 1.302.371 2.044zm-1.925 0c0-.556-.075-1.053-.224-1.491a3.132 3.132 0 0 0-.637-1.12 2.728 2.728 0 0 0-1.008-.707 3.42 3.42 0 0 0-1.33-.245h-1.967v7.126h1.967c.494 0 .938-.082 1.33-.245a2.783 2.783 0 0 0 1.008-.7 3.23 3.23 0 0 0 .637-1.12c.149-.444.224-.943.224-1.498zm5.949-5.061h1.519c.163 0 .296.039.399.119a.737.737 0 0 1 .231.308l2.38 6.174c.079.2.154.422.224.665.074.238.144.49.21.756.107-.537.24-1.011.399-1.421l2.373-6.174a.715.715 0 0 1 .224-.294.603.603 0 0 1 .399-.133h1.519l-4.088 10.122h-1.701l-4.088-10.122zm17.737 0v1.498h-4.487v2.807h3.535v1.449h-3.535v2.863h4.487v1.505h-6.384v-10.122h6.384zm3.035 0c.084 0 .154.004.21.014a.341.341 0 0 1 .147.042.396.396 0 0 1 .133.091c.042.037.088.088.14.154l5.313 6.769a8.38 8.38 0 0 1-.042-.476 14.017 14.017 0 0 1-.007-.441v-6.153h1.659v10.122h-.973a.87.87 0 0 1-.371-.07.83.83 0 0 1-.287-.252l-5.292-6.741c.014.149.023.298.028.448.009.144.014.277.014.399v6.216h-1.659v-10.122h.987zm14.089 8.603c.364 0 .688-.061.973-.182a2.01 2.01 0 0 0 .728-.511c.2-.22.352-.486.455-.798.107-.313.161-.663.161-1.05v-6.062h1.883v6.062c0 .602-.098 1.159-.294 1.673a3.796 3.796 0 0 1-.833 1.323 3.893 3.893 0 0 1-1.323.868c-.518.205-1.102.308-1.75.308-.649 0-1.232-.103-1.75-.308-.518-.21-.959-.5-1.323-.868a3.915 3.915 0 0 1-.833-1.323 4.741 4.741 0 0 1-.287-1.673v-6.062h1.883v6.055c0 .387.051.737.154 1.05.107.312.259.581.455.805.196.219.436.389.721.511.289.121.616.182.98.182zm12.915-8.603v1.498h-4.487v2.807h3.535v1.449h-3.535v2.863h4.487v1.505h-6.384v-10.122h6.384z" fill="#fff"/>
    <defs>
        <clipPath id="na20g01euc">
            <path fill="#fff" transform="translate(425 49)" d="M0 0h55.17v57.17H0z"/>
        </clipPath>
        <filter id="miarqt5o4a" x="0" y="0" width="647" height="254" filterUnits="userSpaceOnUse" color-interpolation-filters="sRGB">
            <feFlood flood-opacity="0" result="BackgroundImageFix"/>
            <feColorMatrix in="SourceAlpha" values="0 0 0 0 0 0 0 0 0 0 0 0 0 0 0 0 0 0 127 0" result="hardAlpha"/>
            <feOffset dy="4"/>
            <feGaussianBlur stdDeviation="7"/>
            <feComposite in2="hardAlpha" operator="out"/>
            <feColorMatrix values="0 0 0 0 0 0 0 0 0 0 0 0 0 0 0 0 0 0 0.04 0"/>
            <feBlend in2="BackgroundImageFix" result="effect1_dropShadow_2340_1032"/>
            <feBlend in="SourceGraphic" in2="effect1_dropShadow_2340_1032" result="shape"/>
        </filter>
    </defs>
</svg>
