<svg width="100" height="109" viewBox="0 0 100 109" fill="none" xmlns="http://www.w3.org/2000/svg">
    <g clip-path="url(#i7ddlrbmsa)">
        <path d="M25 108.5c-.32 0-.64-.1-.91-.31-.66-.5-.79-1.44-.28-2.1l16-21c.5-.66 1.44-.79 2.1-.28.66.5.79 1.44.28 2.1l-16 21c-.3.39-.74.59-1.19.59z" fill="#92DDA1"/>
        <path d="M11 87.5c-.48 0-.95-.23-1.24-.66-.47-.69-.29-1.62.4-2.08l12.5-8.5c.69-.47 1.62-.29 2.08.4.47.69.29 1.62-.4 2.08l-12.5 8.5c-.26.18-.55.26-.84.26z" fill="#6C9EDF"/>
        <path d="M1.5 61.5c-.78 0-1.44-.6-1.49-1.39-.06-.83.56-1.54 1.39-1.61L21.9 57c.83-.06 1.55.56 1.61 1.39.06.83-.56 1.54-1.39 1.61l-20.5 1.5H1.5z" fill="#D55951"/>
        <path d="M34.5 47c-.22 0-.44-.05-.66-.15l-18.5-9a1.483 1.483 0 0 1-.69-2c.36-.75 1.26-1.06 2-.69l18.5 9c.75.36 1.06 1.26.69 2-.26.53-.79.84-1.35.84h.01zM76.5 41.5a1.494 1.494 0 0 1-.86-2.72l15.5-11a1.494 1.494 0 1 1 1.73 2.44l-15.5 11c-.26.19-.57.28-.87.28z" fill="#92DDA1"/>
        <path d="M69.5 26a1.504 1.504 0 0 1-1.33-2.19l12-23c.38-.73 1.29-1.02 2.02-.64s1.02 1.29.64 2.02l-12 23c-.27.51-.79.81-1.33.81z" fill="#D55951"/>
        <path d="M35.5 29c-.47 0-.94-.22-1.23-.64l-15-21.5c-.47-.68-.31-1.61.37-2.09.68-.48 1.61-.31 2.09.37l15 21.5c.47.68.31 1.61-.37 2.09-.26.18-.56.27-.86.27zM8.25 36a2.25 2.25 0 1 0 0-4.5 2.25 2.25 0 0 0 0 4.5zM97.25 28a2.25 2.25 0 1 0 0-4.5 2.25 2.25 0 0 0 0 4.5z" fill="#F1CD70"/>
        <path d="M51 18.5c-.83 0-1.5-.67-1.5-1.5V1.5c0-.83.67-1.5 1.5-1.5s1.5.67 1.5 1.5V17c0 .83-.67 1.5-1.5 1.5z" fill="#6C9EDF"/>
    </g>
    <defs>
        <clipPath id="i7ddlrbmsa">
            <path fill="#fff" d="M0 0h99.5v108.5H0z"/>
        </clipPath>
    </defs>
</svg>
