<svg width="42" height="42" viewBox="0 0 42 42" fill="none" xmlns="http://www.w3.org/2000/svg">
    <circle cx="21" cy="21" r="21" fill="#000"/>
    <path d="M25.88 28c-1.238 0-2.296-.484-3.173-1.447a4.938 4.938 0 0 1-.993-1.632 5.354 5.354 0 0 1-.367-1.935c0-1.369.444-2.755 1.338-4.158.894-1.404 2.09-2.595 3.585-3.576C27.535 14.42 28.532 14 29.25 14c.288 0 .526.086.712.26.185.172.28.4.28.69 0 .432-.272.79-.82 1.08-1.309.678-2.267 1.347-2.872 2.008-.574.617-.863 1.07-.863 1.36 0 .29.215.44.647.497l.281.043.324.021c.937.143 1.697.579 2.28 1.309.583.725.877 1.61.877 2.647a3.974 3.974 0 0 1-1.08 2.764c-.82.876-1.865 1.317-3.13 1.317L25.88 28zM15.534 28c-1.24 0-2.297-.484-3.174-1.447a4.937 4.937 0 0 1-.993-1.632A5.352 5.352 0 0 1 11 22.986c0-1.369.445-2.755 1.339-4.158.894-1.404 2.09-2.595 3.584-3.576 1.27-.833 2.263-1.252 2.98-1.252.289 0 .526.086.712.26.186.172.28.4.28.69 0 .432-.271.79-.82 1.08-1.308.678-2.267 1.347-2.871 2.008-.575.617-.864 1.07-.864 1.36 0 .29.216.44.648.497l.28.043.324.021c.937.143 1.697.579 2.28 1.309.583.725.877 1.61.877 2.647a3.974 3.974 0 0 1-1.08 2.764c-.82.876-1.865 1.317-3.13 1.317l-.005.004z" fill="#fff"/>
</svg>
